<?xml version="1.0" encoding="UTF-8"?><svg id="Layer_1" xmlns="http://www.w3.org/2000/svg" viewBox="0 0 500 500"><defs><style>.cls-1{fill:#6cbe53;}</style></defs><path class="cls-1" d="m239.44,171.71l-.07-35.17.03-14.54h-.37c-75.8,0-137.48,61.67-137.48,137.48,0,36.66,14.32,71.17,40.31,97.17,26,26,60.5,40.31,97.17,40.31,36.66,0,71.17-14.32,97.16-40.31,22.33-22.32,36.38-51.8,39.58-83.02l35.23.05c-3.29,40.65-21.01,78.93-49.93,107.85-32.6,32.6-75.94,50.55-122.05,50.55-46.1,0-89.45-17.95-122.05-50.55-32.6-32.6-50.55-75.94-50.55-122.05,0-46.1,17.95-89.45,50.55-122.05s75.94-50.55,122.05-50.55h.37v-14.54h-.37c-49.98,0-96.98,19.47-132.33,54.81-35.35,35.35-54.81,82.34-54.81,132.33,0,49.99,19.46,96.98,54.81,132.33s82.34,54.81,132.33,54.81h0c49.98,0,96.98-19.46,132.32-54.81,35.35-35.35,54.81-82.34,54.81-132.33v-.37h-14.17l-.14.02-49.6-.06h-.37s0,3.81,0,3.81c-1.81,65.91-56.92,119.54-122.85,119.54-67.79,0-122.94-55.15-122.94-122.94,0-62.51,46.72-114.93,108.73-122.09l.07,35.45c-43.01,6.99-74.65,45.05-73.65,88.66,1.11,48.41,41.36,86.86,89.8,85.78,22.65-.52,43.98-9.65,60.04-25.71,17.15-17.15,26.29-39.91,25.74-64.09-.27-11.63-2.79-22.9-7.48-33.49,11.54-12.58,11.16-31.8-.92-43.88-12.08-12.08-31.3-12.46-43.88-.93-10.92-4.83-23.05-7.4-35.11-7.46Zm44.37,18.67c3.35-3.35,7.76-5.03,12.17-5.03s8.81,1.68,12.17,5.03c6.71,6.71,6.71,17.62,0,24.33-6.71,6.71-17.62,6.71-24.33,0s-6.71-17.62,0-24.33Zm28.48,67.43c.92,40.39-31.19,74-71.57,74.93-.57.01-1.13.02-1.7.02-39.63,0-72.32-31.78-73.23-71.6-.45-19.53,6.76-38.09,20.29-52.26,13.53-14.17,31.75-22.22,51.28-22.67.56-.01,1.12-.02,1.68-.02,9.32,0,18.46,1.77,27.21,5.26-4.32,11.64-1.48,24.76,7.28,33.52s21.9,11.6,33.55,7.27c3.26,8.13,5.02,16.72,5.22,25.54Z"/><path class="cls-1" d="m489.17,215.99c-11.46-11.46-30.09-11.46-41.55,0-11.46,11.46-11.46,30.09,0,41.55,3.73,3.73,8.43,6.38,13.61,7.68-1.44,57.16-24.53,110.92-65.03,151.42-41.98,41.98-97.79,65.1-157.17,65.1-59.37,0-115.18-23.12-157.16-65.1-41.98-41.98-65.1-97.79-65.1-157.16,0-59.37,23.12-115.18,65.1-157.17S177.18,38.29,235.01,37.26c1.03,6.04,3.84,11.5,8.14,15.8,5.54,5.54,12.92,8.59,20.78,8.59s15.23-3.05,20.77-8.59c11.46-11.46,11.46-30.09,0-41.55-5.54-5.54-12.92-8.59-20.77-8.59s-15.24,3.05-20.78,8.59c-3.16,3.15-5.5,6.92-6.96,11.19-62.17.73-120.61,25.34-164.59,69.32C26.87,136.76,2.23,196.23,2.24,259.48c0,63.25,24.63,122.72,69.36,167.45s104.2,69.36,167.45,69.36h0c63.25,0,122.72-24.63,167.44-69.36,43.26-43.26,67.86-100.69,69.29-161.76,5.09-1.31,9.72-3.95,13.4-7.62,5.54-5.54,8.59-12.92,8.59-20.77s-3.05-15.23-8.59-20.77Zm-10.28,31.27c-2.8,2.8-6.52,4.34-10.49,4.34s-7.69-1.54-10.49-4.34c-2.8-2.8-4.34-6.52-4.34-10.49s1.54-7.69,4.34-10.49,6.69-4.34,10.49-4.34,7.6,1.45,10.49,4.34c5.79,5.79,5.79,15.2,0,20.98ZM253.43,21.8c2.89-2.89,6.69-4.34,10.49-4.34s7.6,1.45,10.49,4.34,4.34,6.52,4.34,10.49-1.54,7.69-4.34,10.49-6.52,4.34-10.49,4.34-7.69-1.54-10.49-4.34c-5.79-5.79-5.79-15.2,0-20.98Z"/></svg>