<svg id="Layer_1" data-name="Layer 1" width="28" height="28" xmlns="http://www.w3.org/2000/svg" xmlns:xlink="http://www.w3.org/1999/xlink" viewBox="0 0 1255.02 1255.02">
    <defs>
        <style>.cls-1{fill:#1259a3;}.cls-2{fill:#00a69c;}.cls-3{fill:#1182b5;}.cls-4{fill:#2e9ad6;}.cls-5{fill:url(#linear-gradient);}.cls-6{fill:url(#linear-gradient-2);}.cls-7{fill:url(#linear-gradient-3);}.cls-8{fill:url(#linear-gradient-4);}.cls-9{fill:url(#linear-gradient-5);}.cls-10{fill:url(#linear-gradient-6);}.cls-11{fill:url(#linear-gradient-7);}.cls-12{fill:url(#linear-gradient-8);}.cls-13{fill:url(#linear-gradient-9);}.cls-14{fill:url(#linear-gradient-10);}.cls-15{fill:url(#linear-gradient-11);}.cls-16{fill:url(#linear-gradient-12);}</style>
        <linearGradient id="linear-gradient" x1="693.68" y1="567.67" x2="1031.94" y2="905.93" gradientUnits="userSpaceOnUse">
            <stop offset="0.01" stop-color="#005a66" />
            <stop offset="0.13" stop-color="#005b69" stop-opacity="0.73" />
            <stop offset="0.3" stop-color="#005c6c" stop-opacity="0.41" />
            <stop offset="0.47" stop-color="#005c6e" stop-opacity="0.18" />
            <stop offset="0.62" stop-color="#005d70" stop-opacity="0.05" />
            <stop offset="0.76" stop-color="#005d70" stop-opacity="0" />
        </linearGradient>
        <linearGradient id="linear-gradient-2" x1="574.81" y1="705.35" x2="856.74" y2="968.25" xlink:href="#linear-gradient" />
        <linearGradient id="linear-gradient-3" x1="547.21" y1="689.11" x2="547.21" y2="763.78" xlink:href="#linear-gradient" />
        <linearGradient id="linear-gradient-4" x1="401.78" y1="665.67" x2="401.78" y2="886.86" xlink:href="#linear-gradient" />
        <linearGradient id="linear-gradient-5" x1="454.65" y1="658.52" x2="195.89" y2="732.72" xlink:href="#linear-gradient" />
        <linearGradient id="linear-gradient-6" x1="435.59" y1="573.03" x2="337.39" y2="573.03" xlink:href="#linear-gradient" />
        <linearGradient id="linear-gradient-7" x1="471.49" y1="485.54" x2="285.98" y2="402.94" xlink:href="#linear-gradient" />
        <linearGradient id="linear-gradient-8" x1="487.17" y1="474.61" x2="503.01" y2="361.92" xlink:href="#linear-gradient" />
        <linearGradient id="linear-gradient-9" x1="504.51" y1="431.68" x2="655.6" y2="231.17" xlink:href="#linear-gradient" />
        <linearGradient id="linear-gradient-10" x1="603.34" y1="485.31" x2="712.74" y2="414.26" xlink:href="#linear-gradient" />
        <linearGradient id="linear-gradient-11" x1="649.14" y1="501.14" x2="977.84" y2="501.14" xlink:href="#linear-gradient" />
        <linearGradient id="linear-gradient-12" x1="660.41" y1="652.17" x2="982.68" y2="612.6" xlink:href="#linear-gradient" />
    </defs>
    <title>colored_transparent background</title>
    <path class="cls-1" d="M544.31,469.43A110.56,110.56,0,1,0,654.89,580,110.57,110.57,0,0,0,544.31,469.43Zm0,162.68A52.13,52.13,0,1,1,596.46,580,52.13,52.13,0,0,1,544.31,632.11Z" />
    <path class="cls-2" d="M1095.38,563.1,982.8,613.58,654.85,580.8a112.21,112.21,0,0,1-1.3,15.55l332.59,87.89,90.1,65.17c26.75,19.31,51.37,8.27,54.73-24.55l13-126.61C1147.37,565.42,1125.49,549.62,1095.38,563.1Zm9.31,60.35-6.76,65.73c-1.75,17-14.54,22.76-28.4,12.73L1016,663.18c-13.89-10-12.43-23.94,3.18-30.93l60.3-27C1095.06,598.23,1106.42,606.43,1104.69,623.45Z" />
    <path class="cls-2" d="M1068.06,631.57l-28.39,12.73c-7.34,3.31-8,9.87-1.47,14.57l25.18,18.23c6.55,4.73,12.56,2,13.37-6l3.18-30.94C1080.75,632.13,1075.41,628.3,1068.06,631.57Z" />
    <path class="cls-2" d="M177.21,366.82l43.29,4.48c11.23,1.16,16.64-6.31,12-16.61L214.77,315c-4.61-10.3-13.78-11.24-20.4-2.13l-25.54,35.28C162.23,357.22,166,365.66,177.21,366.82Z" />
    <path class="cls-2" d="M107.74,434.76,264.58,451l182,77.3a111.14,111.14,0,0,1,15.84-22.42L321.81,361.28,260.41,224c-18.71-41.88-56-45.69-82.94-8.58L73.73,358.72C46.85,395.82,62.15,430.08,107.74,434.76Zm25.94-83.2,53.84-74.43c14-19.24,33.32-17.27,43.06,4.48L268,365.42c9.72,21.7-1.68,37.49-25.34,35.06L151.32,391C127.65,388.56,119.72,370.8,133.68,351.56Z" />
    <path class="cls-2" d="M156,742l-36.25-4.63c-9.38-1.2-14.08,4.94-10.43,13.7l14.09,33.7c3.67,8.73,11.35,9.72,17.09,2.17l22.13-29.05C168.4,750.4,165.41,743.26,156,742Z" />
    <path class="cls-2" d="M440,616.4l-229,74L75.72,673.1c-36.89-4.78-55.36,19.46-41,53.79L90.09,859.35c14.41,34.31,44.6,38.17,67.13,8.56L243.5,754.66,447.38,633.15A111.9,111.9,0,0,1,440,616.4ZM191.58,754.88l-45.17,59.24c-11.69,15.34-27.36,13.36-34.81-4.41L82.86,740.92C75.39,723.1,85,710.57,104.12,713L178,722.45C197.18,724.94,203.29,739.5,191.58,754.88Z" />
    <path class="cls-3" d="M489.6,283.85a22.73,22.73,0,1,0-22.72,22.72A22.73,22.73,0,0,0,489.6,283.85Z" />
    <path class="cls-3" d="M504.31,477a109.22,109.22,0,0,1,24.47-6.36L516.11,363.76a93.93,93.93,0,1,0-56.34,13.71ZM408,283.83a58.86,58.86,0,1,1,58.86,58.88A58.91,58.91,0,0,1,408,283.83Z" />
    <path class="cls-3" d="M1139.2,875.77a22.72,22.72,0,1,0,22.71,22.71A22.71,22.71,0,0,0,1139.2,875.77Z" />
    <path class="cls-3" d="M1139.2,800.09a98.17,98.17,0,0,0-74.86,34.69L650.42,610.94A112,112,0,0,1,646,623.5L1040.87,897c0,.51-.07,1-.07,1.49a98.39,98.39,0,1,0,98.4-98.39Zm0,152.83a54.45,54.45,0,1,1,54.45-54.44A54.51,54.51,0,0,1,1139.2,952.92Z" />
    <path class="cls-3" d="M575.72,763.78l-14.34-74.67a110.22,110.22,0,0,1-17.07,1.44,106.74,106.74,0,0,1-12.83-.82l-12.79,72.94a93.29,93.29,0,1,0,57,1.11ZM545.56,901.11a49.25,49.25,0,1,1,49.27-49.26A49.29,49.29,0,0,1,545.56,901.11Z" />
    <path class="cls-3" d="M545.56,829.17a22.71,22.71,0,1,0,22.74,22.68A22.69,22.69,0,0,0,545.56,829.17Z" />
    <path class="cls-4" d="M576.54,207.42,555.35,470a109.17,109.17,0,0,1,15.19,2.7l65.94-255.95,36.7-12c13.19-4.32,26.3-18.95,29.17-32.55l10.57-50.46c2.86-13.6-3.25-32.29-13.61-41.55l-38.39-34.4c-10.35-9.26-29.61-13.29-42.79-9l-49,16.09C556,57.14,542.82,71.8,540,85.4l-10.58,50.44c-2.86,13.6,3.26,32.31,13.6,41.54Zm-13.8-82.53,3.39-16c2.84-13.6,16-28.26,29.17-32.58l15.6-5.13c13.21-4.32,32.45-.29,42.81,9l12.22,11c10.36,9.26,16.48,27.94,13.64,41.54l-3.4,16.06c-2.82,13.6-16,28.26-29.15,32.6l-15.61,5.13c-13.2,4.32-32.46.29-42.84-9l-12.18-11C566,157.18,559.89,138.52,562.74,124.89Z" />
    <path class="cls-4" d="M1059,422.32a14,14,0,0,0-12.43-2.12l-13.95,5.16a13.85,13.85,0,0,0-8.05,9.69l-2.52,14.64a14,14,0,0,0,4.36,11.83l11.44,9.5a13.92,13.92,0,0,0,12.42,2.12l14-5.13a14,14,0,0,0,8-9.69l2.52-14.66a14,14,0,0,0-4.36-11.84Z" />
    <path class="cls-4" d="M609.31,153.51a14.51,14.51,0,0,0,12.75,2.68l14.59-4.8a14.41,14.41,0,0,0,8.69-9.69l3.16-15a14.46,14.46,0,0,0-4.06-12.37L633,104a14.42,14.42,0,0,0-12.75-2.68l-14.61,4.77a14.6,14.6,0,0,0-8.68,9.72l-3.14,15a14.42,14.42,0,0,0,4,12.39Z" />
    <path class="cls-4" d="M1005.05,961.44c-14.6-18.11-45.32-29.92-68.27-26.31l-57.58,9L620.36,660.1a112.46,112.46,0,0,1-14,11.38L793.62,997.12l-30,77.85c-8.36,21.68-3.25,54.2,11.36,72.26l54.19,67.1c14.6,18.08,45.33,29.92,68.29,26.31l85.2-13.39c22.95-3.61,48.55-24.3,56.91-46l31-80.49c8.37-21.7,3.27-54.2-11.34-72.28Zm7.53,148.49-9.9,25.63c-8.34,21.7-33.95,42.39-56.91,46l-27.17,4.27c-23,3.61-53.67-8.22-68.28-26.31l-17.27-21.36c-14.61-18.08-19.72-50.61-11.38-72.31l9.89-25.65c8.36-21.7,34-42.36,56.92-46L915.66,990c23-3.62,53.68,8.22,68.29,26.3l17.25,21.37C1015.81,1055.71,1020.91,1088.23,1012.58,1109.93Z" />
    <path class="cls-4" d="M1124.78,395.2l-39.65-33c-10.69-8.88-30.07-12.2-43.09-7.41L993.68,372.7c-13,4.82-25.63,19.94-28,33.61l-6.49,37.85C905.89,461.11,733.31,517.47,649.14,545a112.34,112.34,0,0,1,3.57,13.13L977.84,502.9l33.94,28.21c10.67,8.87,30,12.2,43.09,7.4l48.37-17.87c13-4.82,25.61-19.94,27.93-33.61l8.74-50.82C1142.25,422.54,1135.42,404.07,1124.78,395.2Zm-26.11,52.94-2.4,13.89c-2,11.77-12.79,24.74-24,28.88l-13.22,4.85c-11.17,4.15-27.82,1.28-37-6.32l-10.84-9c-9.18-7.62-15-23.46-13-35.23l2.41-13.89c2-11.76,12.78-24.73,24-28.88l13.21-4.85c11.19-4.14,27.83-1.3,37,6.34l10.83,9C1094.86,420.56,1100.7,436.38,1098.67,448.14Z" />
    <path class="cls-4" d="M941.62,1052.67c-4.06-5-12.62-8.34-19-7.33l-23.74,3.71c-6.38,1-13.52,6.78-15.85,12.81l-8.63,22.42c-2.33,6-.9,15.09,3.16,20.13l15.08,18.69c4.09,5,12.65,8.34,19,7.33l23.72-3.74c6.4-1,13.54-6.75,15.85-12.8l8.63-22.4c2.33-6,.92-15.12-3.15-20.13Z" />
    <path class="cls-1" d="M257.63,582a15.72,15.72,0,0,0,22,3.16l11-8.22a15.76,15.76,0,0,0,3.16-22.06l-8.25-11a15.74,15.74,0,0,0-22-3.14l-11,8.25a15.71,15.71,0,0,0-3.17,22Z" />
    <path class="cls-1" d="M226.27,624.82a51.05,51.05,0,0,0,71.53,10.23l35.66-26.74a46.71,46.71,0,0,0,3.93-3.61l96.88-14.56c-.32-3.35-.52-6.74-.52-10.16a109.72,109.72,0,0,1,1.84-19.56l-89.11-19.07a48.69,48.69,0,0,0-2.8-4.6l-26.75-35.66a51.06,51.06,0,0,0-71.52-10.22L209.73,517.6a51.11,51.11,0,0,0-10.23,71.54Zm8-89.18,21.49-16.11a30.76,30.76,0,0,1,43.11,6.18L315,547.16a30.82,30.82,0,0,1-6.17,43.11l-21.51,16.11a30.75,30.75,0,0,1-43.07-6.15l-16.12-21.48A30.79,30.79,0,0,1,234.32,535.64Z" />
    <path class="cls-1" d="M380.63,910.51a69.57,69.57,0,0,0-5.92-23.65l115.5-210.51a111,111,0,0,1-15.73-10.68L313.35,845.1a74.34,74.34,0,0,0-7.6.1l-61.17,4.17a70.28,70.28,0,0,0-65.32,74.91l4.19,61.15a70.24,70.24,0,0,0,74.89,65.31l61.16-4.17a70.3,70.3,0,0,0,65.32-74.91Zm-76,96.86-36.84,2.5a42.3,42.3,0,0,1-45.11-39.34l-2.52-36.85a42.32,42.32,0,0,1,39.35-45.11l36.84-2.5a42.33,42.33,0,0,1,45.11,39.34L344,962.26A42.33,42.33,0,0,1,304.6,1007.37Z" />
    <path class="cls-1" d="M820.88,205.47h-76.3a87.46,87.46,0,0,0-87.46,87.47v76.29a87.42,87.42,0,0,0,2.29,19.62l-54.67,98.62a110.89,110.89,0,0,1,27.59,25.81l107.84-56.8c1.48.08,2.93.22,4.41.22h76.3a87.45,87.45,0,0,0,87.46-87.47V292.94A87.46,87.46,0,0,0,820.88,205.47Zm49.29,152.16a60.9,60.9,0,0,1-60.89,60.9h-53.1a60.88,60.88,0,0,1-60.88-60.9V304.54a60.86,60.86,0,0,1,60.88-60.88h53.1a60.89,60.89,0,0,1,60.89,60.88Z" />
    <rect class="cls-1" x="746.62" y="294.97" width="72.22" height="72.24" rx="25.15" />
    <path class="cls-1" d="M289.34,916.33l-18.83,1.27a21.64,21.64,0,0,0-20.12,23.08l1.29,18.83a21.64,21.64,0,0,0,23.06,20.1l18.83-1.27a21.66,21.66,0,0,0,20.12-23.08l-1.29-18.83A21.64,21.64,0,0,0,289.34,916.33Z" />
    <path class="cls-5" d="M650.42,610.94A112,112,0,0,1,646,623.5L1040.87,897a97.87,97.87,0,0,1,23.47-62.21Z" />
    <path class="cls-6" d="M620.36,660.1a112.46,112.46,0,0,1-14,11.38L793.62,997.12l1-2.65c8.35-21.65,34-42.37,56.92-46l27.63-4.34Z" />
    <path class="cls-7" d="M544.31,690.55a106.74,106.74,0,0,1-12.83-.82l-12.79,72.94a92.3,92.3,0,0,1,57,1.11l-14.35-74.67A110.22,110.22,0,0,1,544.31,690.55Z" />
    <path class="cls-8" d="M474.48,665.67,313.35,845.1a70.21,70.21,0,0,1,61.36,41.76l115.5-210.51A111,111,0,0,1,474.48,665.67Z" />
    <path class="cls-9" d="M440,616.4l-254,82c9.4,11.07,21,61.72,22.83,76.86L447.38,633.15A111.46,111.46,0,0,1,440,616.4Z" />
    <path class="cls-10" d="M434.27,590.14c-.32-3.35-.52-6.74-.52-10.16a109.72,109.72,0,0,1,1.84-19.56l-89.12-19.07a50.77,50.77,0,0,1-9.08,63.35Z" />
    <path class="cls-11" d="M462.43,505.9,321.81,361.28l10.81,24.18c18.71,41.83-3.26,72.23-48.87,67.55l-19.17-2,182,77.3A111.14,111.14,0,0,1,462.43,505.9Z" />
    <path class="cls-12" d="M528.78,470.65,516.11,363.76a93.27,93.27,0,0,1-49.23,14.08c-2.4,0-4.75-.18-7.11-.37L504.31,477A109.22,109.22,0,0,1,528.78,470.65Z" />
    <path class="cls-13" d="M570.54,472.69l65.92-255.95-12.28,4c-13.18,4.32-32.45.27-42.77-9l-4.86-4.35L555.35,470A109.43,109.43,0,0,1,570.54,472.69Z" />
    <path class="cls-14" d="M632.33,513.28l107.84-56.8a87.36,87.36,0,0,1-80.76-67.63l-54.67,98.62A110.89,110.89,0,0,1,632.33,513.28Z" />
    <path class="cls-15" d="M959.24,444.16c-53.35,17-225.93,73.31-310.1,100.83a112.34,112.34,0,0,1,3.57,13.13L977.84,502.9l-5.71-4.75c-10.66-8.88-17.49-27.34-15.12-41Z" />
    <path class="cls-16" d="M979.22,615.18l3.58-1.6L654.85,580.8a112.21,112.21,0,0,1-1.3,15.55l332.59,87.89-13-9.43C946.37,655.49,949.12,628.66,979.22,615.18Z" />
</svg>