<svg xmlns="http://www.w3.org/2000/svg" viewBox="0 0 250 250"><defs><style>.cls-1,.cls-2{fill:#04bfbf;}.cls-1{fill-rule:evenodd;}</style></defs><g id="Logo"><path class="cls-1" d="M207.37,107.93a8.89,8.89,0,0,0-3.27.62c-28.13-12.85-56-8.62-79.1,10.89C101.94,99.93,74,95.7,45.9,108.55a8.85,8.85,0,1,0,5.45,9.73c23.1-12,46-8.06,66.25,9.48A90.51,90.51,0,0,0,111,138.22c-14.37,31.38-6.42,57.21,14,79.16,22-25.35,28.56-53.57,9.07-85.84-.19-.31-6.93,8.66-6.7,9.09,11.64,21.69,8.79,41.82-2.37,60.17-17.14-19.94-12.3-53.73,7.4-73,20.21-17.54,43.15-21.49,66.25-9.48a8.85,8.85,0,0,0,17.56-1.77A8.94,8.94,0,0,0,207.37,107.93Z"/><path class="cls-1" d="M199.3,85.62a8.85,8.85,0,0,0-15.77-5.51A90.27,90.27,0,0,0,125,92.65l0,0v0A90.27,90.27,0,0,0,66.47,80.11,8.85,8.85,0,1,0,54.19,92.67l-.17.26.38-.11a8.85,8.85,0,0,0,12.71-2.61A77.51,77.51,0,0,1,125,105a77.51,77.51,0,0,1,57.89-14.76,8.85,8.85,0,0,0,12.71,2.61l.38.11-.17-.26A8.85,8.85,0,0,0,199.3,85.62Z"/><path class="cls-1" d="M160.6,52.34a8.85,8.85,0,0,0-7.75,4.58A92.46,92.46,0,0,0,125,68.1v.06l0-.06A92.46,92.46,0,0,0,97.15,56.92a8.86,8.86,0,1,0-1,10A78.72,78.72,0,0,1,125,80.42h0a78.69,78.69,0,0,1,28.84-13.51,8.86,8.86,0,1,0,6.76-14.57Z"/><circle class="cls-2" cx="125" cy="44.12" r="11.5"/></g></svg>