<?xml version="1.0" encoding="utf-8"?>
<!-- Generator: Adobe Illustrator 27.6.1, SVG Export Plug-In . SVG Version: 6.00 Build 0)  -->
<svg version="1.1" id="Layer_1" xmlns="http://www.w3.org/2000/svg" xmlns:xlink="http://www.w3.org/1999/xlink" x="0px" y="0px"
	 viewBox="0 0 250 250" style="enable-background:new 0 0 250 250;" xml:space="preserve">
<style type="text/css">
	.st0{fill:#D0B02B;}
</style>
<g>
	<path class="st0" d="M136.6,188c15.3-0.1,37.6-12,50.3-31.9c13.2-20.6,12.2-49.6,16.3-61.1c-10.6-0.5-24.2,1.2-34.4,3.8v12.5
		c4.7-1.8,12.1-3.1,16.8-3.1C184.6,145.3,165.2,173.7,136.6,188z"/>
	<path class="st0" d="M103.1,192.4c-24-1.9-53.5-21.9-65.2-37c3-1.6,8.2-3.6,12.4-4.7c-2.2-3.4-4.4-9.1-5.5-13.2
		c-10.5,3.6-22.6,10.5-29.4,16.6c9.5,4.7,21.2,18.9,35.7,28C71.7,195.1,88.8,195,103.1,192.4z"/>
	<path class="st0" d="M129.1,143.5c0.2-12.1-21-31-21-47.3c0-8.4,7.4-17.9,16.9-23.3c10.7,7.5,24.7,24.3,32.1,39.2
		c4.4-19.9-6.9-39.3-32.1-55.9c-15.4,7.5-33.5,24.2-33.5,40.4c0,14.1,16.7,38.6,33.5,58.3C126.9,152.6,129,148.4,129.1,143.5z"/>
	<path class="st0" d="M113.4,188c-28.6-14.4-48-42.7-49-79.7c4.7,0,12.2,1.3,16.8,3.1V98.8c-10.2-2.7-23.8-4.4-34.4-3.8
		c4.1,11.5,3.2,40.6,16.3,61.1C75.9,176,98.1,188,113.4,188z"/>
	<path class="st0" d="M234.5,154.1c-6.8-6-18.9-12.9-29.4-16.6c-1,4.1-3.3,9.8-5.5,13.2c4.3,1.1,9.4,3.1,12.4,4.7
		c-11.7,15.1-41.2,35-65.2,37c14.2,2.7,31.3,2.7,51.9-10.3C213.3,173,225,158.7,234.5,154.1z"/>
	<path class="st0" d="M125,187.2c17.6-9.7,33.8-29.5,33.8-45.6c0-15.5-21.1-41.1-33.8-54.4c-2,1.9-3.8,5.7-3.8,9.6
		c0,11.4,21,33.3,21,45.2c0,8.5-6.3,19.8-17.2,27.2c-15.2-10.7-30.9-31.1-38.3-50C78.2,140.2,94.3,167.8,125,187.2z"/>
</g>
</svg>
