<svg width="36" height="36" viewBox="0 0 36 36" fill="none" xmlns="http://www.w3.org/2000/svg">
  <g clip-path="url(#clip0_5608_21563)">
    <g clip-path="url(#clip1_5608_21563)">
      <path d="M36 0H0V36H36V0Z" fill="#0052FF"/>
      <path fill-rule="evenodd" clip-rule="evenodd" d="M5.34375 18C5.34375 24.9899 11.0101 30.6562 18 30.6562C24.9899 30.6562 30.6562 24.9899 30.6562 18C30.6562 11.0101 24.9899 5.34375 18 5.34375C11.0101 5.34375 5.34375 11.0101 5.34375 18ZM14.7656 13.9219C14.2996 13.9219 13.9219 14.2996 13.9219 14.7656V21.2344C13.9219 21.7004 14.2996 22.0781 14.7656 22.0781H21.2344C21.7004 22.0781 22.0781 21.7004 22.0781 21.2344V14.7656C22.0781 14.2996 21.7004 13.9219 21.2344 13.9219H14.7656Z" fill="white"/>
    </g>
  </g>
  <defs>
    <clipPath id="clip0_5608_21563">
      <rect width="36" height="36" fill="white"/>
    </clipPath>
    <clipPath id="clip1_5608_21563">
      <rect width="36" height="36" fill="white"/>
    </clipPath>
  </defs>
</svg>
