<?xml version="1.0" encoding="UTF-8" standalone="no"?>
<svg
   width="40.908798"
   height="40"
   viewBox="0 0 40.908798 40"
   fill="none"
   version="1.1"
   id="svg16"
   sodipodi:docname="emoney.svg"
   inkscape:version="1.3.2 (091e20e, 2023-11-25)"
   xmlns:inkscape="http://www.inkscape.org/namespaces/inkscape"
   xmlns:sodipodi="http://sodipodi.sourceforge.net/DTD/sodipodi-0.dtd"
   xmlns="http://www.w3.org/2000/svg"
   xmlns:svg="http://www.w3.org/2000/svg">
  <sodipodi:namedview
     id="namedview16"
     pagecolor="#ffffff"
     bordercolor="#000000"
     borderopacity="0.25"
     inkscape:showpageshadow="2"
     inkscape:pageopacity="0.0"
     inkscape:pagecheckerboard="0"
     inkscape:deskcolor="#d1d1d1"
     inkscape:zoom="4.25"
     inkscape:cx="30"
     inkscape:cy="19.058824"
     inkscape:window-width="1312"
     inkscape:window-height="449"
     inkscape:window-x="0"
     inkscape:window-y="25"
     inkscape:window-maximized="0"
     inkscape:current-layer="svg16" />
  <path
     d="M 40.9073,19.8684 C 40.9073,30.9868 31.6049,40 20.4529,40 9.30079,40 0,30.9853 0,19.8684 0,8.75153 9.30232,0 20.4544,0 31.6065,0 40.9088,8.75 40.9088,19.8684 Z"
     fill="url(#paint0_linear_1857_3)"
     id="path1"
     style="fill:url(#paint0_linear_1857_3)" />
  <path
     d="m 27.9682,26.8232 h -1.1638 c -0.2612,0 -0.474,0.2114 -0.474,0.4725 v 0.1495 c 0,0.2611 -0.2129,0.4724 -0.474,0.4724 H 14.8371 c -0.4211,0 -0.6324,-0.5087 -0.3351,-0.806 l 4.6462,-4.6327 h 7.4252 c 0.0468,0 0.0861,-0.1041 0.0861,-0.2324 v -1.3857 c 0,-0.1283 -0.0378,-0.2325 -0.0861,-0.2325 H 21.0049 L 21.9,19.7362 c 0.1857,-0.1842 0.1857,-0.483 0,-0.6687 l -0.9087,-0.9057 h 5.5806 c 0.0468,0 0.086,-0.1041 0.086,-0.2325 v -1.3857 c 0,-0.1283 -0.0377,-0.2324 -0.086,-0.2324 h -7.4372 l -0.6099,-0.6084 -0.7562,-0.7547 -2.0424,-2.0363 c -0.2988,-0.2974 -0.0875,-0.8061 0.3351,-0.8061 h 9.7936 c 0.2611,0 0.474,0.2114 0.474,0.4725 v 0.1494 c 0,0.2612 0.2128,0.474 0.474,0.474 h 1.1638 c 0.2611,0 0.474,-0.2113 0.474,-0.4724 V 10.4725 C 28.4407,10.2113 28.2278,10 27.9667,10 H 12.3993 c -0.2626,0 -0.474,0.2113 -0.474,0.4725 v 1.6302 l 0.0031,0.003 2.8514,2.8424 0.7562,0.7547 0.6099,0.6084 h -2.3533 c -0.0468,0 -0.0861,0.1041 -0.0861,0.2324 v 1.3857 c 0,0.1284 0.0378,0.2325 0.0861,0.2325 h 4.2084 l 0.9087,0.9057 c 0.1857,0.1842 0.1857,0.483 0,0.6687 l -0.8951,0.8921 h -4.222 c -0.0468,0 -0.0861,0.1042 -0.0861,0.2325 v 1.3857 c 0,0.1283 0.0378,0.2324 0.0861,0.2324 h 2.3669 l -4.0968,4.0847 c -0.0891,0.0891 -0.1389,0.2083 -0.1389,0.3336 v 2.6537 c 0,0.2611 0.2129,0.4725 0.474,0.4725 h 15.5689 c 0.2611,0 0.474,-0.2114 0.474,-0.4725 v -2.2567 c 0,-0.2611 -0.2129,-0.4725 -0.474,-0.4725 z"
     fill="#ffffff"
     id="path2" />
  <defs
     id="defs16">
    <linearGradient
       id="paint0_linear_1857_3"
       x1="38.437199"
       y1="2.6666701"
       x2="-1.87738"
       y2="9.1595297"
       gradientUnits="userSpaceOnUse">
      <stop
         offset="0.48255"
         stop-color="#1C6BF5"
         id="stop15" />
      <stop
         offset="1"
         stop-color="#1E45B4"
         id="stop16" />
    </linearGradient>
  </defs>
</svg>
