<svg width="38" height="36" viewBox="0 0 38 36" fill="none" xmlns="http://www.w3.org/2000/svg">
  <path d="M24.9126 0H13.0874C6.4117 0 1 5.4117 1 12.0874V23.9126C1 30.5883 6.4117 36 13.0874 36H24.9126C31.5883 36 37 30.5883 37 23.9126V12.0874C37 5.4117 31.5883 0 24.9126 0Z" fill="white" stroke="#DFE5EC" strokeWidth="0.377159"/>
  <path d="M2.37109 18.2598C2.37109 9.02132 9.8603 1.53223 19.0986 1.53223C28.3371 1.53223 35.8264 9.02132 35.8264 18.2598C35.8264 27.4983 28.3371 34.9876 19.0986 34.9876C9.8603 34.9876 2.37109 27.4983 2.37109 18.2598Z" fill="white"/>
  <path d="M19.1104 8.2627C22.4859 11.082 26.3571 10.9081 27.4629 10.9081C27.2212 26.9411 25.3776 23.7617 19.1104 28.2574C12.8432 23.7617 11.0114 26.9411 10.7695 10.9081C11.864 10.9081 15.7349 11.082 19.1104 8.2627Z" stroke="#3375BB" stroke-width="2.28673" stroke-miterlimit="10" stroke-linecap="round" stroke-linejoin="round"/>
</svg>
