<svg width="46" height="28" viewBox="0 0 46 28" fill="none" xmlns="http://www.w3.org/2000/svg">
  <path d="M9.25345 5.4116C16.6247 -1.80387 28.5757 -1.80387 35.9469 5.4116L36.8341 6.27999C37.2026 6.64076 37.2026 7.22569 36.8341 7.58646L33.7994 10.5571C33.6151 10.7374 33.3163 10.7374 33.132 10.5571L31.9112 9.36205C26.7689 4.32836 18.4315 4.32836 13.2892 9.36205L11.9818 10.6418C11.7975 10.8222 11.4987 10.8222 11.3145 10.6418L8.27974 7.67121C7.91118 7.31044 7.91118 6.72551 8.27974 6.36474L9.25345 5.4116ZM42.223 11.5551L44.9239 14.199C45.2925 14.5597 45.2925 15.1447 44.9239 15.5054L32.7454 27.4269C32.3768 27.7876 31.7793 27.7876 31.4107 27.4269C31.4107 27.4269 31.4107 27.4269 31.4107 27.4269L22.7671 18.9659C22.675 18.8757 22.5256 18.8757 22.4334 18.9659C22.4334 18.9659 22.4334 18.9659 22.4334 18.9659L13.79 27.4269C13.4214 27.7876 12.8239 27.7876 12.4553 27.4269C12.4553 27.4269 12.4553 27.4269 12.4553 27.4269L0.27642 15.5053C-0.09214 15.1445 -0.09214 14.5596 0.27642 14.1988L2.97733 11.555C3.34589 11.1942 3.94344 11.1942 4.312 11.555L12.9557 20.0161C13.0479 20.1063 13.1973 20.1063 13.2894 20.0161C13.2894 20.0161 13.2894 20.0161 13.2894 20.0161L21.9327 11.555C22.3013 11.1942 22.8988 11.1942 23.2674 11.5549C23.2674 11.5549 23.2674 11.5549 23.2674 11.5549L31.9111 20.0161C32.0032 20.1063 32.1526 20.1063 32.2448 20.0161L40.8883 11.5551C41.2569 11.1943 41.8545 11.1943 42.223 11.5551Z" fill="#3B99FC"/>
</svg>
