<svg width="16" height="16" viewBox="0 0 16 16" fill="none" xmlns="http://www.w3.org/2000/svg">
<g id="Group">
<path id="Vector" d="M8 16C12.4183 16 16 12.4183 16 8C16 3.58172 12.4183 0 8 0C3.58172 0 0 3.58172 0 8C0 12.4183 3.58172 16 8 16Z" fill="black"/>
<g id="Group_2">
<path id="Vector_2" d="M8.57199 3.21193C8.5442 3.19188 8.52472 3.16233 8.51726 3.12887C8.50979 3.09542 8.51486 3.06039 8.53149 3.03043C8.55477 3.0155 8.58184 3.00757 8.60949 3.00757C8.63715 3.00757 8.66422 3.0155 8.68749 3.03043C9.03986 3.17671 9.35882 3.39309 9.62499 3.66643C9.77649 3.80693 9.90349 3.97093 9.99999 4.15143C10.102 4.33543 10.1855 4.52793 10.25 4.72743C10.3115 4.93393 10.3435 5.14843 10.344 5.36343C10.3125 5.57593 10.2815 6.60593 9.68749 7.09093C9.61189 7.13639 9.52213 7.15225 9.43553 7.13544C9.34892 7.11864 9.27161 7.07036 9.21849 6.99993C9.17604 6.95015 9.15023 6.88834 9.14467 6.82315C9.13911 6.75797 9.15409 6.69268 9.18749 6.63643C9.44003 6.24547 9.57953 5.79229 9.59056 5.32699C9.60159 4.8617 9.48372 4.40241 9.24999 3.99993C9.04999 3.71693 8.82299 3.45343 8.57199 3.21193ZM7.64999 12.5029C7.71249 12.5634 7.71249 12.6239 7.68149 12.6544C7.65049 12.6849 7.58749 12.7149 7.55649 12.6844C7.20412 12.5381 6.88517 12.3218 6.61899 12.0484C6.46795 11.9087 6.34122 11.7448 6.24399 11.5634C6.14219 11.3802 6.05846 11.1874 5.99399 10.9879C5.93221 10.7814 5.90055 10.567 5.89999 10.3514C5.93149 10.1394 5.96249 9.10893 6.55649 8.62393C6.63205 8.57861 6.7217 8.56284 6.80818 8.57964C6.89467 8.59644 6.97189 8.64462 7.02499 8.71493C7.07049 8.76462 7.09573 8.82955 7.09573 8.89693C7.09573 8.9643 7.07049 9.02924 7.02499 9.07893C6.77255 9.46983 6.63311 9.92292 6.62208 10.3881C6.61105 10.8533 6.72886 11.3125 6.96249 11.7149C7.16499 11.9984 7.39549 12.2624 7.64999 12.5029Z" fill="white" fill-opacity="0.5"/>
<path id="Vector_3" d="M10.347 10.0027C10.3017 9.42092 10.0717 8.8689 9.6905 8.42715C9.30458 8.03928 8.86205 7.71223 8.378 7.45715C7.95577 7.22377 7.55796 6.94873 7.1905 6.63615C6.88829 6.35211 6.68104 5.98178 6.597 5.57565C6.52237 5.15633 6.57568 4.72425 6.75 4.33565C6.95884 3.90332 7.25829 3.52099 7.628 3.21465C7.64879 3.19611 7.66307 3.17137 7.66874 3.1441C7.67441 3.11682 7.67117 3.08844 7.6595 3.06315C7.65058 3.0472 7.63816 3.03349 7.62318 3.02302C7.60821 3.01256 7.59105 3.00563 7.57301 3.00274C7.55497 2.99985 7.53651 3.00109 7.51902 3.00636C7.50152 3.01162 7.48545 3.02078 7.472 3.03315C6.974 3.25039 6.55031 3.60839 6.253 4.06315C5.92049 4.5409 5.76474 5.11954 5.8125 5.69965C5.83744 5.99276 5.91147 6.27959 6.0315 6.54815C6.16138 6.81398 6.32987 7.05913 6.5315 7.27565C6.92884 7.65531 7.38191 7.97197 7.875 8.21465C8.299 8.43465 8.6975 8.69915 9.0625 9.00265C9.38358 9.28439 9.59411 9.67106 9.6565 10.0936C9.7445 10.5331 9.6895 10.9887 9.5 11.3967C9.2873 11.8262 8.97681 12.1999 8.5935 12.4876C8.58082 12.4949 8.56983 12.5048 8.56125 12.5167C8.55267 12.5285 8.5467 12.542 8.54372 12.5563C8.54074 12.5706 8.54083 12.5854 8.54398 12.5997C8.54713 12.614 8.55327 12.6274 8.562 12.6391C8.5795 12.6711 8.612 12.6941 8.6485 12.6996C8.685 12.7051 8.723 12.6946 8.75 12.6697C9.21458 12.4014 9.61884 12.0402 9.9375 11.6087C10.2475 11.1297 10.3905 10.5667 10.347 10.0027Z" fill="white"/>
</g>
</g>
</svg>
