<svg width="450" height="450" viewBox="0 0 450 450" fill="none" xmlns="http://www.w3.org/2000/svg">
<path d="M84.0001 269C107.196 269 126 250.196 126 227C126 203.804 107.196 185 84.0001 185C60.8041 185 42 203.804 42 227C42 250.196 60.8041 269 84.0001 269Z" fill="#08E8DE"/>
<path d="M225.768 92.1584C248.432 92.1942 270.716 97.9372 290.538 108.85C310.36 119.763 327.071 135.49 339.11 154.56C341.251 157.926 344.581 160.376 348.446 161.43C352.312 162.484 356.435 162.066 360.007 160.258C362.024 159.261 363.809 157.858 365.25 156.138C366.69 154.418 367.754 152.419 368.374 150.268C368.994 148.117 369.156 145.861 368.849 143.645C368.543 141.429 367.775 139.3 366.595 137.394C351.009 112.736 329.14 92.6054 303.203 79.0389C277.265 65.4723 248.179 58.9518 218.888 60.137C189.597 61.3223 161.142 70.1714 136.401 85.7887C111.661 101.406 91.5142 123.237 78 149.072H79.9126C90.8147 149.075 101.597 151.327 111.577 155.685C123.56 136.29 140.348 120.267 160.338 109.146C180.329 98.025 202.855 92.1763 225.768 92.1584Z" fill="white"/>
<path d="M358.22 292.708C354.711 290.956 350.682 290.535 346.884 291.523C343.086 292.51 339.778 294.839 337.578 298.075C325.316 316.377 308.697 331.376 289.203 341.735C269.708 352.095 247.943 357.495 225.845 357.453C203.747 357.411 182.002 351.929 162.547 341.495C143.093 331.062 126.532 316 114.34 297.651C103.924 302.616 92.5476 305.267 81 305.42C94.9555 330.142 115.047 350.888 139.354 365.675C163.66 380.461 191.371 388.795 219.836 389.879C248.301 390.963 276.569 384.761 301.94 371.865C327.31 358.97 348.935 339.813 364.746 316.224C366.036 314.31 366.9 312.143 367.28 309.869C367.66 307.595 367.547 305.267 366.949 303.04C366.351 300.813 365.282 298.739 363.813 296.957C362.345 295.175 360.51 293.726 358.433 292.708H358.22Z" fill="white"/>
</svg>
