<svg width="28" height="28" viewBox="0 0 28 28" fill="none" xmlns="http://www.w3.org/2000/svg">
<path fill-rule="evenodd" clip-rule="evenodd" d="M23.4213 4.5636C22.1842 3.31769 20.7132 2.32839 19.0927 1.6525C17.4722 0.976608 15.7342 0.627431 13.9784 0.625013C12.2226 0.622595 10.4836 0.966984 8.86126 1.63841C7.23891 2.30984 5.76516 3.29508 4.52459 4.53758C3.28402 5.78008 2.30107 7.25536 1.63217 8.87875C0.96327 10.5021 0.621586 12.2417 0.626736 13.9974C0.631885 15.7532 0.983766 17.4907 1.66218 19.1101C2.34059 20.7296 3.33218 22.1991 4.58001 23.4343C7.09043 25.8937 10.4703 27.2625 13.9847 27.2431C17.499 27.2236 20.8636 25.8174 23.3466 23.3304C25.8297 20.8433 27.2304 17.4765 27.2441 13.9621C27.2578 10.4477 25.8849 7.07002 23.4213 4.5636ZM13.2587 25.8489C10.2337 25.7015 7.38189 24.394 5.29601 22.1983C3.23777 19.9681 2.11218 17.0341 2.15068 13.9996C2.11083 10.9626 3.23703 8.0259 5.29734 5.79427C7.38431 3.60098 10.236 2.29595 13.26 2.15027V6.58627C11.4213 6.75512 9.71327 7.60891 8.47468 8.97827C7.24122 10.3575 6.57031 12.1494 6.59468 13.9996C6.59468 15.8516 7.22268 17.6436 8.47468 19.0129C9.71144 20.3849 11.4204 21.2396 13.26 21.4063L13.2587 25.8489ZM22.6787 22.1983C20.5827 24.4196 17.7907 25.6716 14.7387 25.8489V21.4063C16.1164 21.2746 17.43 20.7609 18.5316 19.9232C19.6332 19.0854 20.4792 17.9568 20.9741 16.6643C21.4691 15.3718 21.5935 13.9669 21.3333 12.6076C21.0731 11.2483 20.4386 9.98856 19.5013 8.97027C18.2692 7.60716 16.5687 6.75834 14.7387 6.59294V2.15027C16.9988 2.25137 19.1807 3.00821 21.018 4.32841C22.8553 5.64861 24.2686 7.47508 25.0853 9.58494C25.925 11.6986 26.1446 14.0079 25.7183 16.242C25.292 18.476 24.2376 20.5422 22.6787 22.1983ZM14 19.9249C14.7782 19.9249 15.5488 19.7717 16.2678 19.4738C16.9868 19.176 17.64 18.7395 18.1903 18.1893C18.7406 17.639 19.1771 16.9857 19.4749 16.2667C19.7727 15.5477 19.926 14.7771 19.926 13.9989C19.926 13.2207 19.7727 12.4501 19.4749 11.7312C19.1771 11.0122 18.7406 10.3589 18.1903 9.80862C17.64 9.25834 16.9868 8.82183 16.2678 8.52402C15.5488 8.22622 14.7782 8.07294 14 8.07294C12.4283 8.07294 10.921 8.69728 9.8097 9.80862C8.69835 10.92 8.07401 12.4273 8.07401 13.9989C8.07401 15.5706 8.69835 17.0779 9.8097 18.1893C10.921 19.3006 12.4283 19.9249 14 19.9249Z" fill="white"/>
<defs>
<linearGradient id="paint0_linear_835_9692" x1="1.21734" y1="19.7623" x2="26.3453" y2="7.77161" gradientUnits="userSpaceOnUse">
<stop stop-color="#2D9DFD"/>
<stop offset="1" stop-color="#36D5FD"/>
</linearGradient>
</defs>
</svg>
