<svg width="18" height="18" viewBox="0 0 18 18" fill="none" xmlns="http://www.w3.org/2000/svg">
<path d="M9.32157 1.15555C9.26098 1.15655 9.20185 1.17438 9.15081 1.20706C9.09977 1.23973 9.05882 1.28596 9.03255 1.34057L4.48218 8.49151C4.47468 8.50257 4.46786 8.51407 4.46177 8.52597C4.46155 8.52618 4.46134 8.52639 4.46113 8.5266C4.4564 8.53617 4.45214 8.54597 4.44837 8.55595C4.44053 8.57638 4.43476 8.59754 4.43114 8.61912C4.42749 8.64061 4.42599 8.66241 4.42668 8.68419C4.42668 8.68441 4.42668 8.68462 4.42668 8.68483C4.427 8.6955 4.42786 8.70615 4.42923 8.71673C4.42963 8.71886 4.43006 8.72099 4.4305 8.72311C4.43312 8.73933 4.43696 8.75533 4.44199 8.77097C4.4428 8.77395 4.44365 8.77693 4.44454 8.7799C4.44454 8.78011 4.44454 8.78032 4.44454 8.78054C4.44808 8.79073 4.45213 8.80073 4.45666 8.81052C4.45666 8.81074 4.45666 8.81095 4.45666 8.81116C4.46131 8.82076 4.46642 8.83013 4.47198 8.83923C4.47197 8.83945 4.47197 8.83966 4.47198 8.83987C4.47749 8.84909 4.48345 8.85804 4.48984 8.86667C4.49294 8.87057 4.49613 8.8744 4.49941 8.87815C4.50311 8.88294 4.50694 8.88762 4.51089 8.89219C4.51796 8.90021 4.52541 8.90787 4.53323 8.91516C4.53344 8.91537 4.53365 8.91558 4.53386 8.9158C4.54979 8.93022 4.5671 8.94305 4.58554 8.95408C4.58576 8.95429 4.58597 8.9545 4.58618 8.95472C4.58787 8.95558 4.58958 8.95643 4.59128 8.95727C4.5915 8.95748 4.59171 8.95769 4.59192 8.95791L9.12379 11.5476C9.18116 11.5929 9.25208 11.6177 9.32518 11.6179C9.39828 11.6181 9.46935 11.5938 9.52701 11.5489L14.055 8.9611C14.0574 8.95985 14.0597 8.95857 14.0621 8.95727C14.0693 8.95307 14.0763 8.9486 14.0831 8.94387C14.0853 8.94241 14.0874 8.94092 14.0895 8.9394C14.091 8.93814 14.0925 8.93686 14.094 8.93557C14.1007 8.93093 14.1073 8.92604 14.1137 8.9209C14.1142 8.92048 14.1146 8.92005 14.115 8.91962C14.1163 8.91857 14.1176 8.91751 14.1189 8.91643C14.1257 8.91013 14.1323 8.90353 14.1386 8.89666C14.1461 8.88872 14.1531 8.88041 14.1597 8.87177C14.1661 8.86335 14.172 8.85462 14.1775 8.84561C14.1778 8.8454 14.178 8.84519 14.1782 8.84498C14.1784 8.84434 14.1786 8.8437 14.1788 8.84306C14.1843 8.83458 14.1894 8.82585 14.1941 8.8169C14.1941 8.81669 14.1941 8.81648 14.1941 8.81626C14.1978 8.80874 14.2012 8.80108 14.2043 8.7933C14.2052 8.79097 14.2061 8.78863 14.2069 8.78628C14.2078 8.78374 14.2086 8.78118 14.2094 8.77862C14.2118 8.77126 14.214 8.76381 14.2158 8.75629C14.216 8.75587 14.2163 8.75544 14.2165 8.75501C14.2167 8.75438 14.2169 8.75374 14.2171 8.7531C14.2195 8.7432 14.2214 8.73319 14.2228 8.72311C14.2242 8.71486 14.2253 8.70656 14.226 8.69823C14.226 8.69738 14.226 8.69653 14.226 8.69568C14.2267 8.6857 14.2269 8.67569 14.2267 8.66569C14.2264 8.6593 14.226 8.65292 14.2254 8.64655C14.225 8.63973 14.2243 8.63292 14.2235 8.62613C14.2235 8.62592 14.2235 8.62571 14.2235 8.6255C14.2233 8.62443 14.2231 8.62337 14.2228 8.62231C14.2213 8.61308 14.2194 8.60393 14.2171 8.59487C14.2171 8.59445 14.2171 8.59402 14.2171 8.5936C14.2151 8.58543 14.2127 8.57734 14.2101 8.56935C14.2093 8.567 14.2084 8.56466 14.2075 8.56233C14.2065 8.55977 14.2054 8.55721 14.2043 8.55468C14.2016 8.54734 14.1986 8.54011 14.1954 8.53298C14.1952 8.53277 14.195 8.53256 14.1948 8.53235C14.1946 8.53171 14.1944 8.53107 14.1941 8.53043C14.1895 8.52126 14.1843 8.51232 14.1788 8.50363C14.1782 8.50257 14.1776 8.5015 14.1769 8.50044C14.1765 8.49959 14.1761 8.49874 14.1756 8.49789L14.1654 8.48258L9.61953 1.33866C9.59232 1.28304 9.54987 1.2363 9.49711 1.20388C9.44436 1.17146 9.38348 1.1547 9.32157 1.15555ZM9.00001 2.60896V6.4977L5.59744 7.95557L9.00001 2.60896ZM9.65334 2.60896L13.0559 7.95557L9.65334 6.4977V2.60896ZM9.00001 7.20845V10.7233L5.48579 8.71546L9.00001 7.20845ZM9.65334 7.20845L13.1676 8.71546L9.65334 10.7233V7.20845ZM13.9026 9.97938C13.8448 9.97904 13.788 9.99401 13.738 10.0228L9.32668 12.5436L4.9154 10.0228C4.8679 9.99571 4.81437 9.98102 4.75972 9.98001C4.69874 9.97882 4.63863 9.99473 4.58622 10.0259C4.53381 10.0571 4.49118 10.1024 4.46316 10.1566C4.43514 10.2108 4.42285 10.2717 4.42767 10.3325C4.4325 10.3933 4.45426 10.4516 4.49048 10.5006L9.04212 16.678C9.07055 16.7283 9.11183 16.7701 9.16173 16.7993C9.21163 16.8285 9.26838 16.8439 9.32617 16.8439C9.38397 16.844 9.44074 16.8287 9.49071 16.7997C9.54068 16.7706 9.58205 16.7288 9.6106 16.6786L14.1629 10.5006C14.1988 10.4522 14.2206 10.3947 14.2259 10.3346C14.2312 10.2745 14.2197 10.2141 14.1927 10.1601C14.1658 10.1061 14.1244 10.0607 14.0732 10.0288C14.0219 9.99686 13.9629 9.97977 13.9026 9.97938ZM5.93368 11.3575L9.00001 13.1101V15.5193L5.93368 11.3575ZM12.7197 11.3575L9.65334 15.5193V13.1101L12.7197 11.3575Z" fill="#F7F8F8"/>
</svg>
