<?xml version="1.0" encoding="UTF-8"?>
<svg xmlns="http://www.w3.org/2000/svg" xmlns:xlink="http://www.w3.org/1999/xlink" width="16px" height="16px" viewBox="0 0 16 16" version="1.1">
<g id="surface1">
<path style=" stroke:none;fill-rule:nonzero;fill:rgb(100%,100%,100%);fill-opacity:1;" d="M 17.515625 8.304688 C 17.671875 8.539062 17.757812 8.8125 17.757812 9.097656 C 17.757812 9.476562 17.605469 9.839844 17.339844 10.105469 C 17.070312 10.375 16.707031 10.527344 16.328125 10.527344 C 16.046875 10.527344 15.769531 10.441406 15.535156 10.285156 C 15.300781 10.128906 15.117188 9.90625 15.007812 9.644531 C 14.898438 9.382812 14.871094 9.09375 14.925781 8.816406 C 14.980469 8.539062 15.117188 8.285156 15.316406 8.085938 C 15.515625 7.886719 15.773438 7.75 16.050781 7.695312 C 16.328125 7.640625 16.613281 7.667969 16.875 7.777344 C 17.136719 7.886719 17.359375 8.066406 17.515625 8.304688 Z M 17.515625 8.304688 "/>
<path style=" stroke:none;fill-rule:nonzero;fill:rgb(100%,100%,100%);fill-opacity:1;" d="M 17.515625 15.535156 C 17.671875 15.769531 17.757812 16.046875 17.757812 16.328125 C 17.757812 16.707031 17.605469 17.070312 17.339844 17.339844 C 17.070312 17.605469 16.707031 17.757812 16.328125 17.757812 C 16.046875 17.757812 15.769531 17.671875 15.535156 17.515625 C 15.300781 17.359375 15.117188 17.136719 15.007812 16.875 C 14.898438 16.613281 14.871094 16.328125 14.925781 16.050781 C 14.980469 15.773438 15.117188 15.515625 15.316406 15.316406 C 15.515625 15.117188 15.773438 14.980469 16.050781 14.925781 C 16.328125 14.871094 16.613281 14.898438 16.875 15.007812 C 17.136719 15.117188 17.359375 15.300781 17.515625 15.535156 Z M 17.515625 15.535156 "/>
<path style=" stroke:none;fill-rule:nonzero;fill:rgb(100%,100%,100%);fill-opacity:1;" d="M 14.328125 0.242188 L 17.757812 0.242188 L 17.757812 3.671875 L 14.328125 3.671875 Z M 14.328125 0.242188 "/>
<path style=" stroke:none;fill-rule:nonzero;fill:rgb(100%,100%,100%);fill-opacity:1;" d="M 10.390625 15.535156 C 10.546875 15.769531 10.628906 16.046875 10.628906 16.328125 C 10.628906 16.707031 10.480469 17.070312 10.210938 17.339844 C 9.945312 17.605469 9.582031 17.757812 9.203125 17.757812 C 8.917969 17.757812 8.644531 17.671875 8.40625 17.515625 C 8.171875 17.359375 7.988281 17.136719 7.882812 16.875 C 7.773438 16.613281 7.746094 16.328125 7.800781 16.050781 C 7.855469 15.773438 7.992188 15.515625 8.191406 15.316406 C 8.390625 15.117188 8.644531 14.980469 8.921875 14.925781 C 9.199219 14.871094 9.488281 14.898438 9.75 15.007812 C 10.011719 15.117188 10.234375 15.300781 10.390625 15.535156 Z M 10.390625 15.535156 "/>
<path style=" stroke:none;fill-rule:nonzero;fill:rgb(100%,100%,100%);fill-opacity:1;" d="M 7.488281 7.382812 L 10.917969 7.382812 L 10.917969 10.8125 L 7.488281 10.8125 Z M 7.488281 7.382812 "/>
<path style=" stroke:none;fill-rule:nonzero;fill:rgb(100%,100%,100%);fill-opacity:1;" d="M 7.390625 0.242188 L 11.011719 0.242188 L 11.011719 3.863281 L 7.390625 3.863281 Z M 7.390625 0.242188 "/>
<path style=" stroke:none;fill-rule:nonzero;fill:rgb(100%,100%,100%);fill-opacity:1;" d="M 0.253906 0.246094 L 4.066406 0.246094 L 4.066406 4.058594 L 0.253906 4.058594 Z M 0.253906 0.246094 "/>
<path style=" stroke:none;fill-rule:nonzero;fill:rgb(100%,100%,100%);fill-opacity:1;" d="M 0.242188 14.328125 L 3.671875 14.328125 L 3.671875 17.757812 L 0.242188 17.757812 Z M 0.242188 14.328125 "/>
<path style=" stroke:none;fill-rule:nonzero;fill:rgb(100%,100%,100%);fill-opacity:1;" d="M 0.242188 7.285156 L 3.863281 7.285156 L 3.863281 10.90625 L 0.242188 10.90625 Z M 0.242188 7.285156 "/>
</g>
</svg>
