<svg width="16" height="16" viewBox="0 0 16 16" fill="none" xmlns="http://www.w3.org/2000/svg">
<g id="HYPC">
<path id="Vector" d="M7.65955 5.47353L7.65734 4.33258V3.86107H7.64627C5.19827 3.86107 3.20754 5.86163 3.20754 8.31923C3.20754 9.508 3.67035 10.6278 4.5096 11.4707C5.34885 12.3137 6.46268 12.7785 7.64737 12.7785C8.83096 12.7785 9.9459 12.3148 10.7851 11.4707C11.5059 10.7468 11.9599 9.79046 12.0628 8.7785H13.1999C13.0936 10.0985 12.5212 11.3395 11.5879 12.2781C10.5349 13.3356 9.13544 13.9172 7.64737 13.9172C6.15931 13.9172 4.75982 13.3345 3.70688 12.2781C2.65395 11.2205 2.07489 9.81492 2.07489 8.32034C2.07489 6.82576 2.65505 5.42015 3.70688 4.3626C4.75982 3.30505 6.15931 2.72346 7.64737 2.72346H7.65955V2.25195H7.64737C6.03309 2.25195 4.51624 2.88359 3.37473 4.02899C2.23321 5.1755 1.60544 6.69899 1.60544 8.32034C1.60544 9.94169 2.23432 11.4652 3.37473 12.6117C4.51624 13.7582 6.03309 14.3887 7.64737 14.3887C9.26166 14.3887 10.7785 13.7571 11.92 12.6117C13.0615 11.4652 13.6893 9.94169 13.6893 8.32034V8.30811H13.2276L11.6255 8.307H11.6133V8.43044C11.5546 10.5678 9.77539 12.307 7.64627 12.307C5.45735 12.307 3.67699 10.5188 3.67699 8.32034C3.67699 6.2931 5.18498 4.59279 7.18789 4.36038L7.1901 5.51022C5.80169 5.73708 4.77975 6.97144 4.81186 8.38595C4.84729 9.95615 6.14713 11.2027 7.71159 11.1683C8.44344 11.1516 9.13212 10.8558 9.65028 10.3342C10.2039 9.77822 10.4995 9.03983 10.4818 8.25585C10.4729 7.87886 10.3921 7.513 10.2404 7.16938C10.6135 6.76127 10.6002 6.13853 10.2105 5.74598C9.82079 5.35454 9.19965 5.34119 8.79331 5.71595C8.44012 5.55915 8.04928 5.47575 7.65955 5.47464V5.47353ZM9.09115 6.07959C9.19965 5.97061 9.34137 5.91612 9.4842 5.91612C9.62703 5.91612 9.76875 5.97061 9.87725 6.07959C10.0943 6.29755 10.0943 6.65118 9.87725 6.86913C9.66024 7.08709 9.30816 7.08709 9.09115 6.86913C8.87414 6.65118 8.87414 6.29755 9.09115 6.07959ZM10.0112 8.26585C10.0411 9.57583 9.00368 10.6656 7.70052 10.6957C7.6817 10.6957 7.66398 10.6957 7.64627 10.6957C6.36635 10.6957 5.3112 9.6648 5.28131 8.37372C5.26692 7.73986 5.49942 7.13825 5.93676 6.67898C6.3741 6.2197 6.96202 5.95838 7.59312 5.94392C7.61084 5.94392 7.62966 5.94392 7.64737 5.94392C7.94853 5.94392 8.24304 6.00174 8.52537 6.11406C8.38587 6.49215 8.47777 6.91695 8.7601 7.20163C9.04243 7.48632 9.46759 7.5775 9.84293 7.43739C9.94811 7.70094 10.0046 7.98006 10.0112 8.26585Z" fill="white"/>
<path id="Vector_2" d="M15.7221 6.91042C15.3523 6.539 14.75 6.539 14.3802 6.91042C14.0104 7.28184 14.0104 7.88679 14.3802 8.25821C14.5009 8.37942 14.6526 8.46505 14.8197 8.50731C14.7732 10.3611 14.0281 12.1047 12.7205 13.4181C11.3653 14.7792 9.5628 15.5287 7.64625 15.5298C5.72971 15.5298 3.9272 14.7803 2.572 13.4192C1.2168 12.058 0.470556 10.2476 0.470556 8.32271C0.470556 6.39777 1.2168 4.58737 2.57311 3.22624C3.92942 1.8651 5.64999 1.15006 7.51782 1.1167C7.55103 1.31242 7.64182 1.48924 7.78022 1.62935C7.95959 1.8095 8.19763 1.90847 8.45118 1.90847C8.70473 1.90847 8.94277 1.8095 9.12214 1.62935C9.49194 1.25793 9.49194 0.652983 9.12214 0.281563C8.94277 0.101413 8.70473 0.00244141 8.45118 0.00244141C8.19763 0.00244141 7.95959 0.101413 7.78022 0.281563C7.67836 0.38387 7.60307 0.506195 7.55546 0.644087C5.54813 0.66744 3.66148 1.46588 2.24095 2.89263C0.794962 4.3405 0 6.26877 0 8.32048C0 10.3722 0.794962 12.3005 2.23985 13.7506C3.68473 15.2007 5.60459 16.0002 7.64625 16.0002C9.68902 16.0002 11.6089 15.2018 13.0527 13.7506C14.4488 12.3483 15.2438 10.4856 15.2903 8.50508C15.4553 8.46283 15.6036 8.3772 15.7232 8.25821C15.9026 8.07806 16.0011 7.83897 16.0011 7.58431C16.0011 7.32966 15.9026 7.09057 15.7232 6.91042H15.7221ZM15.391 7.9246C15.3003 8.01579 15.1807 8.06583 15.0522 8.06583C14.9238 8.06583 14.8042 8.01579 14.7134 7.9246C14.6227 7.83341 14.5728 7.71331 14.5728 7.58431C14.5728 7.45532 14.6227 7.33522 14.7134 7.24403C14.8042 7.15284 14.9293 7.1028 15.0522 7.1028C15.1751 7.1028 15.298 7.14951 15.391 7.24292C15.5782 7.43085 15.5782 7.73555 15.391 7.92349V7.9246ZM8.11017 0.611838C8.20317 0.518427 8.32607 0.470609 8.44897 0.470609C8.57186 0.470609 8.69476 0.517315 8.78777 0.611838C8.88077 0.706361 8.92838 0.823125 8.92838 0.952122C8.92838 1.08112 8.87856 1.20122 8.78777 1.29241C8.69698 1.38359 8.5774 1.43363 8.44897 1.43363C8.32053 1.43363 8.20096 1.38359 8.11017 1.29241C7.92305 1.10447 7.92305 0.799773 8.11017 0.611838Z" fill="white"/>
</g>
</svg>
