<svg width="26" height="24" viewBox="0 0 26 24" fill="none" xmlns="http://www.w3.org/2000/svg">
<g id="Untitled-1 1">
<path id="Vector" d="M12.6503 10.9932C11.8276 10.9932 11.1598 11.6496 11.1598 12.4602C11.1598 13.2708 11.8276 13.9272 12.6503 13.9272C13.4731 13.9272 14.1409 13.27 14.1409 12.4602C14.1409 11.6504 13.474 10.9932 12.6503 10.9932ZM12.6503 13.1516C12.262 13.1516 11.9479 12.8416 11.9479 12.4602C11.9479 12.0779 12.2628 11.7688 12.6503 11.7688C13.0379 11.7688 13.3528 12.0787 13.3528 12.4602C13.3536 12.8416 13.0387 13.1516 12.6503 13.1516Z" fill="white"/>
<path id="Vector_2" d="M20.0789 12.236L18.5617 12.9059L14.1409 12.4712C14.1401 12.5411 14.1337 12.6103 14.1232 12.6778L18.6061 13.8436L19.8206 14.7083C20.1815 14.9642 20.5134 14.818 20.5586 14.3825L20.7338 12.7025C20.7798 12.267 20.4843 12.0572 20.0789 12.236ZM20.2041 13.0362L20.1129 13.908C20.0894 14.1337 19.9166 14.21 19.7301 14.0765L19.0083 13.5631C18.8209 13.4304 18.8411 13.2452 19.0511 13.1531L19.8642 12.7938C20.0741 12.7017 20.2275 12.8105 20.2041 13.0362Z" fill="white"/>
<path id="Vector_3" d="M19.7108 13.1443L19.328 13.3128C19.2295 13.3565 19.2198 13.4439 19.3087 13.5059L19.6478 13.7475C19.7358 13.8103 19.8174 13.7745 19.8279 13.668L19.8706 13.258C19.882 13.1515 19.8093 13.1006 19.7108 13.1443Z" fill="white"/>
<path id="Vector_4" d="M7.70224 9.63178L8.28603 9.69138C8.43702 9.70648 8.5105 9.60794 8.44833 9.47125L8.20851 8.94437C8.14634 8.80768 8.0228 8.79496 7.93398 8.91655L7.59001 9.38463C7.50038 9.50463 7.55044 9.61668 7.70224 9.63178Z" fill="white"/>
<path id="Vector_5" d="M7.4164 14.6098L6.92789 14.5486C6.80112 14.5327 6.73814 14.6138 6.78739 14.7306L6.97715 15.178C7.0264 15.2941 7.12975 15.3068 7.20727 15.2066L7.50522 14.8212C7.58354 14.7211 7.54317 14.6257 7.4164 14.6098Z" fill="white"/>
<path id="Vector_6" d="M11.2447 12.9434L8.15695 13.9248L6.33372 13.6951C5.83633 13.6316 5.58764 13.9534 5.78143 14.4088L6.52751 16.1659C6.7213 16.6212 7.12826 16.6721 7.43267 16.2795L8.59621 14.7775L11.344 13.1659C11.3044 13.0944 11.2721 13.0197 11.2447 12.9434ZM7.89615 14.7799L7.28733 15.5659C7.12987 15.7693 6.91832 15.7431 6.8182 15.5071L6.43062 14.5948C6.32969 14.3587 6.45888 14.1918 6.71727 14.2244L7.71366 14.3492C7.97124 14.3826 8.0536 14.5765 7.89615 14.7799Z" fill="white"/>
<path id="Vector_7" d="M11.9132 8.53123C11.9132 8.36435 11.7759 8.22925 11.6072 8.22925C11.4376 8.22925 11.3011 8.36435 11.3011 8.53123C11.3011 8.69733 11.4384 8.83243 11.6072 8.83243C11.7759 8.83243 11.9132 8.69733 11.9132 8.53123Z" fill="white"/>
<path id="Vector_8" d="M12.111 11.0939C12.216 11.0542 12.3258 11.0256 12.4413 11.0097L12.2701 9.59114C12.6318 9.37101 12.8733 8.97842 12.8733 8.531C12.8733 7.84359 12.3048 7.28491 11.6064 7.28491C10.9079 7.28491 10.3395 7.84438 10.3395 8.531C10.3395 9.18663 10.8562 9.72465 11.5111 9.77312L12.111 11.0939ZM10.8135 8.531C10.8135 8.10107 11.1687 7.75061 11.6064 7.75061C12.044 7.75061 12.3993 8.10107 12.3993 8.531C12.3993 8.96173 12.0432 9.3122 11.6064 9.3122C11.1695 9.3122 10.8135 8.96173 10.8135 8.531Z" fill="white"/>
<path id="Vector_9" d="M20.6692 16.3835C20.4996 16.3835 20.3632 16.5178 20.3632 16.6847C20.3632 16.8508 20.5004 16.9859 20.6692 16.9859C20.8379 16.9859 20.9752 16.8508 20.9752 16.6847C20.976 16.5186 20.8387 16.3835 20.6692 16.3835Z" fill="white"/>
<path id="Vector_10" d="M20.6692 15.3798C20.2655 15.3798 19.9037 15.5594 19.6599 15.8399L14.0804 12.8701C14.0634 12.9273 14.044 12.983 14.0206 13.037L19.3442 16.6656C19.3442 16.672 19.3434 16.6783 19.3434 16.6855C19.3434 17.4055 19.9385 17.9904 20.67 17.9904C21.4016 17.9904 21.9958 17.4047 21.9958 16.6855C21.9958 15.9655 21.4008 15.3798 20.6692 15.3798ZM20.6692 17.4071C20.2639 17.4071 19.9352 17.0828 19.9352 16.6847C19.9352 16.2865 20.2647 15.9623 20.6692 15.9623C21.0737 15.9623 21.4032 16.2865 21.4032 16.6847C21.4032 17.0836 21.0737 17.4071 20.6692 17.4071Z" fill="white"/>
<path id="Vector_11" d="M13.0743 14.8982L12.8805 13.9072C12.8054 13.9191 12.7287 13.9263 12.6504 13.9263C12.5914 13.9263 12.5341 13.9223 12.4776 13.9152L12.3056 14.8823C11.7896 15.0357 11.4117 15.5078 11.4117 16.0656C11.4117 16.7475 11.9753 17.3022 12.6681 17.3022C13.3601 17.3022 13.9245 16.7475 13.9245 16.0656C13.9237 15.5252 13.5676 15.0651 13.0743 14.8982ZM12.6673 16.7205C12.3016 16.7205 12.0036 16.4272 12.0036 16.0672C12.0036 15.7072 12.3016 15.414 12.6673 15.414C13.0331 15.414 13.3311 15.7072 13.3311 16.0672C13.3319 16.4272 13.0339 16.7205 12.6673 16.7205Z" fill="white"/>
<path id="Vector_12" d="M12.6674 15.7654C12.4986 15.7654 12.3613 15.8997 12.3613 16.0666C12.3613 16.2335 12.4986 16.3678 12.6674 16.3678C12.8361 16.3678 12.9734 16.2327 12.9734 16.0666C12.9742 15.9005 12.8369 15.7654 12.6674 15.7654Z" fill="white"/>
<path id="Vector_13" d="M13.0847 7.51701L12.7989 11.0002C12.8692 11.0073 12.937 11.0201 13.004 11.036L13.893 7.64019L14.388 7.48046C14.5656 7.42324 14.7433 7.22933 14.7812 7.04893L14.9241 6.37979C14.9629 6.1994 14.8805 5.95145 14.7408 5.82907L14.2233 5.37291C14.0836 5.24973 13.8236 5.19648 13.6459 5.2537L12.9854 5.46668C12.8078 5.5239 12.6301 5.7186 12.5922 5.899L12.4493 6.56814C12.4105 6.74854 12.4929 6.99648 12.6326 7.11966L13.0847 7.51701ZM12.899 6.42191L12.9442 6.20893C12.983 6.02854 13.1598 5.83383 13.3375 5.77662L13.5474 5.70827C13.7259 5.65105 13.9851 5.7043 14.1247 5.82748L14.2895 5.97291C14.4292 6.09609 14.5115 6.34324 14.4736 6.52363L14.4275 6.73661C14.3896 6.91701 14.2128 7.11171 14.0343 7.16893L13.8244 7.23728C13.6467 7.2945 13.3867 7.24125 13.247 7.11807L13.0823 6.97264C12.9434 6.85026 12.8603 6.60311 12.899 6.42191Z" fill="white"/>
<path id="Vector_14" d="M19.5888 10.3685C19.5468 10.3343 19.4717 10.3216 19.4209 10.3407L19.2327 10.409C19.1819 10.4273 19.1334 10.4853 19.1245 10.5378L19.0906 10.7317C19.0817 10.7841 19.1076 10.8548 19.1496 10.889L19.3038 11.0154C19.3458 11.0495 19.4209 11.0623 19.4717 11.0432L19.6599 10.9748C19.7107 10.9566 19.7592 10.8986 19.7689 10.8461L19.8028 10.6514C19.8125 10.5989 19.7858 10.529 19.7438 10.494L19.5888 10.3685Z" fill="white"/>
<path id="Vector_15" d="M13.5264 6.80184C13.5676 6.8384 13.6451 6.85429 13.6984 6.8376L13.8946 6.77402C13.9479 6.75734 14.0004 6.69932 14.0117 6.64528L14.0545 6.44581C14.0658 6.39177 14.0416 6.31787 13.9996 6.28131L13.8454 6.14542C13.8042 6.10886 13.7267 6.09297 13.6734 6.10965L13.4764 6.17323C13.4231 6.19071 13.3706 6.24873 13.3593 6.30197L13.3165 6.50144C13.3052 6.55548 13.3294 6.62939 13.3714 6.66595L13.5264 6.80184Z" fill="white"/>
<path id="Vector_16" d="M18.8613 17.5208C18.6643 17.2808 18.25 17.1242 17.9408 17.1719L17.1648 17.2919L13.6758 13.5234C13.6169 13.5783 13.5547 13.6291 13.4877 13.6744L16.0118 17.9944L15.608 19.0267C15.495 19.3144 15.5644 19.746 15.7615 19.9852L16.4914 20.8752C16.6884 21.1152 17.1026 21.2718 17.4119 21.2241L18.5601 21.0469C18.8693 20.9992 19.2149 20.7242 19.3272 20.4366L19.7446 19.3693C19.8577 19.0816 19.7882 18.6501 19.5912 18.4101L18.8613 17.5208ZM18.9622 19.4909L18.829 19.831C18.7167 20.1187 18.3711 20.3936 18.0619 20.4405L17.6961 20.4969C17.3861 20.5446 16.9726 20.3881 16.7756 20.1481L16.5431 19.8644C16.3461 19.6244 16.2774 19.1928 16.3897 18.9052L16.5229 18.565C16.6351 18.2773 16.9807 18.0032 17.29 17.9555L17.6566 17.8991C17.9658 17.8514 18.38 18.0079 18.5771 18.2479L18.8096 18.5316C19.0058 18.7709 19.0752 19.2024 18.9622 19.4909Z" fill="white"/>
<path id="Vector_17" d="M20.4755 10.0085L19.9409 9.5714C19.7964 9.45378 19.5356 9.40928 19.3596 9.47286L18.7079 9.70968C18.5319 9.77405 18.3624 9.97431 18.3309 10.1555L18.2429 10.6578C17.5242 10.8827 15.1979 11.6305 14.0635 11.9952C14.0829 12.0517 14.0998 12.1097 14.1119 12.1693L18.4948 11.4366L18.9518 11.8109C19.0955 11.9285 19.3571 11.973 19.5324 11.9094L20.184 11.6726C20.36 11.609 20.5296 11.408 20.5611 11.2268L20.6789 10.5529C20.7104 10.3709 20.6184 10.1261 20.4755 10.0085ZM20.1234 10.711L20.0911 10.8954C20.0645 11.0511 19.9183 11.2236 19.7681 11.2784L19.5897 11.3428C19.4387 11.3976 19.215 11.3595 19.0907 11.2593L18.9445 11.1393C18.821 11.0384 18.7419 10.8278 18.7693 10.6721L18.8016 10.4877C18.8283 10.3311 18.9744 10.1595 19.1254 10.1046L19.3038 10.0403C19.4548 9.98544 19.6785 10.0228 19.8029 10.1245L19.949 10.2437C20.0717 10.3446 20.1509 10.5544 20.1234 10.711Z" fill="white"/>
<path id="Vector_18" d="M18.0062 18.7312C17.9513 18.6645 17.8359 18.6208 17.7495 18.6343L17.4297 18.6836C17.3433 18.6971 17.2472 18.7734 17.2157 18.8536L17.0995 19.1508C17.068 19.2311 17.0873 19.3511 17.1423 19.4179L17.3457 19.6658C17.4006 19.7326 17.5161 19.7763 17.6025 19.7628L17.9223 19.7135C18.0087 19.7 18.1047 19.6237 18.1362 19.5434L18.2525 19.2462C18.284 19.1659 18.2646 19.0459 18.2097 18.9792L18.0062 18.7312Z" fill="white"/>
<path id="Vector_19" d="M8.7859 12.4863C8.85615 12.5785 8.98938 12.5976 9.08304 12.5285L9.23161 12.4196C9.32528 12.3505 9.34466 12.2193 9.2736 12.1271L9.16217 11.9809C9.09192 11.8887 8.95869 11.8705 8.86503 11.9396L8.71727 12.0493C8.6236 12.1184 8.60422 12.2487 8.67447 12.3417L8.7859 12.4863Z" fill="white"/>
<path id="Vector_20" d="M8.36355 13.0545C8.59125 13.3541 9.02324 13.4153 9.32765 13.1904L9.80808 12.836C9.82746 12.8217 9.84361 12.8042 9.86057 12.7883L11.1662 12.5952C11.1622 12.5507 11.159 12.5062 11.159 12.4601C11.159 12.3719 11.1686 12.2853 11.184 12.201L9.98249 11.9483C9.97038 11.9276 9.95988 11.907 9.94454 11.8871L9.58442 11.4143C9.35671 11.1147 8.92473 11.0543 8.62032 11.2784L8.13908 11.6328C7.83467 11.8577 7.7733 12.2821 8.001 12.5817L8.36355 13.0545ZM8.47175 11.8712L8.76162 11.6574C8.94491 11.5215 9.20491 11.5589 9.34299 11.7393L9.56019 12.0238C9.69746 12.2042 9.66032 12.4601 9.47703 12.596L9.18715 12.8098C9.00386 12.9449 8.74386 12.9083 8.60659 12.7279L8.38939 12.4426C8.25131 12.263 8.28845 12.0071 8.47175 11.8712Z" fill="white"/>
<path id="Vector_21" d="M10.4444 16.8454C10.4363 16.7333 10.408 16.6284 10.3644 16.5315L11.9212 13.7389C11.8461 13.6975 11.7751 13.6507 11.7088 13.5974L9.53679 15.9775C9.50288 15.976 9.46897 15.9767 9.43425 15.9791L8.60984 16.0348C8.08822 16.0697 7.69338 16.5148 7.72891 17.0289L7.78543 17.8403C7.82096 18.3537 8.27313 18.7423 8.79474 18.7066L9.61915 18.6509C10.1408 18.616 10.5348 18.1709 10.4993 17.6567L10.4444 16.8454ZM9.41891 18.1296L8.92232 18.163C8.60822 18.1844 8.33611 17.9508 8.31431 17.6409L8.2804 17.1521C8.2586 16.843 8.49599 16.5752 8.81089 16.5537L9.30748 16.5203C9.62158 16.4997 9.8945 16.7325 9.91549 17.0424L9.9494 17.5312C9.9712 17.8403 9.73381 18.1089 9.41891 18.1296Z" fill="white"/>
<path id="Vector_22" d="M16.3783 7.4917H15.3496C14.6988 7.4917 14.1708 8.01143 14.1708 8.65196V9.66362C14.1708 9.75342 14.1821 9.84004 14.2014 9.92428L13.4642 11.2324C13.6072 11.3245 13.7331 11.4406 13.8365 11.5749L15.2899 10.8215C15.3101 10.8223 15.3295 10.8247 15.3496 10.8247H16.3783C17.0291 10.8247 17.5572 10.3049 17.5572 9.66441V8.65276C17.5572 8.01064 17.0299 7.4917 16.3783 7.4917ZM17.0429 9.51024C17.0429 9.95686 16.6755 10.3185 16.2225 10.3185H15.5063C15.0533 10.3185 14.6859 9.95686 14.6859 9.51024V8.80614C14.6859 8.36031 15.0533 7.99872 15.5063 7.99872H16.2225C16.6755 7.99872 17.0429 8.36031 17.0429 8.80614V9.51024Z" fill="white"/>
<path id="Vector_23" d="M16.0119 8.67896H15.7163C15.529 8.67896 15.3772 8.82836 15.3772 9.01273V9.30359C15.3772 9.48796 15.529 9.63737 15.7163 9.63737H16.0119C16.1992 9.63737 16.351 9.48796 16.351 9.30359V9.01273C16.351 8.82836 16.1992 8.67896 16.0119 8.67896Z" fill="white"/>
<path id="Vector_24" d="M9.21391 16.9215L8.95956 16.9382C8.79888 16.9493 8.67776 17.086 8.68826 17.2442L8.70521 17.4937C8.71652 17.6519 8.8554 17.7711 9.01608 17.7607L9.27043 17.744C9.43111 17.7329 9.55223 17.5962 9.54173 17.4381L9.52478 17.1885C9.51347 17.0304 9.37459 16.9112 9.21391 16.9215Z" fill="white"/>
<path id="Vector_25" d="M6.80527 10.5003L8.91918 10.7164L11.373 11.7416C11.4312 11.6335 11.5038 11.5342 11.5862 11.4444L9.6911 9.52597L8.86346 7.70452C8.61154 7.14902 8.10849 7.09816 7.74514 7.59087L6.34663 9.49101C5.98489 9.98372 6.19079 10.4383 6.80527 10.5003ZM7.15489 9.39644L7.88079 8.40942C8.06893 8.15432 8.32974 8.18054 8.46135 8.46902L8.96601 9.58081C9.09682 9.86849 8.9434 10.0783 8.62446 10.0457L7.39228 9.92015C7.07415 9.88756 6.96676 9.65154 7.15489 9.39644Z" fill="white"/>
</g>
</svg>
