<svg width="16" height="16" viewBox="0 0 16 16" fill="none" xmlns="http://www.w3.org/2000/svg">
<g id="Logo">
<path id="Vector" fill-rule="evenodd" clip-rule="evenodd" d="M15.2245 6.52165C15.1267 6.52165 15.0289 6.5403 14.9378 6.57541C12.4712 5.46288 10.0267 5.82933 8.00005 7.51897C5.97783 5.82933 3.52672 5.46288 1.06228 6.57541C0.664497 6.41851 0.212275 6.61052 0.0544975 7.0044C-0.104391 7.39719 0.0900531 7.84374 0.488942 7.99953C0.88672 8.15643 1.33894 7.96442 1.49672 7.57054C1.51672 7.52117 1.53116 7.4696 1.54005 7.41803C3.56561 6.37902 5.5745 6.72023 7.35005 8.23872C7.13672 8.52727 6.94339 8.83009 6.77116 9.14498C5.51116 11.8627 6.20783 14.0998 7.99894 16.0001C9.92894 13.8046 10.5034 11.3613 8.7945 8.56567C8.77783 8.53934 8.18672 9.31613 8.20672 9.35234C9.22783 11.2307 8.97783 12.9741 7.99894 14.5628C6.49561 12.8358 6.92005 9.9097 8.64783 8.24091C10.4201 6.72243 12.4323 6.38011 14.4578 7.42023C14.5334 7.83715 14.9356 8.11474 15.3578 8.04013C15.7356 7.9732 16.0067 7.64515 15.9978 7.26663C15.9834 6.85299 15.6412 6.52494 15.2223 6.52055L15.2245 6.52165Z" fill="white"/>
<path id="Vector_2" fill-rule="evenodd" clip-rule="evenodd" d="M14.5167 4.58955C14.5167 4.16605 14.1689 3.82373 13.74 3.82373C13.5045 3.82373 13.2811 3.93016 13.1334 4.11229C11.3467 3.88737 9.5367 4.27028 8.00004 5.19848C6.46337 4.27028 4.65337 3.88737 2.8667 4.11229C2.59893 3.78094 2.11115 3.72718 1.77559 3.9916C1.44004 4.25601 1.38559 4.73767 1.65337 5.06902C1.69337 5.11839 1.73893 5.16228 1.79004 5.20068L1.77559 5.22372L1.80893 5.21384C2.15782 5.45961 2.64226 5.38061 2.89115 5.0361C2.90226 5.02074 2.91337 5.00428 2.92337 4.98783C4.72115 4.7278 6.54893 5.18861 8.00004 6.26822C9.45115 5.1897 11.28 4.72889 13.0767 4.99002C13.2989 5.35209 13.7767 5.46729 14.1434 5.24785C14.16 5.23798 14.1756 5.22701 14.1923 5.21604L14.2256 5.22591L14.2111 5.20287C14.4045 5.05695 14.5178 4.82983 14.5167 4.58955Z" fill="white"/>
<path id="Vector_3" fill-rule="evenodd" clip-rule="evenodd" d="M11.1223 1.7082C10.8389 1.7082 10.5789 1.8607 10.4423 2.10537C9.58004 2.29408 8.7556 2.62214 8.00004 3.07307C7.24449 2.62104 6.42004 2.29408 5.55782 2.10537C5.35115 1.73453 4.87782 1.59848 4.50227 1.80365C4.12671 2.00772 3.98893 2.47512 4.19671 2.84596C4.40338 3.2168 4.87671 3.35285 5.25227 3.14768C5.3356 3.1027 5.40893 3.04235 5.47004 2.97104C6.3856 3.18608 7.24671 3.58435 8.00004 4.14062C8.75338 3.58435 9.61449 3.18608 10.5289 2.97104C10.8056 3.2947 11.2956 3.33639 11.6234 3.0632C11.9512 2.79 11.9934 2.30615 11.7167 1.98249C11.5689 1.80913 11.3512 1.70929 11.1212 1.70929L11.1223 1.7082Z" fill="white"/>
<path id="Vector_4" d="M8.00004 1.99246C8.55723 1.99246 9.00893 1.54643 9.00893 0.996228C9.00893 0.446027 8.55723 0 8.00004 0C7.44285 0 6.99115 0.446027 6.99115 0.996228C6.99115 1.54643 7.44285 1.99246 8.00004 1.99246Z" fill="white"/>
</g>
</svg>
