<svg width="28" height="28" viewBox="0 0 28 28" fill="none" xmlns="http://www.w3.org/2000/svg">
<g id="Group 26158143">
<circle id="Ellipse 389" cx="14" cy="14" r="13.5" stroke="#F7F8F8"/>
<path id="Vector" d="M19.1358 18.8084C17.3883 20.8419 13.4177 21.3244 12.3458 19.4563C11.0257 17.1608 14.0761 15.8235 15.5719 13.7762C16.4301 12.5974 16.4784 11.884 16.313 10.8568C16.2199 10.2812 15.6581 9.4954 15.21 8.94393C15.0136 8.69922 15.2548 8.35455 15.5754 8.42348C17.8467 8.93015 19.77 10.5639 20.4214 12.432C21.159 14.5517 20.935 16.7266 19.1427 18.8084M14.5 7C10.3571 7 7 10.3571 7 14.5C7 18.6429 10.3571 22 14.5 22C18.6429 22 22 18.6429 22 14.5C22 10.3571 18.6429 7 14.5 7Z" fill="white"/>
</g>
</svg>
