<svg width="16" height="16" viewBox="0 0 16 16" fill="none" xmlns="http://www.w3.org/2000/svg">
<g id="SOPH">
<path id="Vector" d="M8.85101 12.6255C9.96845 12.6182 11.5971 11.7491 12.5247 10.2957C13.4887 8.79119 13.4157 6.67318 13.7151 5.83328C12.941 5.79676 11.9477 5.92092 11.2027 6.11081V7.02374C11.546 6.89228 12.0865 6.79734 12.4297 6.79734C12.3567 9.50693 10.9398 11.5811 8.85101 12.6255Z" fill="white"/>
<path id="Vector_2" d="M6.40516 12.9478C4.65232 12.8091 2.49779 11.3484 1.64328 10.2456C1.86239 10.1287 2.24217 9.98263 2.54892 9.90229C2.38824 9.65397 2.22756 9.23768 2.14722 8.93823C1.38036 9.20116 0.496637 9.7051 0 10.1506C0.693831 10.4939 1.54834 11.531 2.60734 12.1956C4.11186 13.145 5.36076 13.1377 6.40516 12.9478Z" fill="white"/>
<path id="Vector_3" d="M8.303 9.37594C8.3176 8.49222 6.76926 7.11186 6.76926 5.92139C6.76926 5.3079 7.30972 4.61407 8.00355 4.21968C8.78503 4.76744 9.80751 5.99443 10.348 7.08265C10.6693 5.62925 9.84403 4.21238 8.00355 3C6.87882 3.54776 5.55688 4.76744 5.55688 5.95061C5.55688 6.9804 6.77657 8.76975 8.00355 10.2085C8.14232 10.0406 8.29569 9.73381 8.303 9.37594Z" fill="white"/>
<path id="Vector_4" d="M7.15813 12.6262C5.06933 11.5745 3.65245 9.50765 3.57942 6.80536C3.92268 6.80536 4.47044 6.9003 4.80641 7.03176V6.11152C4.06145 5.91433 3.06818 5.79017 2.29401 5.83399C2.59345 6.67389 2.52772 8.79921 3.48447 10.2964C4.41932 11.7498 6.0407 12.6262 7.15813 12.6262Z" fill="white"/>
<path id="Vector_5" d="M16 10.1506C15.5034 9.7124 14.6196 9.20846 13.8528 8.93823C13.7797 9.23768 13.6118 9.65397 13.4511 9.90229C13.7651 9.98263 14.1376 10.1287 14.3567 10.2456C13.5022 11.3484 11.3477 12.8018 9.59485 12.9478C10.6319 13.145 11.8808 13.145 13.3854 12.1956C14.4517 11.531 15.3062 10.4866 16 10.1506Z" fill="white"/>
<path id="Vector_6" d="M8.00329 12.5679C9.2887 11.8595 10.4719 10.4134 10.4719 9.2375C10.4719 8.10546 8.93083 6.23577 8.00329 5.2644C7.85722 5.40317 7.72576 5.6807 7.72576 5.96554C7.72576 6.79814 9.25949 8.3976 9.25949 9.26672C9.25949 9.88751 8.79937 10.7128 8.00329 11.2533C6.89316 10.4718 5.74651 8.98188 5.20606 7.60152C4.58526 9.13525 5.76112 11.151 8.00329 12.5679Z" fill="white"/>
</g>
</svg>
