<svg width="64" height="64" viewBox="0 0 64 64" fill="none" xmlns="http://www.w3.org/2000/svg">
<path d="M32.0002 5.33333C17.2802 5.33333 5.3335 17.28 5.3335 32C5.3335 46.72 17.2802 58.6667 32.0002 58.6667C46.7202 58.6667 58.6668 46.72 58.6668 32C58.6668 17.28 46.7202 5.33333 32.0002 5.33333ZM32.0002 53.3333C20.2135 53.3333 10.6668 43.7867 10.6668 32C10.6668 27.0667 12.3468 22.5333 15.1735 18.9333L45.0668 48.8267C41.4668 51.6533 36.9335 53.3333 32.0002 53.3333ZM48.8268 45.0667L18.9335 15.1733C22.5335 12.3467 27.0668 10.6667 32.0002 10.6667C43.7868 10.6667 53.3335 20.2133 53.3335 32C53.3335 36.9333 51.6535 41.4667 48.8268 45.0667Z" fill="white"/>
</svg>
