<?xml version="1.0" encoding="UTF-8"?>
<svg id="Layer_1" data-name="Layer 1" xmlns="http://www.w3.org/2000/svg" viewBox="0 0 154 54">
  <defs>
    <style>
      .cls-1 {
        fill: #9a999a;
      }

      .cls-1, .cls-2 {
        stroke-width: 0px;
      }

      .cls-2 {
        fill: none;
      }
    </style>
  </defs>
  <rect class="cls-2" y="0" width="154" height="54"/>
  <g>
    <path class="cls-1" d="M57.39,31.66c0,3.58,2.42,6.08,5.5,6.08,1.58.02,3.09-.69,4.08-1.92v1.75h2.42v-11.66h-2.5v1.67c-1-1.23-2.5-1.93-4.08-1.92-3,0-5.41,2.33-5.41,6M66.88,31.66c.16,2-1.33,3.75-3.33,3.91-.06,0-.11,0-.17,0-1.83,0-3.5-1.5-3.5-4-.16-1.95,1.29-3.67,3.25-3.83h.25c1.83,0,3.5,1.42,3.5,3.91M73.54,37.49h2.42v-15.66h-2.42v15.66ZM82.62,27.58v-1.75h-2.42v17.16h2.42v-7.25c1.02,1.2,2.51,1.9,4.08,1.92,3.08,0,5.5-2.5,5.5-6.08s-2.42-6-5.5-6c-1.58.05-3.07.78-4.08,2M89.7,31.66c.16,2.05-1.38,3.83-3.43,3.99-.05,0-.1,0-.16,0-1.83,0-3.5-1.42-3.5-3.91-.16-2,1.33-3.75,3.33-3.91h.17c1.96-.01,3.57,1.56,3.58,3.53,0,.02,0,.04,0,.05v.25M95.61,37.49h2.42v-6.5c0-2.17,1.17-3.25,2.92-3.25s2.92,1.08,2.92,3.25v6.5h2.42v-6.91c0-3.25-2-5-4.66-5-1.38-.08-2.71.51-3.58,1.58v-5.33h-2.42v15.66ZM109.61,31.66c0,3.58,2.42,6.08,5.5,6.08,1.58.02,3.09-.69,4.08-1.92v1.75h2.42v-11.66h-2.42v1.67c-1-1.23-2.5-1.93-4.08-1.92-3.08,0-5.5,2.33-5.5,6M119.19,31.66c.16,2-1.33,3.75-3.33,3.91-.06,0-.11,0-.17,0-1.83,0-3.5-1.5-3.5-4-.16-1.95,1.29-3.67,3.25-3.83h.25c2,.07,3.57,1.74,3.51,3.75,0,.06,0,.11,0,.17M128.26,27.58v-5.75h-2.42v15.66h2.42v-1.67c1,1.23,2.5,1.93,4.08,1.92,3.08,0,5.5-2.5,5.5-6.08s-2.42-6-5.5-6c-1.59-.06-3.11.66-4.08,1.92M135.34,31.66c.16,2.05-1.38,3.83-3.43,3.99-.05,0-.1,0-.16,0-1.83,0-3.5-1.42-3.5-3.91-.16-2,1.33-3.75,3.33-3.91h.17c1.96-.01,3.57,1.56,3.58,3.53,0,.02,0,.04,0,.05v.25M141.17,37.49h2.42v-11.66h-2.42v11.66ZM142.42,24.33c.82,0,1.5-.66,1.5-1.49,0,0,0,0,0-.01h0c-.02-.83-.67-1.52-1.5-1.58h0c-.83.02-1.52.67-1.58,1.5h0c.03.86.72,1.55,1.58,1.58h0M148.25,34.25c0,2.33,1.33,3.25,3.33,3.25h1.92v-2h-1.5c-1,0-1.33-.33-1.33-1.25v-6.41h2.83v-2h-2.83v-2.92h-2.42v2.92h-1.42v2h1.42v6.41Z"/>
    <path class="cls-1" d="M31.48,26.42l-3.08-2.92-.25.25-3.83,3.75-3.83-3.75-.33-.25-.5-.5h0l-.83-.83c-2.05-1.73-4.65-2.67-7.33-2.67-6.07,0-10.99,4.92-10.99,10.99s4.92,10.99,10.99,10.99c2.68,0,5.28-.94,7.33-2.67.32-.23.6-.52.83-.83h0l.5-.5.25-.25,3.83-3.75,3.83,3.75.25.25,3.08-2.92-4.16-4.08,4.25-4.08ZM17.07,34.58l-.42.42-.08.08h0c-.26.32-.57.6-.92.83-1.23.91-2.72,1.41-4.25,1.42-3.77.05-6.87-2.97-6.91-6.75,0-.03,0-.06,0-.08h0c.03-3.79,3.12-6.85,6.91-6.83,1.53.01,3.02.51,4.25,1.42.34.23.65.51.92.83h0l.08.08.42.42,4.16,4.08-4.16,4.08ZM37.06,19.5c-1.01.02-2.02.16-3,.42v-8.91h-4.33v11.16l3.08,2.92c1.23-.91,2.72-1.41,4.25-1.42,3.77,0,6.83,3.06,6.83,6.83,0,3.77-3.06,6.83-6.83,6.83h0c-1.53-.01-3.02-.51-4.25-1.42l-3.08,2.92c2.05,1.73,4.65,2.67,7.33,2.67,6.14.06,11.16-4.86,11.24-10.99h0c-.05-6.12-5.06-11.05-11.19-10.99-.02,0-.04,0-.06,0"/>
  </g>
</svg>