<?xml version="1.0" encoding="UTF-8"?>
<svg id="Layer_1" data-name="Layer 1" xmlns="http://www.w3.org/2000/svg" viewBox="0 0 154 54">
  <defs>
    <style>
      .cls-1 {
        fill: #9a999a;
      }

      .cls-1, .cls-2 {
        stroke-width: 0px;
      }

      .cls-2 {
        fill: none;
      }
    </style>
  </defs>
  <rect class="cls-2" width="154" height="54"/>
  <g>
    <path class="cls-1" d="M22.75,32.15c6.47,6.47,13.02,13.02,19.56,19.49H3.26c6.47-6.47,13.02-13.09,19.49-19.49Z"/>
    <path class="cls-1" d="M85.18,2.71c-.07-.2-.07-.41,0-.55h11.52c.14.14.14.34.07.48-.14.14-.34.07-.48.07-.41,0-.75,0-1.16.07-1.43.27-2.18,1.09-2.25,2.59-.2,4.7-.07,9.41-.07,14.18,0,1.29.2,2.66.48,3.95.55,2.73,2.32,4.29,4.98,4.77,2.73.48,5.32,0,7.57-1.64,1.5-1.09,2.18-2.52,2.45-4.29.14-1.16.27-2.39.27-3.61V6.18c0-.41-.07-.89-.14-1.29-.2-1.64-1.43-2.04-2.52-2.11h-1.16c-.14-.2-.14-.34-.07-.55h9.47c.14.2.07.34,0,.48-.2.14-.48.07-.75.07-1.91,0-3,1.16-3.07,3.07-.14,4.16,0,8.32-.07,12.47,0,1.64-.07,3.27-.41,4.84-.75,3.54-3,5.59-6.41,6.54-1.57.41-3.2.48-4.84.41-1.43-.14-2.86-.2-4.16-.82-2.79-1.23-4.57-3.34-5.04-6.41-.27-1.84-.27-3.75-.27-5.66V7.07c0-.68-.07-1.36-.14-1.98-.2-1.43-1.09-2.18-2.59-2.25-.41-.14-.82-.14-1.23-.14Z"/>
    <path class="cls-1" d="M63.85,28.81c.07.2.07.34,0,.55h-8.32q-.07-.27-.07-.61c.27-.07.55-.14.82-.2.82-.14,1.43-.61,1.91-1.29.89-1.29,1.43-2.66,2.04-4.09,3-7.02,6-14.04,9-21.06.07-.2.14-.34.2-.48.2-.14.41-.07.61-.07.14.14.2.27.27.41,3.14,7.5,6.27,14.93,9.41,22.42.34.89.75,1.7,1.29,2.52.68,1.09,1.64,1.7,2.86,1.84.48.07.55.14.41.61h-10.5c-.07-.41,0-.61.41-.61.27,0,.61-.07.89-.14,1.16-.34,1.64-1.02,1.36-2.25-.34-1.36-.95-2.59-1.43-3.82-.27-.75-.61-1.5-.95-2.25h-10.63c-.2.27-.34.68-.48.95-.55,1.29-1.16,2.59-1.7,3.95-.2.48-.34.89-.41,1.43-.14.82.2,1.43.95,1.77.55.2,1.09.27,1.64.34.07-.07.2-.07.41.07ZM63.85,18.79h9.54c-1.57-3.75-3.14-7.43-4.63-11.04h-.14c-1.57,3.61-3.14,7.29-4.77,11.04Z"/>
    <path class="cls-1" d="M22.68,4.96c-.2.2-.34.27-.48.41-6.34,6.34-12.68,12.68-18.95,18.95-.27.27-.61.55-1.02.55-.48,0-.89-.27-1.09-.68-.2-.48-.14-.89.14-1.23.07-.14.2-.2.27-.27C8.23,16,14.91,9.32,21.59,2.64c.41-.41.89-.68,1.5-.48.2.07.34.2.48.34,1.7,1.77,3.48,3.48,5.18,5.25,3.41,3.48,6.88,6.88,10.29,10.36,1.57,1.57,3.14,3.14,4.63,4.7.41.41.48.82.34,1.29-.14.48-.48.75-.95.82-.48.07-.82-.14-1.16-.41-2.32-2.39-4.7-4.7-7.02-7.09-4.02-4.02-8.04-8.11-12.06-12.13.14-.14,0-.2-.14-.34Z"/>
    <path class="cls-1" d="M22.75,24.04c-.2.07-.34.27-.48.41-6.34,6.34-12.61,12.61-18.95,18.95-.27.27-.61.55-1.02.55-.48,0-.89-.2-1.09-.68s-.14-.89.14-1.29c.14-.14.27-.27.41-.41,6.61-6.61,13.22-13.22,19.83-19.83.95-.95,1.43-.95,2.39,0,2.32,2.32,4.57,4.63,6.88,6.95,3.54,3.61,7.16,7.16,10.7,10.77.75.75,1.57,1.5,2.32,2.32.2.2.41.48.41.82,0,.55-.2,1.02-.68,1.23-.41.2-1.02.14-1.36-.2l-2.59-2.59c-2.45-2.45-4.91-4.98-7.36-7.43-3-3-6-6.07-9-9.06-.2-.14-.34-.34-.55-.48Z"/>
    <path class="cls-1" d="M22.75,14.57c-.2.07-.34.2-.48.34-6.34,6.34-12.68,12.68-19.02,19.02-.34.34-.75.68-1.36.48-.89-.27-1.16-1.23-.61-1.98.14-.2.34-.34.55-.55,6.61-6.61,13.15-13.15,19.77-19.77.75-.75,1.36-.75,2.18,0,.82.82,1.64,1.7,2.45,2.52,1.29,1.23,2.52,2.52,3.75,3.75,1.64,1.64,3.27,3.27,4.91,4.91,2.93,3,5.93,6,8.86,9,.41.41.55.95.34,1.43s-.68.75-1.23.68c-.34,0-.61-.2-.82-.48-2.45-2.52-4.98-4.98-7.43-7.5-2.59-2.59-5.11-5.18-7.7-7.77-1.23-1.23-2.45-2.52-3.68-3.75-.14-.07-.27-.27-.48-.34Z"/>
    <path class="cls-1" d="M119.88,26.29c.2.14.34.07.48.07h8.04c.55,0,1.02-.07,1.57-.14,1.23-.2,2.18-.75,2.86-1.84.07-.07.14-.14.14-.2.2-.07.34-.07.61,0-.61,1.7-1.23,3.34-1.84,5.04h-15.95c-.14-.34-.07-.61.2-.89,2.11-1.98,4.23-3.95,6.2-6.13,1.98-2.18,3.88-4.43,5.25-7.09.61-1.29,1.09-2.73,1.16-4.16.14-2.45-.82-4.77-3.14-5.93-2.11-1.09-5.11-.48-6.82,1.36-.61.68-1.02,1.43-1.36,2.25-.07.14-.07.34-.2.48-.14.07-.34.07-.55,0,.14-1.02.34-2.04.82-3,1.02-2.39,2.73-3.95,5.32-4.43,3.95-.75,7.5,1.09,8.86,4.57.75,1.91.55,3.88-.2,5.79-.82,2.18-2.11,4.09-3.61,5.86-2.32,2.79-4.84,5.45-7.43,8.04-.14.14-.27.2-.41.34Z"/>
    <path class="cls-1" d="M140.6,5.23c-.14-.14-.2-.27-.2-.41s.14-.14.2-.2c1.98-.95,4.02-1.98,6-2.93.27-.14.55-.2.82-.14.14.2.07.41.07.55v23.58c0,.48.07.95.07,1.43.07.68.55,1.16,1.29,1.36.68.2,1.36.14,2.04.34.07.14.07.27,0,.48h-10.02c-.14-.14-.07-.27-.07-.48.48-.2,1.02-.14,1.57-.27,1.29-.2,1.84-.75,1.84-2.11s.07-2.66.07-3.95v-12.13c0-1.29,0-2.66-.14-3.95-.07-.48-.14-.89-.41-1.23-.41-.48-.89-.55-1.5-.48-.55.07-1.09.34-1.64.55Z"/>
    <path class="cls-1" d="M94.79,52.05c-.07.27-.2.2-.41.2h-5.86c-.14,0-.34.07-.41-.14.07-.2.2-.14.34-.14h.55c.75-.07,1.16-.55,1.29-1.36.07-.2.07-.41.07-.61v-11.38c-.07-1.23-.55-1.7-1.77-1.7-.14,0-.34.07-.41-.07,0-.2.2-.14.34-.14,2.25,0,4.43-.07,6.68,0,1.43.07,2.73.41,3.75,1.5,1.16,1.23,1.36,2.59.95,4.16-.41,1.5-1.43,2.39-2.93,2.73-1.29.34-2.66.2-3.95-.07-.07,0-.14-.07-.27-.07h-.14c-.14.14-.07.27-.07.48v4.23c0,.34.07.75.07,1.09.14.75.61,1.23,1.43,1.23.27-.07.55-.14.75.07ZM92.54,44.21c1.84.55,3.2.55,4.36-.95.95-1.23.82-3.54-.2-4.77-.95-1.16-2.79-1.43-4.16-.82,0,2.18,0,4.36,0,6.54Z"/>
    <path class="cls-1" d="M81.23,51.98c.34-.07.61-.14.89-.2.55-.2.82-.61.68-1.16-.27-1.29-.95-2.45-1.43-3.61h-6.27c-.48,1.16-1.09,2.32-1.43,3.54-.14.55.14,1.02.68,1.16.34.14.75.14,1.09.27.07.2,0,.27-.2.27h-4.5c-.07,0-.07-.07-.07-.07-.07-.2.07-.27.2-.34.89-.14,1.36-.75,1.7-1.43.48-.95.89-1.91,1.29-2.86,1.57-3.68,3.14-7.29,4.7-10.97.07-.2.07-.48.41-.48.2.07.2.27.27.41,1.77,4.23,3.54,8.52,5.32,12.75.2.48.41.89.61,1.29.34.75.95,1.16,1.77,1.29.14,0,.2,0,.34.14.07.2-.07.27-.27.27h-5.52c-.07,0-.27,0-.27-.27ZM81.09,46.19c-.95-2.18-1.84-4.29-2.73-6.41h-.14c-.89,2.11-1.84,4.23-2.73,6.41h5.59Z"/>
    <path class="cls-1" d="M130.44,36.17c.41.89.75,1.84,1.16,2.79,1.5,3.61,3,7.22,4.5,10.77.14.27.27.55.41.82.34.75.95,1.23,1.77,1.36.14,0,.2,0,.34.14.07.2-.14.27-.27.27h-5.52c-.14,0-.27,0-.27-.27.2-.14.41-.14.61-.14.75-.2,1.09-.61.95-1.36-.34-1.23-.89-2.32-1.36-3.48h-6.13s-.07,0-.07.07c-.55,1.16-1.16,2.32-1.43,3.54-.14.55.14.95.68,1.16.34.07.68.14,1.02.2.07.2-.07.27-.2.27h-4.5s-.07,0-.07-.07c-.14-.2.07-.27.2-.34,1.02-.14,1.5-.82,1.84-1.64.95-1.91,1.7-3.95,2.59-5.93,1.09-2.59,2.18-5.18,3.34-7.77-.07-.2,0-.48.41-.41ZM129.69,39.78h-.14c-.89,2.11-1.84,4.23-2.79,6.41h5.59c-.89-2.18-1.77-4.29-2.66-6.41Z"/>
    <path class="cls-1" d="M68.55,36.17c.2,0,.27.2.27.34.07,1.43.2,2.86.27,4.29,0,.2.14.34,0,.55-.27.07-.27-.14-.34-.27-.27-.82-.68-1.64-1.23-2.32-.82-1.09-1.98-1.7-3.27-1.84-1.91-.2-3.61.27-4.84,1.84-.75.95-1.16,2.11-1.36,3.34-.34,1.84-.34,3.68.2,5.45.75,2.66,3.07,4.02,5.52,4.09,2.25,0,3.75-1.02,5.04-2.73.07-.14.2-.27.27-.41l.07-.07c.14-.07.2,0,.27.07v.07c-1.09,1.91-2.59,3.41-4.84,3.75-4.91.89-8.45-2.11-9.06-6.47-.34-2.52.14-4.91,1.77-6.88,1.36-1.7,3.14-2.66,5.32-2.86,1.43-.14,2.79.14,4.09.75,1.02.48,1.29.41,1.84-.68q-.07.07,0,0Z"/>
    <path class="cls-1" d="M122.74,36.58c.14,1.16.14,2.25.2,3.34,0,.07,0,.14-.07.14s-.07,0-.14.07c-.14-.14-.14-.34-.2-.55-.27-1.36-1.02-2.04-2.39-2.11-.89-.07-1.77,0-2.66,0-.14.14-.07.34-.07.48v12.2c0,.27.07.61.14.89.14.61.68,1.02,1.43,1.02q.48,0,.61.2c-.2.2-6.13.27-6.54.07,0-.2.14-.2.27-.2h.48c.82-.07,1.36-.55,1.43-1.36.14-1.43.07-2.86.07-4.29v-8.18c0-.2,0-.41-.14-.68-1.09,0-2.25-.14-3.34.14-1.02.27-1.5,1.09-1.7,2.11q-.07.2-.2.41c-.2-.27-.14-2.73.07-3.48,4.23-.2,8.45-.2,12.75-.2Z"/>
    <path class="cls-1" d="M139.5,52.05c.14-.2.34-.14.55-.14,1.16,0,1.64-.41,1.77-1.57.07-.41.07-.89.07-1.29v-9.54c0-.48,0-.89-.07-1.36-.07-.89-.68-1.29-1.7-1.36-.2,0-.41.07-.55-.14.27-.2,6.68-.2,7.02,0-.27.2-.61.14-.89.2-.27.07-.48.07-.75.14-.89.27-1.02,1.02-1.02,1.77v10.91c0,.2,0,.41.07.61.14.61.41.89,1.09.89,1.5,0,3,.14,4.5-.07,1.02-.14,1.77-.75,2.32-1.57.27-.41.55-.95.75-1.43.07-.14.07-.34.34-.2-.41,1.36-.89,2.73-1.29,4.02-.2.14-.34.14-.55.14h-11.18c-.2.2-.48.34-.48,0Z"/>
    <path class="cls-1" d="M101.68,36.72c.34-.2,6.34-.2,6.61,0-.07.2-.2.14-.34.14-.34,0-.61.07-.89.14-.55.2-.82.55-.89,1.09-.07.41-.14.89-.14,1.29v10.09c0,.48.07.89.07,1.36.07.68.75,1.16,1.57,1.16q.41,0,.61.2c-.2.14-5.79.27-6.41.14-.14,0-.2-.07-.2-.2.14-.2.34-.07.55-.07,1.02,0,1.5-.41,1.64-1.43.07-.27.07-.55.07-.82v-11.25c-.14-1.16-.61-1.57-1.77-1.64-.14-.14-.34-.07-.48-.2Z"/>
  </g>
</svg>