<svg width="154" height="54" viewBox="0 0 154 54" fill="none" xmlns="http://www.w3.org/2000/svg">
<g opacity="0.6">
<path d="M43.7633 15.4998C44.9329 14.2824 46.3427 13.3243 47.902 12.687C49.4616 12.0497 51.1363 11.7472 52.8189 11.7989C54.4921 11.7422 56.1583 12.0412 57.7089 12.6764C59.2594 13.3116 60.6593 14.2688 61.8169 15.4852C64.0892 18.0966 65.3417 21.4486 65.3417 24.9189C65.3417 28.3889 64.0892 31.741 61.8169 34.3524C60.6656 35.5711 59.2718 36.5319 57.7264 37.1723C56.1809 37.8124 54.5183 38.1174 52.8478 38.0677C51.1637 38.1192 49.4881 37.8154 47.9282 37.1753C46.3683 36.5355 44.9594 35.5739 43.7919 34.3524C41.5024 31.7495 40.2385 28.394 40.2385 24.9189C40.2385 21.4435 41.5024 18.0882 43.7919 15.4852L43.7633 15.4998ZM59.8902 17.2559C58.9762 16.2907 57.8771 15.5223 56.6589 14.9973C55.4411 14.4723 54.1295 14.2016 52.8044 14.2016C51.4793 14.2016 50.1677 14.4723 48.9499 14.9973C47.7317 15.5223 46.6323 16.2907 45.7186 17.2559C43.9287 19.4106 42.9481 22.1291 42.9481 24.937C42.9481 27.7446 43.9287 30.4632 45.7186 32.618C46.6372 33.5749 47.7381 34.3358 48.9553 34.8557C50.1728 35.3752 51.4817 35.6432 52.8044 35.6432C54.1268 35.6432 55.436 35.3752 56.6532 34.8557C57.8707 34.3358 58.9716 33.5749 59.8902 32.618C61.6632 30.4554 62.6327 27.7397 62.6327 24.937C62.6327 22.1339 61.6632 19.4185 59.8902 17.2559Z" fill="white"/>
<path d="M104.411 36.6019C104.068 36.6019 103.74 36.4651 103.498 36.2216C103.255 35.9778 103.119 35.6475 103.119 35.303V13.976C103.119 13.6315 103.255 13.3011 103.498 13.0575C103.74 12.8139 104.068 12.677 104.411 12.677C104.754 12.677 105.083 12.8137 105.327 13.057C105.57 13.3005 105.708 13.6308 105.71 13.976V35.3175C105.704 35.6601 105.565 35.9868 105.322 36.227C105.079 36.4675 104.752 36.6019 104.411 36.6019Z" fill="white"/>
<path d="M112.066 12.2346V5.35533C112.065 5.06547 112.157 4.78303 112.329 4.55022C112.501 4.31738 112.743 4.14668 113.019 4.06366C113.219 4.00245 113.431 3.98934 113.638 4.02538C113.844 4.06143 114.04 4.1456 114.208 4.27115C114.376 4.3967 114.513 4.56017 114.607 4.74843C114.702 4.9367 114.751 5.14455 114.751 5.35533V12.2346H121.541C121.706 12.2346 121.87 12.2674 122.023 12.3314C122.176 12.3952 122.314 12.4889 122.431 12.6069C122.547 12.7249 122.64 12.865 122.703 13.019C122.765 13.1731 122.797 13.338 122.796 13.5044C122.796 13.8393 122.664 14.1605 122.428 14.3972C122.193 14.634 121.874 14.7671 121.541 14.7671H114.787V30.6664C114.859 33.8663 118.582 35.4702 121.05 35.4702C122.618 35.5148 124.151 35.0007 125.379 34.0188C125.64 33.8027 125.971 33.6906 126.309 33.7039C126.647 33.7171 126.968 33.8552 127.212 34.0914C127.365 34.234 127.484 34.4097 127.56 34.605C127.637 34.8005 127.668 35.0109 127.652 35.2201C127.636 35.4295 127.573 35.6323 127.468 35.8141C127.363 35.9955 127.219 36.1507 127.046 36.2682C125.153 37.5394 122.905 38.1699 120.631 38.068C116.583 38.068 112.11 35.6007 112.11 30.6736V12.2346H112.066Z" fill="white"/>
<path d="M132.428 15.4998C133.598 14.2824 135.008 13.3243 136.567 12.687C138.127 12.0497 139.801 11.7472 141.484 11.7989C143.157 11.7422 144.824 12.0412 146.374 12.6764C147.925 13.3116 149.324 14.2688 150.482 15.4852C152.75 18.0986 154 21.4501 154 24.9189C154 28.3877 152.75 31.7389 150.482 34.3524C149.33 35.5787 147.932 36.5458 146.381 37.1898C144.83 37.8341 143.161 38.1406 141.484 38.0894C139.8 38.1412 138.124 37.8371 136.564 37.1973C135.005 36.5572 133.596 35.5956 132.428 34.3741C130.134 31.7733 128.867 28.4172 128.867 24.9406C128.867 21.464 130.134 18.1078 132.428 15.507V15.4998ZM148.555 17.2559C147.642 16.2907 146.542 15.5223 145.324 14.9973C144.106 14.4723 142.795 14.2016 141.47 14.2016C140.144 14.2016 138.833 14.4723 137.615 14.9973C136.397 15.5223 135.298 16.2907 134.384 17.2559C132.594 19.4106 131.613 22.1291 131.613 24.937C131.613 27.7446 132.594 30.4632 134.384 32.618C135.303 33.5749 136.403 34.3358 137.621 34.8557C138.838 35.3752 140.147 35.6432 141.47 35.6432C142.792 35.6432 144.101 35.3752 145.319 34.8557C146.536 34.3358 147.637 33.5749 148.555 32.618C150.328 30.4554 151.298 27.7397 151.298 24.937C151.298 22.1339 150.328 19.4185 148.555 17.2559Z" fill="white"/>
<path d="M92.7573 16.6681C92.4291 16.2332 92.0747 15.8188 91.6964 15.4272C90.5232 14.1985 89.1065 13.2315 87.5375 12.5889C85.9689 11.9464 84.2833 11.6426 82.5902 11.6973C80.8926 11.6487 79.2037 11.9552 77.63 12.5972C76.0562 13.2392 74.6322 14.2029 73.4482 15.4272C71.1246 18.058 69.8414 21.4545 69.8414 24.9733C69.8414 28.4918 71.1246 31.8883 73.4482 34.5192C73.5853 34.6569 73.7296 34.7805 73.8668 34.911L74.1049 35.1434C75.731 36.5872 77.734 37.5338 79.8773 37.8717C80.7739 38.0428 81.6849 38.1281 82.5975 38.1257C84.2683 38.1757 85.9306 37.8705 87.476 37.2303C89.0218 36.5899 90.4156 35.6292 91.5665 34.4104C92.002 33.9451 92.4025 33.4478 92.7645 32.9229V36.7979C92.7259 40.0584 91.9176 42.6683 90.34 44.6275C88.762 46.587 86.405 47.5544 83.2686 47.5303C81.9185 47.5734 80.5762 47.3094 79.3418 46.7579C78.1073 46.2061 77.0125 45.3812 76.1394 44.3445C75.9191 44.0841 75.6102 43.915 75.2727 43.8707C74.9351 43.8267 74.5937 43.9102 74.314 44.1052L74.2058 44.1778C74.0832 44.2601 73.9789 44.3671 73.8993 44.4919C73.8195 44.6163 73.7661 44.7562 73.7423 44.9026C73.7188 45.0488 73.7251 45.1986 73.7616 45.3423C73.7978 45.4861 73.8632 45.6205 73.9533 45.738C74.5183 46.4514 75.1732 47.0879 75.9013 47.6318C78.0468 49.1694 80.6355 49.9548 83.2686 49.8668C87.2805 49.8668 90.2966 48.6574 92.317 46.2386C94.3373 43.8198 95.3141 40.6171 95.2466 36.6309V24.8606C95.3225 21.9307 94.4485 19.0551 92.7573 16.6681ZM89.7556 32.7122C88.8256 33.6784 87.7123 34.4466 86.4812 34.971C85.2504 35.4957 83.9271 35.766 82.5902 35.766C81.2534 35.766 79.9303 35.4957 78.6992 34.971C77.4684 34.4466 76.3549 33.6784 75.4252 32.7122C73.6115 30.5318 72.6179 27.7797 72.6179 24.9369C72.6179 22.0943 73.6115 19.342 75.4252 17.1615C76.3504 16.1873 77.4621 15.4118 78.6938 14.8819C79.9252 14.3521 81.2509 14.0789 82.5902 14.0789C83.9298 14.0789 85.2555 14.3521 86.4869 14.8819C87.7186 15.4118 88.8304 16.1873 89.7556 17.1615C91.5509 19.3505 92.5324 22.0995 92.5324 24.9369C92.5324 27.7743 91.5509 30.5233 89.7556 32.7122Z" fill="white"/>
<path d="M4.30052 25.6296C6.67565 25.6296 8.60107 23.6933 8.60107 21.3049C8.60107 18.9163 6.67565 16.9799 4.30052 16.9799C1.92542 16.9799 0 18.9163 0 21.3049C0 23.6933 1.92542 25.6296 4.30052 25.6296Z" fill="white"/>
<path d="M19.1505 7.32166C21.459 7.32537 23.7289 7.91774 25.7481 9.04339C27.767 10.169 29.4691 11.7912 30.6954 13.7583C30.9136 14.1054 31.2529 14.3582 31.6465 14.4669C32.0404 14.5756 32.4602 14.5325 32.8243 14.346C33.0295 14.2432 33.2115 14.0985 33.3583 13.921C33.5048 13.7436 33.6133 13.5374 33.6766 13.3156C33.7395 13.0937 33.7561 12.861 33.7248 12.6324C33.6937 12.4038 33.6154 12.1842 33.4951 11.9877C31.9075 9.44424 29.6801 7.36777 27.038 5.96842C24.3959 4.56904 21.4331 3.89647 18.4495 4.01871C15.466 4.14097 12.5675 5.05373 10.0474 6.66465C7.52735 8.27553 5.47517 10.5274 4.09861 13.1922H4.29341C5.40393 13.1925 6.50227 13.4247 7.51882 13.8744C8.73943 11.8737 10.4494 10.221 12.4857 9.07392C14.5219 7.92679 16.8165 7.3235 19.1505 7.32166Z" fill="white"/>
<path d="M32.5859 28.1118C32.2288 27.9315 31.8189 27.8884 31.4325 27.99C31.0465 28.0913 30.7099 28.3306 30.4859 28.6633C29.2389 30.5438 27.5485 32.085 25.5655 33.1495C23.5824 34.2142 21.3683 34.769 19.1207 34.7645C16.8728 34.7603 14.6609 34.197 12.682 33.1248C10.7031 32.0528 9.01853 30.5049 7.77839 28.6196C6.71883 29.1298 5.56163 29.4022 4.38701 29.4179C5.80655 31.9582 7.85023 34.09 10.3227 35.6096C12.7952 37.1288 15.6139 37.9853 18.5095 38.0965C21.4047 38.208 24.2804 37.5706 26.8611 36.2454C29.4417 34.9206 31.6414 32.9521 33.2495 30.5282C33.3809 30.3314 33.4686 30.1086 33.5075 29.8751C33.546 29.6415 33.5346 29.4022 33.4737 29.1735C33.4128 28.9445 33.304 28.7314 33.1549 28.5485C33.0054 28.3652 32.8188 28.2163 32.6076 28.1118H32.5859Z" fill="white"/>
<path d="M104.389 4.01263C104.642 3.98162 104.9 4.00787 105.142 4.08948C105.384 4.17106 105.605 4.30599 105.789 4.48434C106.129 4.86277 106.308 5.36051 106.286 5.87031C106.294 6.11611 106.251 6.36079 106.16 6.58917C106.069 6.81758 105.933 7.02486 105.76 7.19827C105.579 7.37478 105.364 7.51266 105.128 7.60367C104.892 7.69468 104.641 7.737 104.389 7.72802C104.024 7.72347 103.668 7.61154 103.366 7.40609C103.063 7.20062 102.827 6.91064 102.687 6.57187C102.546 6.23307 102.508 5.86036 102.576 5.49971C102.643 5.13906 102.815 4.80626 103.068 4.54238C103.24 4.36699 103.446 4.22932 103.673 4.13812C103.9 4.04696 104.144 4.00423 104.389 4.01263Z" fill="white"/>
</g>
</svg>
