<svg width="154" height="54" viewBox="0 0 154 54" fill="none" xmlns="http://www.w3.org/2000/svg">
<g opacity="0.6">
<path d="M26.7398 20.1065V23.0101H25.8214C22.9614 23.0101 21.1225 25.0138 21.1225 28.0199V34.8319H17.9563V20.3067H21.1225V24.0137C21.6342 21.8098 23.0642 20.0063 25.8214 20.0063C26.1275 20.0063 26.4337 20.0063 26.7398 20.1065ZM44.1113 20.2988L37.9206 34.8228L35.586 40.0317H32.5409L34.9772 34.6226L28.8871 20.2976H32.0338L36.3981 31.0157L40.864 20.1986H44.1113V20.2988ZM62.2641 27.5159C62.2641 32.5222 58.6114 35.0254 55.162 35.0254C52.5246 35.0254 50.5978 33.6236 50.0906 32.4221H49.9878V40.0317H46.8445V20.3067H49.989V22.6096H50.0906C50.5978 21.5082 52.5246 20.0063 55.162 20.0063C58.713 20.0063 62.2641 22.5095 62.2641 27.5159ZM59.2201 27.5159C59.2201 24.4119 56.8867 22.8099 54.5543 22.8099C52.2208 22.8099 49.8873 24.4119 49.8873 27.5159C49.8873 30.6198 52.2208 32.2218 54.5543 32.2218C56.9883 32.2218 59.2201 30.6198 59.2201 27.5159ZM69.4781 22.7371V30.6346C69.4781 31.4345 69.8836 32.1342 71.0978 32.1342C71.4016 32.1342 71.9076 32.0341 72.4135 31.8338V34.2335C71.9076 34.6328 70.8944 34.8331 70.0858 34.8331C67.8585 34.8331 66.24 33.734 66.24 31.1352V22.7371H64.2138V20.2396H66.2389V16.5406H69.3753V20.2385H72.3108V22.7382H69.477L69.4781 22.7371ZM74.9504 27.5159C74.9504 22.6096 78.7824 20.0063 82.5116 20.0063C86.3437 20.0063 90.1757 22.6096 90.1757 27.5159C90.1757 32.4221 86.3437 35.0254 82.5116 35.0254C78.7824 35.0254 74.9504 32.4221 74.9504 27.5159ZM87.0495 27.5159C87.0495 24.512 84.9319 22.8099 82.5128 22.8099C80.0925 22.8099 77.976 24.512 77.976 27.5159C77.976 30.5197 80.193 32.2218 82.5128 32.2218C84.8314 32.2218 87.0495 30.5197 87.0495 27.5159ZM102.082 20.1065V23.0101H101.162C98.3024 23.0101 96.4635 25.0138 96.4635 28.0199V34.8319H93.2984V20.3067H96.4646V24.0137C96.9752 21.8098 98.404 20.0063 101.162 20.0063C101.469 20.0063 101.775 20.0063 102.082 20.1065ZM136.433 26.3143V34.8319H133.294V26.8161C133.294 24.3107 131.877 22.9077 129.75 22.9077C127.623 22.9077 126.104 24.3107 126.104 26.8161V34.8319H122.966V20.4023H126.104V22.6074C126.915 21.3046 128.433 20.202 130.762 20.202C133.902 20.1019 136.433 22.0055 136.433 26.3143ZM145.339 28.9233L143.301 31.1272V34.8331H140.142V15H143.301V27.1199L149.517 20.309H153.287L147.275 26.8195L154 34.8331H150.434L145.339 28.9233ZM119.843 27.4009V19.9233H116.698V22.241H116.597C116.09 21.0315 114.162 19.6218 111.525 19.6218C108.076 19.6218 104.423 22.1397 104.423 27.1768C104.423 32.2139 108.075 34.7318 111.524 34.8331C111.891 34.8331 112.244 34.8035 112.581 34.75C113.216 34.362 113.917 33.7419 114.754 32.801C114.255 32.7259 113.852 32.6724 113.509 32.6257C112.304 32.4642 111.809 32.397 110.359 31.8827C109.621 31.6211 108.317 30.4582 107.926 29.3659C107.635 28.7458 107.466 28.0165 107.466 27.1768C107.466 24.0535 109.8 22.4424 112.133 22.4424C114.467 22.4424 116.8 24.0535 116.8 27.1756L116.799 27.2758C117.943 27.3145 119.014 27.3611 119.843 27.4009Z" fill="white"/>
<path d="M115.002 35.9868L114.388 35.3929L117.051 32.5188L114.182 29.8427L114.798 29.2488L118.282 32.5188L115.002 35.9868Z" fill="white" stroke="white" stroke-width="1.196" stroke-miterlimit="10"/>
<path d="M6.33 32.1012C5.61499 31.8304 4.876 31.4242 4.34831 30.8212C3.56112 29.8993 3.13087 28.7273 3.1353 27.517C3.1353 24.5132 5.25977 22.8099 7.68578 22.8099C8.89993 22.8099 10.1129 23.2104 10.9227 24.1115C11.1626 24.3505 11.3568 24.5974 11.5121 24.8488L12.0809 24.6349C12.869 24.3391 13.656 24.0421 14.4441 23.7395C13.0735 21.2852 10.3802 20.0063 7.68578 20.0063C3.84346 20.0063 0 22.6096 0 27.5159C0 32.3436 3.71896 34.9423 7.49846 35.0254C8.16093 34.4678 8.91477 33.7112 9.47673 33.1457L9.86621 32.7543C8.56412 32.7543 7.26203 32.537 6.33 32.1012Z" fill="white"/>
<path d="M9.99431 36.3725L9.37867 35.7786L12.0434 32.9045L9.17422 30.2284L9.78871 29.6333L13.2724 32.9045L9.99431 36.3725Z" fill="white" stroke="white" stroke-width="1.196" stroke-miterlimit="10"/>
</g>
</svg>
