<?xml version="1.0" encoding="UTF-8"?>
<svg id="Layer_1" data-name="Layer 1" xmlns="http://www.w3.org/2000/svg" viewBox="0 0 154 54">
  <defs>
    <style>
      .cls-1, .cls-2, .cls-3 {
        stroke-width: 0px;
      }

      .cls-1, .cls-3 {
        fill: #9a999a;
      }

      .cls-2 {
        fill: none;
      }

      .cls-3 {
        fill-rule: evenodd;
      }
    </style>
  </defs>
  <rect class="cls-2" width="154" height="54"/>
  <g>
    <g>
      <path class="cls-1" d="M141.19,30.03V13.3h5.92c1.29,0,2.36.22,3.2.67.85.45,1.49,1.06,1.91,1.85.42.78.63,1.69.63,2.72s-.21,1.92-.64,2.7c-.42.77-1.06,1.37-1.91,1.8-.85.43-1.92.65-3.2.65h-4.49v-2.17h4.26c.81,0,1.47-.12,1.98-.35.51-.23.89-.57,1.13-1.02.24-.45.36-.98.36-1.61s-.12-1.18-.37-1.64c-.24-.46-.61-.82-1.13-1.06-.51-.25-1.18-.38-2-.38h-3.15v14.56h-2.51ZM149.39,22.48l4.1,7.55h-2.85l-4.02-7.55h2.77Z"/>
      <path class="cls-1" d="M106.06,30.03V13.3h2.5v7.27h8.26v-7.27h2.51v16.72h-2.51v-7.29h-8.26v7.29h-2.5Z"/>
      <path class="cls-1" d="M89.22,30.03V13.3h5.89c1.29,0,2.35.24,3.2.71.85.47,1.48,1.12,1.9,1.94.42.82.63,1.74.63,2.76s-.21,1.95-.64,2.78c-.42.82-1.06,1.46-1.91,1.94-.85.47-1.91.71-3.19.71h-4.05v-2.14h3.83c.81,0,1.47-.14,1.98-.42.51-.29.88-.68,1.11-1.18.24-.5.36-1.06.36-1.69s-.12-1.19-.36-1.68c-.24-.49-.61-.87-1.12-1.15-.51-.28-1.17-.42-2-.42h-3.13v14.56h-2.49Z"/>
      <path class="cls-1" d="M70.04,13.3h2.84l4.33,7.6h.18l4.33-7.6h2.84l-6.01,10.16v6.57h-2.49v-6.57l-6.01-10.16Z"/>
      <path class="cls-1" d="M66.05,18.75h-2.52c-.1-.54-.28-1.02-.54-1.43-.26-.41-.59-.76-.97-1.05-.38-.29-.81-.51-1.29-.65-.47-.15-.97-.22-1.5-.22-.95,0-1.81.24-2.57.73-.75.48-1.34,1.19-1.78,2.13-.43.93-.65,2.07-.65,3.42s.22,2.5.65,3.44c.44.93,1.03,1.64,1.79,2.12.76.48,1.61.72,2.55.72.52,0,1.02-.07,1.49-.21.47-.15.9-.36,1.29-.64.38-.28.71-.63.97-1.03.27-.41.46-.89.56-1.42h2.52c-.13.83-.4,1.58-.78,2.27-.38.68-.88,1.28-1.48,1.78-.6.49-1.28.88-2.06,1.15-.77.27-1.61.41-2.53.41-1.44,0-2.71-.34-3.84-1.03-1.12-.69-2.01-1.68-2.65-2.96-.64-1.28-.96-2.81-.96-4.59s.32-3.31.97-4.59c.65-1.28,1.53-2.26,2.65-2.95,1.12-.69,2.4-1.03,3.83-1.03.88,0,1.7.13,2.46.38.77.25,1.45.62,2.06,1.11.61.48,1.11,1.08,1.51,1.78.4.7.67,1.49.81,2.39Z"/>
      <path class="cls-1" d="M125.24,20.59v9.44h10.45v-2.17h-7.96v-5.12h7.32v-2.15h-9.81Z"/>
      <path class="cls-1" d="M125.24,15.45h10.35v-2.15h-10.35v2.15Z"/>
      <path class="cls-1" d="M124.04,40.81v-6.9h1.04v6h3.12v.9h-4.16Z"/>
      <path class="cls-1" d="M116.08,40.81h-1.1l2.48-6.9h1.2l2.48,6.9h-1.1l-1.95-5.64h-.05l-1.95,5.64ZM116.27,38.11h3.58v.88h-3.58v-.88Z"/>
      <path class="cls-1" d="M107.9,34.81v-.9h5.34v.9h-2.15v6h-1.04v-6h-2.15Z"/>
      <path class="cls-1" d="M104.83,33.92v6.9h-1.04v-6.9h1.04Z"/>
      <path class="cls-1" d="M95.83,40.81v-6.9h2.46c.54,0,.98.1,1.33.29.35.2.62.46.79.8.18.34.26.72.26,1.14s-.09.81-.27,1.14c-.18.34-.44.6-.8.8-.35.2-.8.29-1.33.29h-1.69v-.88h1.6c.34,0,.61-.06.83-.18.21-.12.37-.28.46-.48.1-.2.15-.44.15-.7s-.05-.49-.15-.69c-.1-.2-.25-.36-.47-.47-.21-.11-.49-.17-.83-.17h-1.31v6h-1.04Z"/>
      <path class="cls-1" d="M87.88,40.81h-1.1l2.48-6.9h1.2l2.48,6.9h-1.1l-1.95-5.64h-.05l-1.95,5.64ZM88.06,38.11h3.58v.88h-3.58v-.88Z"/>
      <path class="cls-1" d="M84.2,36.16h-1.05c-.04-.22-.12-.42-.23-.59-.11-.17-.24-.32-.4-.43-.16-.12-.34-.21-.54-.27-.2-.06-.4-.09-.62-.09-.4,0-.75.1-1.07.3-.31.2-.56.49-.74.88-.18.39-.27.86-.27,1.41s.09,1.03.27,1.42c.18.39.43.68.74.88.31.2.67.3,1.06.3.22,0,.42-.03.62-.09.2-.06.38-.15.54-.27.16-.12.29-.26.4-.43.11-.17.19-.37.23-.59h1.05c-.06.34-.17.65-.33.94-.16.28-.36.53-.62.73-.25.2-.53.36-.86.47-.32.11-.67.17-1.05.17-.6,0-1.13-.14-1.6-.42-.47-.29-.83-.69-1.1-1.22-.27-.53-.4-1.16-.4-1.9s.14-1.37.4-1.9c.27-.53.64-.94,1.1-1.22.47-.29,1-.43,1.59-.43.37,0,.71.05,1.02.16.32.1.6.26.86.46.25.2.46.44.63.73.17.29.28.62.34.99Z"/>
      <path class="cls-3" d="M74.36,37.89h-22.61v-1.09h22.61v1.09Z"/>
      <path class="cls-3" d="M153.5,37.89h-22.61v-1.09h22.61v1.09Z"/>
    </g>
    <g>
      <path class="cls-1" d="M38.41,28.91l-11.6,11.3c-.97.95-2.53.93-3.48-.04l-3.13-3.21,3.54-3.45,1.4,1.43,8.14-7.93-7.85-8.05-1.66,1.62-.45.44-3.45,3.36-.48.47-2.1,2.04,2.11,2.16-3.54,3.44-3.83-3.93c-.95-.97-.93-2.53.05-3.48l3.87-3.77.48-.47,3.45-3.36.45-.44,3.35-3.26c.97-.95,2.53-.93,3.48.04l11.3,11.6c.95.97.93,2.53-.04,3.48Z"/>
      <path class="cls-1" d="M15.98,40.21c-.97.95-2.53.93-3.48-.04L1.2,28.57c-.95-.97-.93-2.53.05-3.48l11.6-11.3c.97-.95,2.53-.93,3.48.04l3.19,3.27-3.45,3.36-1.46-1.5-8.14,7.93,7.85,8.05,1.64-1.6h0s.39-.38.39-.38l3.54-3.44.61-.6,1.97-1.92-1.98-2.03,3.45-3.36,3.71,3.8c.95.97.93,2.53-.04,3.48l-3.65,3.56-.61.6-3.54,3.44-.39.38h0s-3.41,3.33-3.41,3.33Z"/>
    </g>
  </g>
</svg>