<?xml version="1.0" encoding="UTF-8"?>
<svg id="Layer_1" data-name="Layer 1" xmlns="http://www.w3.org/2000/svg" viewBox="0 0 154 54">
  <defs>
    <style>
      .cls-1 {
        fill: #9a999a;
      }

      .cls-1, .cls-2 {
        stroke-width: 0px;
      }

      .cls-2 {
        fill: none;
      }
    </style>
  </defs>
  <rect class="cls-2" width="154" height="54"/>
  <g>
    <g>
      <path class="cls-1" d="M89.04,31.14c-.27-.27-.38-.65-.38-1.09V11.31h1.58v18.74h10.95v1.47h-11.06c-.49-.05-.87-.16-1.09-.38Z"/>
      <path class="cls-1" d="M115.74,25.58h-9.04l-2.18,5.88h-1.74l7.68-20.21h.71c.44,0,.82.27,1.04.87l7.3,19.23h-1.69l-2.07-5.78ZM107.13,24.28h8.12l-4.03-10.79h0l-4.09,10.79Z"/>
      <path class="cls-1" d="M122.17,31.03c-.27-.27-.44-.65-.44-1.09V11.31h8.39c1.58,0,2.83.38,3.87,1.14.93.82,1.47,1.8,1.47,3.16v1.69c0,.82-.16,1.53-.49,2.18s-.82,1.14-1.36,1.53h0c.93.22,1.74.71,2.34,1.47.6.71.87,1.53.87,2.56v1.53c0,1.53-.49,2.72-1.47,3.65-.93.93-2.23,1.36-3.92,1.36h-8.12c-.49-.11-.87-.22-1.14-.54ZM130.78,20.62c.93,0,1.69-.27,2.23-.93.6-.6.87-1.47.87-2.51v-1.69c0-.87-.38-1.53-1.04-2.02-.65-.49-1.58-.82-2.72-.82h-6.76v7.9h7.36v.05h.05ZM131.21,30.05c1.14,0,2.12-.27,2.83-.93.71-.65,1.09-1.53,1.09-2.56v-1.53c0-.87-.27-1.58-.93-2.13-.65-.6-1.47-.82-2.51-.82h-8.39v8.12h7.9v-.16Z"/>
      <path class="cls-1" d="M140.53,30.16c-1.04-1.04-1.53-2.4-1.53-4.14h1.53c0,1.31.38,2.34,1.09,3.05.71.71,1.74,1.14,3,1.14h3.21c1.25,0,2.18-.27,2.94-.82.71-.6,1.09-1.31,1.09-2.18v-1.96c0-.71-.27-1.36-.82-1.91-.49-.49-1.31-.87-2.23-1.04l-5.18-.87c-1.36-.22-2.51-.71-3.21-1.53-.82-.82-1.14-1.74-1.14-2.94v-1.69c0-1.31.49-2.4,1.53-3.21s2.34-1.25,3.92-1.25h3.27c1.53,0,2.83.44,3.81,1.36s1.47,2.18,1.47,3.71h-1.58c0-1.09-.38-2.02-1.04-2.72s-1.58-.87-2.67-.87h-3.27c-1.14,0-2.12.27-2.83.82-.71.6-1.04,1.25-1.04,2.18v1.91c0,.82.27,1.36.82,1.91.49.49,1.25.87,2.18,1.04l5.12.87c1.36.22,2.56.71,3.38,1.53.82.71,1.14,1.69,1.14,2.78v1.96c0,1.31-.49,2.4-1.53,3.21s-2.4,1.25-4.09,1.25h-3.27c-1.63-.05-3.05-.54-4.09-1.58Z"/>
    </g>
    <g>
      <path class="cls-1" d="M21.64,12.07c-1.69-.71-3.65-1.09-5.83-1.09H.5v27.79c0,1.31.44,2.34,1.25,3.16s1.91,1.14,3.21,1.14h11.06c4.03,0,7.03-1.04,9.04-3.05.65-.65,1.25-1.47,1.74-2.34l-5.18-25.61ZM21.8,30.81c0,2.18-.49,3.87-1.53,5.01-1.04,1.14-2.51,1.69-4.47,1.69H6.88v-20.92h8.83c1.8,0,3.27.49,4.47,1.58,1.14,1.04,1.69,2.51,1.69,4.25-.05,0-.05,8.39-.05,8.39Z"/>
      <path class="cls-1" d="M84.25,16.48v-5.45h-18.8l-.05.49-5.12,25.5v6.1h6.32v-12.53h16.07v-5.45h-16.07v-8.66h17.65Z"/>
      <path class="cls-1" d="M62.78,10.98l-2.62,12.97-3.11,15.58c-.22,1.25-.71,2.13-1.36,2.72s-1.53.87-2.72.87h-2.62l-6.87-22.07h-.11l-6.97,22.01h-2.62c-1.04,0-1.91-.27-2.62-.82s-1.14-1.47-1.47-2.78l-1.58-8.17-3.49-17.44-.6-3h6.43l3.92,22.83h.05l6.65-21.09h2.23c.71,0,1.47.22,1.96.6.49.38,1.04,1.09,1.31,2.18l5.61,18.31h.22l3.92-22.78c.05.05,6.43.05,6.43.05Z"/>
    </g>
    <path class="cls-1" d="M103.86,34.9c1.47,0,2.83.44,3.92,1.25.87.6,1.47,1.36,2.02,2.02.44.49.87,1.09,1.36,1.47.27.22.6.38,1.04.38s.71-.16,1.04-.38c.44-.38.93-.87,1.36-1.47.6-.65,1.14-1.47,2.02-2.02,1.09-.82,2.51-1.25,3.92-1.25s2.83.44,3.92,1.25c.87.6,1.47,1.36,2.02,2.02.44.49.87,1.09,1.36,1.47.27.22.6.38,1.04.38s.71-.16,1.04-.38c.44-.38.93-.87,1.36-1.47.6-.65,1.14-1.47,2.02-2.02,1.09-.82,2.51-1.25,3.92-1.25s2.83.44,3.92,1.25c.87.6,1.47,1.36,2.02,2.02.44.49.87,1.09,1.36,1.47.27.22.6.38,1.04.38s.71-.16,1.04-.38c.44-.38.93-.87,1.36-1.47.6-.65,1.14-1.47,2.02-2.02.87-.65,1.8-1.04,2.94-1.14v3.43h0c-.44.38-.93.87-1.36,1.47-.6.65-1.14,1.47-2.02,2.02-1.09.82-2.51,1.25-3.92,1.25s-2.83-.44-3.92-1.25c-.87-.6-1.47-1.36-2.02-2.02-.44-.49-.87-1.09-1.36-1.47-.27-.22-.6-.38-1.04-.38s-.71.16-1.04.38c-.44.38-.93.87-1.36,1.47-.6.65-1.14,1.47-2.02,2.02-1.09.82-2.51,1.25-3.92,1.25s-2.83-.44-3.92-1.25c-.87-.6-1.47-1.36-2.02-2.02-.44-.49-.87-1.09-1.36-1.47-.27-.22-.6-.38-1.04-.38s-.71.16-1.04.38c-.44.38-.93.87-1.36,1.47-.6.65-1.14,1.47-2.02,2.02-1.09.82-2.51,1.25-3.92,1.25s-2.83-.44-3.92-1.25c-.87-.6-1.47-1.36-2.02-2.02-.44-.49-.87-1.09-1.36-1.47-.27-.22-.6-.38-1.04-.38s-.71.16-1.04.38c-.44.38-.93.87-1.36,1.47-.6.65-1.14,1.47-2.02,2.02-1.09.82-2.51,1.25-3.92,1.25s-2.83-.44-3.92-1.25c-.87-.6-1.47-1.36-2.02-2.02-.44-.49-.87-1.09-1.36-1.47h0v-3.43c1.09.16,2.02.49,2.94,1.14.87.6,1.47,1.36,2.02,2.02.44.49.87,1.09,1.36,1.47.27.22.6.38,1.04.38s.71-.16,1.04-.38c.44-.38.93-.87,1.36-1.47.6-.65,1.14-1.47,2.02-2.02,1.04-.82,2.34-1.25,3.81-1.25Z"/>
  </g>
</svg>