<?xml version="1.0" encoding="UTF-8"?>
<svg id="Layer_1" data-name="Layer 1" xmlns="http://www.w3.org/2000/svg" viewBox="0 0 154 54">
  <defs>
    <style>
      .cls-1 {
        fill: #9a999a;
      }

      .cls-1, .cls-2 {
        stroke-width: 0px;
      }

      .cls-2 {
        fill: none;
      }
    </style>
  </defs>
  <rect class="cls-2" width="154" height="54"/>
  <g>
    <path class="cls-1" d="M35.17,22.79v-.76c0-4.35.01-8.7-.01-13.05,0-.7.27-1.1.87-1.42,1.25-.67,2.46-1.4,3.68-2.1,1.14-.66,2.29-1.31,3.43-1.96,1.47-.84,2.15-1.21,3.33-1.91.57-.34,1.04-.64,1.36-.82s.45-.27.81-.27c.32,0,.46.09.78.28,1.55.92,3.12,1.8,4.68,2.71,1.24.72,2.47,1.46,3.7,2.19,1.24.72,2.47,1.46,3.73,2.15.45.25.57.57.57,1.03,0,3.65,0,7.3,0,10.95v3.03c.39.24.77.48,1.17.72,2.06,1.21,4.11,2.41,6.17,3.61,1.56.91,3.12,1.8,4.69,2.69.43.25.7.54.69,1.1-.02,4.82-.01,9.63-.01,14.45,0,.1,0,.19-.01.29-.24.48-.74.62-1.14.86-1.21.73-2.44,1.43-3.67,2.13-1.21.69-2.43,1.37-3.64,2.06-1.13.64-2.25,1.3-3.37,1.95-.4.23-.81.47-1.21.69-.27.15-.52.15-.82-.03-1.61-.97-3.23-1.91-4.86-2.86-1.83-1.06-3.66-2.1-5.49-3.16-.6-.35-1.2-.71-1.85-1.1-.24.11-.52.2-.76.35-1.41.81-2.81,1.64-4.22,2.45-1.21.69-2.43,1.37-3.64,2.06-1.14.65-2.28,1.32-3.42,1.98-.15.09-.3.18-.47.24-.26.1-.52.1-.78-.06-1.62-.96-3.24-1.91-4.86-2.86-1.34-.78-2.69-1.54-4.03-2.32-1.24-.72-2.48-1.44-3.72-2.15-.23-.13-.32-.33-.36-.57-.02-.15-.01-.31-.01-.47,0-4.64,0-9.28-.01-13.92,0-.62.21-1.03.74-1.32,1.15-.64,2.29-1.3,3.44-1.95,1.14-.66,2.28-1.33,3.42-1.98.92-.53,1.86-1.05,2.78-1.58.77-.44,1.54-.89,2.34-1.36ZM47.96,29.46v-13.08l-11.37-6.63c-.01,2.17-.02,4.34-.02,6.53,0,2.2,0,4.38.01,6.55,3.79,2.21,7.59,4.42,11.38,6.62ZM47.96,31.89c-3.87,2.22-7.62,4.38-11.36,6.53v13c3.85-2.19,7.61-4.36,11.36-6.53v-13ZM24.6,30.59c3.87,2.25,7.59,4.42,11.33,6.59,3.76-2.16,7.49-4.31,11.29-6.5-.19-.12-.3-.19-.41-.26-.6-.35-1.2-.7-1.81-1.05-1.22-.71-2.44-1.43-3.66-2.14-.89-.52-2.38-1.38-4.22-2.44-.51-.29-.94-.54-1.24-.71-1.57.9-4.08,2.35-5.66,3.26-1.56.9-4.07,2.35-5.63,3.25ZM48.66,15.13c.66-.39,1.33-.78,2-1.17,1.43-.82,2.86-1.63,4.29-2.44,1.49-.86,2.99-1.72,4.48-2.58.16-.09.39-.23.54-.34-3.72-2.16-7.59-4.4-11.33-6.57-3.7,2.14-7.36,4.21-11.03,6.33-.06.04-.12.08-.27.17,3.75,2.18,7.57,4.43,11.32,6.61ZM50.1,30.65c3.76,2.19,7.53,4.38,11.29,6.57,3.76-2.17,7.51-4.33,11.27-6.5-3.76-2.18-7.52-4.36-11.27-6.55-3.76,2.16-7.52,4.31-11.29,6.47ZM49.4,16.35l-.03,13.06c1.91-1.07,3.83-2.15,5.76-3.26,1.87-1.07,3.72-2.14,5.55-3.21-.03-1.93-.04-12.32-.03-13.07-1.87,1.08-3.74,2.15-5.61,3.23-1.88,1.08-3.76,2.17-5.64,3.25ZM35.17,38.38c-3.77-2.19-7.54-4.38-11.31-6.58,0,4.34.01,8.69.02,13.03,2,1.21,4.07,2.43,6.2,3.64,1.7.97,3.39,1.9,5.05,2.79.02-4.29.03-8.59.05-12.88ZM49.42,44.89c3.74,2.19,7.48,4.38,11.23,6.57,0-4.31.01-8.63.02-12.94-1.09-.76-10.81-6.36-11.25-6.47v12.84ZM62.14,51.48c3.75-2.16,7.5-4.31,11.25-6.47,0-4.34,0-8.68-.01-13.01-3.75,2.16-7.49,4.32-11.24,6.48v13.01Z"/>
    <path class="cls-1" d="M103.41,34.64c0-5.14,0-10.28,0-15.42,2.63,0,5.25,0,7.88,0l.64.02c.35.02,1.35.13,2.15.92.61.6.81,1.28.93,1.73.2.73.16,1.32.13,1.79-.05.7-.1,1.53-.67,2.3-.23.31-.47.53-.64.66.16.07.4.19.64.4.67.56.88,1.3.99,1.69.12.46.13.79.15,1.35.02.98.03,1.96-.5,2.94-.11.21-.27.49-.57.77-.52.49-1.1.65-1.46.73-.45.1-.92.13-1.38.13-2.54.01-5.09,0-7.63,0h-.66ZM105.85,32.19c.26,0,.46,0,.67,0,1.63,0,3.26,0,4.9,0,0,0,.18,0,.41,0,.27-.01.4-.02.55-.08.03-.01.27-.1.44-.31.14-.17.19-.36.22-.93.04-.64,0-.96,0-1.46,0-.41-.09-.71-.27-.91-.27-.31-.76-.37-.85-.38-.16-.02-.28-.01-.32-.01-.2.01-1.87,0-5.21,0-.1,0-.29,0-.54,0,0,1.36,0,2.72,0,4.08ZM105.86,25.66c.6,0,1.12,0,1.64,0,1.28,0,2.56-.03,3.84,0,.12,0,.42.01.72-.16.05-.03.31-.18.48-.49.09-.16.16-.36.17-1.07,0-.29,0-.68-.05-1.13-.03-.11-.13-.46-.47-.73-.41-.33-.88-.28-.97-.27-1.79,0-3.58,0-5.36,0,0,1.28,0,2.56,0,3.85Z"/>
    <path class="cls-1" d="M97.43,21.8c-2.6,0-5.2,0-7.8,0v10.26c2.59,0,5.19,0,7.8-.01,0-1.04,0-2.08,0-3.12-1.36,0-2.72,0-4.08,0,0-.86,0-1.72,0-2.58,2.18,0,4.36,0,6.54,0,0,2.04-.02,4.07-.02,6.11,0,.41-.16.97-.6,1.45-.52.56-1.24.7-1.6.74-2.82,0-5.63,0-8.45,0-.4-.05-1-.19-1.46-.66-.48-.5-.61-1.12-.61-1.44,0-3.69,0-7.38,0-11.06.01-.22.08-.96.65-1.51.42-.4.93-.53,1.06-.57.26-.07.57-.09.69-.1.35-.03.58-.02.58-.02.49,0,6.69,0,7.05,0,.25,0,.5.02.5.02.13.01.22.02.24.02.13.02.6.1,1.07.46.61.47.83,1.13.87,1.39,0,.03,0,.09.02.21.03.49.02.85.02,1.11,0,.3-.01.75,0,1.3h-2.46c0-.65,0-1.31,0-1.97Z"/>
    <path class="cls-1" d="M125.59,34.61c-.89,0-1.78,0-2.68,0l-5.94-15.41c.91,0,1.83.01,2.74.02,1.49,3.96,2.97,7.93,4.46,11.89.07,0,.14,0,.21,0,1.48-3.96,2.95-7.92,4.43-11.89.91,0,1.82.01,2.73.02-1.99,5.12-3.97,10.25-5.96,15.37Z"/>
  </g>
</svg>