<svg width="154" height="54" viewBox="0 0 154 54" fill="none" xmlns="http://www.w3.org/2000/svg">
<g opacity="0.6">
<path d="M41.8388 17.1968H42.9426V34.1017H41.8388V26.2008H31.6695V34.1017H30.5657V17.1968H31.6695V25.1955H41.8388V17.1968Z" fill="white"/>
<path d="M55.8076 22.6423H56.9832L49.7527 39.6449H48.601L50.9043 34.1257L46.0767 22.6443H47.2522L51.492 32.7533L55.8056 22.6443L55.8076 22.6423Z" fill="white"/>
<path d="M71.5398 28.385C71.5398 31.7699 68.8938 34.3949 65.6581 34.3949C63.5023 34.3949 61.6155 33.2181 60.6831 31.5007V39.6469H59.6052V22.6423H60.6831V25.2433C61.6135 23.5259 63.5263 22.3491 65.6581 22.3491C68.8938 22.3491 71.5398 24.998 71.5398 28.385ZM70.4619 28.385C70.4619 25.6363 68.2802 23.4042 65.6103 23.4042C62.9405 23.4042 60.6851 25.4648 60.6851 28.2872C60.6851 31.2812 62.9883 33.3417 65.6103 33.3417C68.2323 33.3417 70.4619 31.1336 70.4619 28.385Z" fill="white"/>
<path d="M85.4349 28.8019H75.1421C75.3632 31.5745 77.25 33.3398 79.8482 33.3398C81.5636 33.3398 83.0579 32.482 83.8908 31.1077L84.8471 31.5745C83.817 33.3417 81.9302 34.3949 79.8242 34.3949C76.6145 34.3949 74.0402 31.9654 74.0402 28.3351C74.0402 24.7048 76.6125 22.3491 79.8242 22.3491C83.036 22.3491 85.4369 24.7287 85.4369 28.3351V28.8019H85.4349ZM84.357 27.8703C84.1856 25.1476 82.3466 23.4042 79.8223 23.4042C77.2979 23.4042 75.3871 25.0718 75.1421 27.8703H84.357Z" fill="white"/>
<path d="M95.3352 22.6183L95.0662 23.6496C94.5263 23.4541 94.0123 23.4042 93.6197 23.4042C90.5315 23.4042 89.7963 27.0106 89.7485 29.6616V34.1017H88.6706V22.6443H89.7485V25.7839C90.2386 23.8451 91.5855 22.3491 93.6456 22.3491C94.1597 22.3491 94.7734 22.4229 95.3372 22.6183H95.3352Z" fill="white"/>
<path d="M96.9032 25.6862C96.9032 20.877 100.579 16.9036 105.259 16.9036C107.489 16.9036 109.499 17.7872 110.97 19.2094L110.211 19.9455C108.935 18.7427 107.196 17.9588 105.259 17.9588C101.191 17.9588 98.0051 21.4913 98.0051 25.6882C98.0051 29.885 101.191 33.3437 105.259 33.3437C107.196 33.3437 108.912 32.5838 110.185 31.381L110.944 32.117C109.497 33.5392 107.489 34.3989 105.257 34.3989C100.577 34.3989 96.9013 30.4734 96.9013 25.6882L96.9032 25.6862Z" fill="white"/>
<path d="M121.631 22.6423H122.807L115.576 39.6449H114.425L116.728 34.1257L111.9 22.6443H113.076L117.316 32.7533L121.629 22.6443L121.631 22.6423Z" fill="white"/>
<path d="M124.279 28.3351C124.279 24.7287 126.999 22.3491 130.282 22.3491C131.753 22.3491 133.125 22.8896 134.154 23.7234L133.492 24.5093C132.659 23.8471 131.508 23.4042 130.282 23.4042C127.563 23.4042 125.357 25.367 125.357 28.3351C125.357 31.3032 127.563 33.3398 130.282 33.3398C131.508 33.3398 132.635 32.9229 133.492 32.2367L134.177 33.0226C133.123 33.8803 131.777 34.3969 130.28 34.3969C126.997 34.3969 124.277 31.9674 124.277 28.3371L124.279 28.3351Z" fill="white"/>
<path d="M137.218 34.1017V16.4109H138.296V34.0997H137.218V34.1017Z" fill="white"/>
<path d="M153 28.8019H142.707C142.928 31.5745 144.815 33.3398 147.413 33.3398C149.129 33.3398 150.623 32.482 151.456 31.1077L152.412 31.5745C151.382 33.3417 149.495 34.3949 147.389 34.3949C144.179 34.3949 141.605 31.9654 141.605 28.3351C141.605 24.7048 144.177 22.3491 147.389 22.3491C150.601 22.3491 153.002 24.7287 153.002 28.3351V28.8019H153ZM151.922 27.8703C151.751 25.1476 149.912 23.4042 147.387 23.4042C144.863 23.4042 142.952 25.0718 142.707 27.8703H151.922Z" fill="white"/>
<path d="M13.3332 22.8499L13.3292 21.0048V20.2429H13.3113C9.3404 20.2429 6.1087 23.4782 6.1087 27.4536C6.1087 31.429 9.3404 34.6644 13.3113 34.6644C15.232 34.6644 17.0391 33.9144 18.4019 32.55C19.5715 31.3792 20.3067 29.8333 20.476 28.1957H22.321C22.1477 30.33 21.2192 32.3386 19.705 33.8546C17.9975 35.564 15.7261 36.5055 13.3113 36.5055C10.8965 36.5055 8.62512 35.564 6.91762 33.8546C5.21012 32.1451 4.2697 29.8712 4.2697 27.4536C4.2697 25.0361 5.21012 22.7621 6.91762 21.0527C8.62512 19.3433 10.8965 18.4018 13.3113 18.4018H13.3312V17.6398H13.3113C10.6933 17.6398 8.23062 18.6611 6.37967 20.5141C4.52871 22.3672 3.50859 24.8326 3.50859 27.4536C3.50859 30.0746 4.52871 32.5401 6.37967 34.3931C8.23062 36.2462 10.6933 37.2675 13.3113 37.2675C15.9293 37.2675 18.392 36.2462 20.2429 34.3931C22.0939 32.5401 23.114 30.0746 23.114 27.4536V27.4337H22.3529L19.7667 27.4317H19.7468V27.6312C19.6512 31.0879 16.7642 33.9004 13.3113 33.9004C9.85843 33.9004 6.8718 31.0082 6.8718 27.4536C6.8718 24.1744 9.31849 21.4257 12.5681 21.0507L12.5721 22.9097C10.3187 23.2768 8.66099 25.2715 8.71279 27.5593C8.74068 28.7881 9.24676 29.931 10.1354 30.7828C10.9981 31.6086 12.1218 32.0593 13.3093 32.0593C13.3452 32.0593 13.381 32.0593 13.4169 32.0593C14.6044 32.0314 15.7201 31.5527 16.5629 30.7109C17.4615 29.8113 17.9397 28.6185 17.9118 27.3499C17.8978 26.7395 17.7663 26.1491 17.5193 25.5926C18.125 24.9324 18.1031 23.925 17.4715 23.2907C16.8399 22.6564 15.8317 22.6365 15.1722 23.2429C14.6004 22.9895 13.9648 22.8539 13.3332 22.8519V22.8499ZM16.8757 26.0254C17.0471 26.4523 17.1387 26.9011 17.1487 27.3639C17.1965 29.4822 15.5149 31.2455 13.399 31.2934C13.3691 31.2934 13.3392 31.2934 13.3093 31.2934C11.2332 31.2934 9.52171 29.6278 9.47389 27.5394C9.44998 26.5141 9.82854 25.5407 10.5359 24.7987C11.2432 24.0567 12.1995 23.6338 13.2216 23.6099C13.2515 23.6099 13.2794 23.6099 13.3093 23.6099C13.7974 23.6099 14.2776 23.7016 14.7359 23.8851C14.5087 24.4955 14.6582 25.1837 15.1164 25.6425C15.5767 26.1032 16.2641 26.2508 16.8737 26.0234L16.8757 26.0254ZM15.3934 24.4676C15.3934 24.2262 15.487 23.9988 15.6564 23.8293C15.8257 23.6597 16.0628 23.566 16.2939 23.566C16.5251 23.566 16.7562 23.6538 16.9315 23.8293C17.2822 24.1804 17.2822 24.7528 16.9315 25.1059C16.5809 25.4589 16.009 25.457 15.6564 25.1059C15.487 24.9363 15.3934 24.7089 15.3934 24.4676Z" fill="white"/>
<path d="M26.4154 25.1717C25.8157 24.5713 24.8394 24.5713 24.2397 25.1717C23.9488 25.4629 23.7894 25.8499 23.7894 26.2608C23.7894 26.6737 23.9488 27.0607 24.2397 27.3499C24.435 27.5454 24.682 27.685 24.953 27.7528C24.8773 30.7508 23.6679 33.5713 21.546 35.6936C19.424 37.816 16.4234 39.1085 13.3133 39.1085C10.2031 39.1085 7.27825 37.8958 5.08061 35.6936C2.88098 33.4915 1.66959 30.5653 1.66959 27.4516C1.66959 24.3379 2.88098 21.4097 5.08061 19.2096C7.22445 17.0633 10.0736 15.8526 13.1021 15.7987C13.1559 16.1159 13.3033 16.4031 13.5285 16.6285C13.8194 16.9197 14.2059 17.0793 14.6163 17.0793C15.0268 17.0793 15.4133 16.9197 15.7042 16.6285C16.3039 16.0281 16.3039 15.0507 15.7042 14.4503C15.1045 13.8499 14.1282 13.8499 13.5285 14.4503C13.3631 14.6159 13.2396 14.8133 13.1639 15.0367C9.90625 15.0746 6.84589 16.3652 4.54067 18.673C2.23544 20.9809 0.906494 24.1345 0.906494 27.4516C0.906494 30.7688 2.19758 33.8885 4.54067 36.2342C6.88375 38.58 9.99989 39.8725 13.3133 39.8725C16.6267 39.8725 19.7428 38.58 22.0859 36.2342C24.3513 33.9663 25.6404 30.9523 25.7161 27.7508C25.9831 27.681 26.2261 27.5434 26.4174 27.3519C27.0171 26.7515 27.0171 25.7741 26.4174 25.1737L26.4154 25.1717ZM25.8775 26.8113C25.73 26.9589 25.5348 27.0387 25.3276 27.0387C25.1204 27.0387 24.9251 26.9569 24.7777 26.8113C24.4748 26.5081 24.4748 26.0135 24.7777 25.7103C24.9291 25.5587 25.1283 25.4829 25.3276 25.4829C25.5268 25.4829 25.7261 25.5587 25.8775 25.7103C26.1803 26.0135 26.1803 26.5081 25.8775 26.8113ZM13.8393 15.5374C13.8393 15.33 13.921 15.1345 14.0664 14.9869C14.2139 14.8393 14.4071 14.7595 14.6163 14.7595C14.8255 14.7595 15.0188 14.8413 15.1662 14.9869C15.3137 15.1325 15.3934 15.328 15.3934 15.5374C15.3934 15.7468 15.3117 15.9403 15.1662 16.0879C15.0208 16.2355 14.8235 16.3153 14.6163 16.3153C14.4091 16.3153 14.2139 16.2335 14.0664 16.0879C13.919 15.9403 13.8393 15.7468 13.8393 15.5374Z" fill="white"/>
</g>
</svg>
