<svg width="154" height="54" viewBox="0 0 154 54" fill="none" xmlns="http://www.w3.org/2000/svg">
<g opacity="0.6">
<path fill-rule="evenodd" clip-rule="evenodd" d="M8.59295 23.9359L19.2395 34.7736L29.7724 24.0517L38.4085 32.8428L28.3745 43.0569L25.7932 40.4993L33.3147 32.8428L29.7724 29.2369L19.2395 39.9589L8.59295 29.1212L5.0938 32.6832L12.7297 40.4562L10.1484 43.0138L0 32.6832L8.59295 23.9359Z" fill="white"/>
<path fill-rule="evenodd" clip-rule="evenodd" d="M29.8157 29.1209L19.1691 18.2833L8.6363 29.0052L0.000160217 20.2141L10.0342 10L12.6154 12.5576L5.09395 20.2141L8.6363 23.82L19.1691 13.098L29.8157 23.9357L33.3149 20.3737L25.679 12.6007L28.2602 10.0431L38.4086 20.3737L29.8157 29.1209Z" fill="white"/>
<path fill-rule="evenodd" clip-rule="evenodd" d="M17.5798 42.8023V35.9741H21.0565V42.8023H17.5798Z" fill="white"/>
<path fill-rule="evenodd" clip-rule="evenodd" d="M17.5798 17.0827V10.2546H21.0565V17.0827H17.5798Z" fill="white"/>
<path d="M50.1239 18.0614H46.6595V35.5043H50.1239V18.0614Z" fill="white"/>
<path d="M67.6967 22.6644C66.1219 22.6644 64.62 23.3428 63.869 24.8206C63.0937 23.3428 61.6402 22.6644 59.9443 22.6644C58.418 22.6644 57.2552 23.2458 56.6495 24.2876L56.2862 22.9067H53.1367V35.5043H56.5284V28.4544C56.5284 26.5891 57.4975 25.6927 58.9268 25.6927C60.2835 25.6927 61.2041 26.5406 61.2041 28.5998V35.5043H64.4746V28.5271C64.523 26.5648 65.5405 25.6927 66.8729 25.6927C68.2539 25.6927 69.1503 26.5406 69.1503 28.4302V35.5285H72.5661V27.7519C72.5661 24.2633 70.2162 22.6644 67.6967 22.6644Z" fill="white"/>
<path d="M89.8173 22.6644C88.2422 22.6644 86.7406 23.3428 85.9898 24.8206C85.2142 23.3428 83.7604 22.6644 82.0649 22.6644C80.5386 22.6644 79.3758 23.2458 78.7702 24.2876L78.4067 22.9067H75.2574V35.5043H78.649V28.4544C78.649 26.5891 79.618 25.6927 81.0474 25.6927C82.4041 25.6927 83.3247 26.5406 83.3247 28.5998V35.5043H86.5954V28.5271C86.6432 26.5648 87.6614 25.6927 88.9939 25.6927C90.3743 25.6927 91.2711 26.5406 91.2711 28.4302V35.5285H94.687V27.7519C94.687 24.2633 92.3371 22.6644 89.8173 22.6644Z" fill="white"/>
<path d="M105.639 22.9067V29.8111C105.639 31.6765 104.767 32.7909 103.095 32.8151C101.496 32.8636 100.479 31.9188 100.479 29.9565V22.9067H97.2571V30.3925C97.2571 33.6146 99.1218 35.7465 102.345 35.7465C103.846 35.7465 104.936 35.0681 105.59 34.1233L105.76 35.5043H108.861V22.9067H105.639Z" fill="white"/>
<path d="M118.814 22.6644C116.925 22.6644 115.665 23.3669 115.01 24.4087L114.816 22.9067H111.667V35.5043H115.059V28.842C115.059 26.807 116.028 25.5716 117.821 25.5716C119.468 25.5716 120.462 26.6375 120.462 28.7209V35.5043H123.878V28.0184C123.878 24.7963 122.036 22.6644 118.814 22.6644Z" fill="white"/>
<path d="M138.71 29.0117C138.71 25.1597 136.214 22.6644 132.459 22.6644C128.705 22.6644 126.186 25.2808 126.186 29.2055C126.186 33.1544 128.705 35.7707 132.484 35.7707C135.658 35.7707 138.056 34.0022 138.613 31.3858H135.197C134.81 32.476 133.817 33.0332 132.581 33.0332C130.958 33.0332 129.649 31.9915 129.601 30.126H138.71V29.0117ZM132.459 25.3051C133.937 25.3051 135.173 26.153 135.318 27.8972H129.625C129.771 26.153 131.006 25.3051 132.459 25.3051Z" fill="white"/>
<path d="M140.035 22.9067V25.8622H141.973V35.5043H145.389V25.8622H148.272V22.9067H145.389V21.6227C145.389 20.7263 145.63 20.048 147.012 20.048H148.272V17.2862H146.261C143.087 17.2862 141.973 18.8367 141.973 21.2835V22.9067H140.035Z" fill="white"/>
<path d="M150.511 20.9686H153.951L154 17.2862H150.56L150.511 20.9686ZM150.56 35.5043H153.951V22.9067H150.56V35.5043Z" fill="white"/>
</g>
</svg>
