<svg width="154" height="54" viewBox="0 0 154 54" fill="none" xmlns="http://www.w3.org/2000/svg">
<g opacity="0.6" clip-path="url(#clip0_899_5053)">
<path d="M117.126 23.7244C118.018 22.757 119.289 22.2259 120.597 22.2448C121.603 22.2259 122.589 22.5863 123.348 23.2502V22.3966H126.06V32.355H123.348V31.5204C122.589 32.1843 121.603 32.5257 120.597 32.5068C119.27 32.5068 118.018 31.9567 117.126 30.9893C116.178 30.0219 115.647 28.732 115.666 27.3853C115.647 26.0196 116.178 24.6918 117.126 23.7244ZM118.207 27.3853C118.207 28.0871 118.473 28.77 118.966 29.2632C119.459 29.7753 120.142 30.0598 120.844 30.0598C121.546 30.0598 122.229 29.7753 122.722 29.2632C123.234 28.77 123.518 28.1061 123.518 27.4043C123.518 26.7024 123.234 26.0196 122.722 25.5264C122.229 25.0142 121.565 24.7107 120.844 24.7107C120.123 24.6918 119.44 24.9763 118.966 25.5074C118.473 26.0006 118.207 26.6645 118.207 27.3853Z" fill="#818181"/>
<path d="M131.713 23.7244C132.661 22.7571 133.97 22.2259 135.317 22.2449C136.341 22.2259 137.347 22.5484 138.181 23.1554C139.016 23.7434 139.661 24.5591 140.021 25.5265L137.536 26.2473C137.347 25.792 137.043 25.4126 136.645 25.1281C136.247 24.8436 135.791 24.6918 135.298 24.7108C134.596 24.6918 133.932 24.9953 133.458 25.5265C132.965 26.0386 132.699 26.7215 132.699 27.4233C132.699 28.1251 132.965 28.808 133.458 29.3012C133.932 29.8133 134.596 30.1168 135.298 30.0979C135.791 30.0979 136.265 29.9651 136.645 29.6806C137.024 29.396 137.328 29.0167 137.536 28.5804L140.021 29.3012C139.661 30.2496 139.016 31.0652 138.181 31.6533C137.347 32.2603 136.322 32.5638 135.298 32.5638C133.932 32.5827 132.605 32.0327 131.656 31.0463C130.689 30.0979 130.139 28.789 130.158 27.4233C130.158 26.0007 130.727 24.6729 131.713 23.7244Z" fill="#818181"/>
<path d="M145.256 23.7244C147.115 21.8844 150.074 21.7327 152.085 23.4019C152.996 24.1417 153.64 25.185 153.868 26.3231C153.944 26.6835 154.001 27.0439 154.001 27.4043C154.001 27.7267 153.963 28.0682 153.887 28.3717H146.413C146.546 28.8838 146.85 29.3391 147.305 29.6426C147.76 29.9461 148.31 30.0978 148.86 30.0788C149.714 30.1168 150.568 29.8133 151.213 29.2252L153.584 29.9081C153.147 30.7238 152.483 31.3687 151.649 31.767C150.795 32.2223 149.847 32.4689 148.879 32.4689C147.514 32.4878 146.186 31.9377 145.237 30.9514C144.27 30.003 143.72 28.6941 143.739 27.3284C143.701 26.0006 144.251 24.6728 145.256 23.7244ZM146.413 26.3231H151.231C151.08 25.8489 150.776 25.4126 150.359 25.1281C149.923 24.8056 149.373 24.6159 148.822 24.6349C148.272 24.6159 147.722 24.7866 147.267 25.1281C146.869 25.4126 146.565 25.8489 146.413 26.3231Z" fill="#818181"/>
<path d="M89.1457 27.3665C89.1457 25.0714 87.2868 23.2314 85.0106 23.2314L88.7094 19.5326C88.7094 21.8278 90.5684 23.6677 92.8446 23.6677L89.1457 27.3665Z" fill="#818181"/>
<path d="M81.3119 19.5322C81.3119 17.237 79.453 15.3971 77.1768 15.3971L80.8756 11.6982C80.8756 13.9934 82.7345 15.8334 85.0107 15.8334L81.3119 19.5322Z" fill="#818181"/>
<path d="M89.1457 43.0539C89.1457 40.7587 87.2868 38.9188 85.0106 38.9188L88.7094 35.2199C88.7094 37.5151 90.5684 39.355 92.8446 39.355L89.1457 43.0539Z" fill="white"/>
<path d="M81.3119 35.2007C81.3119 32.9055 79.453 31.0656 77.1768 31.0656L80.8756 27.3667C80.8756 29.6619 82.7345 31.5018 85.0107 31.5018L81.3119 35.2007Z" fill="white"/>
<path d="M3.16241 22.3406H1V32.3749H3.16241V22.3406Z" fill="white"/>
<path d="M11.3187 22.3406L14.6951 30.3073V22.3406H16.8006V32.3749H13.4622L9.97197 24.1615V32.3939H7.86647V22.3595H11.3187V22.3406Z" fill="white"/>
<path d="M22.2256 23.0608C23.0033 22.4918 23.9518 22.2073 24.9002 22.2262C26.209 22.2452 27.4799 22.6056 28.5801 23.2885V25.4888C27.992 25.1094 27.3661 24.8059 26.7212 24.5783C26.1331 24.3697 25.5261 24.2559 24.9002 24.2369C24.5018 24.2179 24.0845 24.3128 23.7241 24.5024C23.4396 24.6163 23.2499 24.9008 23.2499 25.2043C23.2499 25.5078 23.4396 25.7354 23.8 25.9061C24.3501 26.1337 24.9191 26.3044 25.5072 26.4372L25.7158 26.4752C25.7727 26.4941 25.8296 26.5131 25.8865 26.5131C27.9731 27.0442 29.0353 28.0495 29.0353 29.567C29.0732 30.4396 28.637 31.2742 27.8972 31.7294C27.1005 32.2416 26.1711 32.5071 25.2226 32.4882H25.1088C23.5724 32.4502 22.3205 31.995 21.3531 31.1414V28.9411C22.605 29.9654 23.8949 30.4965 25.2606 30.4965C25.6589 30.5155 26.0573 30.4206 26.4366 30.2689C26.7212 30.1551 26.8919 29.8895 26.9108 29.586C26.9108 29.3015 26.7212 29.0359 26.3418 28.8273C25.9624 28.5996 25.2796 28.372 24.2932 28.1254C22.2067 27.6133 21.1444 26.6459 21.1444 25.2422C21.0875 24.3507 21.5238 23.554 22.2256 23.0608Z" fill="white"/>
<path d="M33.0382 22.3595H35.2006V28.3156C35.1816 28.8846 35.4092 29.4537 35.8076 29.852C36.1869 30.2503 36.7181 30.478 37.2681 30.459C37.8182 30.459 38.3493 30.2503 38.7287 29.852C39.146 29.4537 39.3736 28.8846 39.3547 28.3156V22.3595H41.4981V28.3156C41.5171 29.4347 41.0808 30.5159 40.2841 31.2936C39.4874 32.0903 38.3873 32.5266 37.2492 32.4886C36.13 32.5076 35.0299 32.0903 34.2332 31.3126C33.4175 30.5349 32.9813 29.4537 33.0002 28.3156V22.3595H33.0382Z" fill="white"/>
<path d="M46.0693 32.3935V22.3592H50.6407C51.5891 22.3402 52.4996 22.7196 53.1635 23.3835C53.8274 24.0094 54.2067 24.9009 54.2067 25.8114C54.2067 26.4564 54.0171 27.0823 53.6567 27.6134C53.3152 28.1446 52.8031 28.5619 52.1961 28.8084L54.3395 32.3745H51.9116L49.9199 29.074H48.2317V32.3745H46.0693V32.3935ZM50.6407 27.2151C51.4563 27.2151 52.1202 26.5702 52.1202 25.7545V25.7356C52.1202 25.3372 51.9685 24.9768 51.6839 24.6923C51.3994 24.4078 51.02 24.256 50.6407 24.275H48.2127V27.2151H50.6407Z" fill="white"/>
<path d="M95.464 24.7492C94.0224 23.3076 91.6892 23.3076 90.2287 24.7492C89.5079 25.47 89.1475 26.4184 89.1475 27.3668C89.1475 29.662 87.2885 31.5019 85.0123 31.5019C84.0639 31.5019 83.1155 31.8624 82.3947 32.5832C81.6739 33.304 81.3135 34.2524 81.3135 35.2008C81.3135 37.496 79.4546 39.3359 77.1783 39.3359C74.8832 39.3359 73.0432 37.477 73.0432 35.2008C73.0432 34.2524 72.6828 33.304 71.962 32.5832C71.2412 31.8624 70.2928 31.5019 69.3444 31.5019C67.0492 31.5019 65.2092 29.643 65.2092 27.3668C65.2092 25.0716 67.0681 23.2317 69.3444 23.2317C70.2928 23.2317 71.2412 22.8713 71.962 22.1505C72.6828 21.4297 73.0432 20.4813 73.0432 19.5328C73.0432 17.2377 74.9021 15.3977 77.1783 15.3977C78.1268 15.3977 79.0752 15.0373 79.796 14.3165C81.2376 12.8749 81.2376 10.5418 79.796 9.0812C78.3544 7.6396 76.0213 7.6396 74.5607 9.0812C73.8399 9.80201 73.4795 10.7504 73.4795 11.6989C73.4795 13.994 71.6206 15.834 69.3444 15.834C68.3959 15.834 67.4475 16.1944 66.7267 16.9152C66.0059 17.636 65.6455 18.5844 65.6455 19.5328C65.6455 21.828 63.7866 23.668 61.5104 23.668C60.562 23.668 59.6135 24.0284 58.8927 24.7492C57.4511 26.1908 57.4511 28.5239 58.8927 29.9845C59.6135 30.7053 60.562 31.0657 61.5104 31.0657C63.8056 31.0657 65.6455 32.9246 65.6455 35.2008C65.6455 36.1492 66.0059 37.0976 66.7267 37.8185C67.4475 38.5393 68.3959 38.8997 69.3444 38.8997C71.6395 38.8997 73.4795 40.7586 73.4795 43.0348C73.4795 43.9832 73.8399 44.9316 74.5607 45.6524C76.0023 47.094 78.3354 47.094 79.796 45.6524C80.5168 44.9316 80.8772 43.9832 80.8772 43.0348C80.8772 40.7396 82.7361 38.8997 85.0123 38.8997C85.9607 38.8997 86.9092 38.5393 87.63 37.8185C88.3508 37.0976 88.7112 36.1492 88.7112 35.2008C88.7112 32.9056 90.5701 31.0657 92.8463 31.0657C93.7947 31.0657 94.7432 30.7053 95.464 29.9845C96.9056 28.5429 96.9056 26.1908 95.464 24.7492Z" fill="#818181"/>
<path d="M111.15 24.7492C110.429 24.0284 109.48 23.668 108.532 23.668C106.237 23.668 104.397 21.8091 104.397 19.5328C104.397 18.5844 104.036 17.636 103.316 16.9152C102.595 16.1944 101.646 15.834 100.698 15.834C98.4027 15.834 96.5628 13.9751 96.5628 11.6989C96.5628 10.7504 96.2023 9.80201 95.4815 9.0812C94.0399 7.6396 91.7068 7.6396 90.2462 9.0812C89.5254 9.80201 89.165 10.7504 89.165 11.6989C89.165 13.994 87.3061 15.834 85.0299 15.834C84.0815 15.834 83.1331 16.1944 82.4123 16.9152C81.6915 17.636 81.3311 18.5844 81.3311 19.5328C81.3311 21.828 79.4722 23.668 77.1959 23.668C76.2475 23.668 75.2991 24.0284 74.5783 24.7492C73.1367 26.1908 73.1367 28.5239 74.5783 29.9845C76.0199 31.4261 78.353 31.4261 79.8136 29.9845C80.5344 29.2637 80.8948 28.3152 80.8948 27.3668C80.8948 25.0716 82.7537 23.2317 85.0299 23.2317C85.9783 23.2317 86.9268 22.8713 87.6476 22.1505C88.3684 21.4297 88.7288 20.4813 88.7288 19.5328C88.7288 17.2377 90.5877 15.3977 92.8639 15.3977C95.1591 15.3977 96.999 17.2566 96.999 19.5328C96.999 20.4813 97.3594 21.4297 98.0802 22.1505C98.801 22.8713 99.7495 23.2317 100.698 23.2317C102.993 23.2317 104.833 25.0906 104.833 27.3668C104.833 29.662 102.974 31.5019 100.698 31.5019C99.7495 31.5019 98.801 31.8624 98.0802 32.5832C97.3594 33.304 96.999 34.2524 96.999 35.2008C96.999 37.496 95.1401 39.3359 92.8639 39.3359C91.9155 39.3359 90.9671 39.6963 90.2462 40.4171C88.8046 41.8587 88.8046 44.1919 90.2462 45.6524C91.6879 47.094 94.021 47.094 95.4815 45.6524C96.2023 44.9316 96.5628 43.9832 96.5628 43.0348C96.5628 40.7396 98.4217 38.8997 100.698 38.8997C101.646 38.8997 102.595 38.5393 103.316 37.8185C104.036 37.0976 104.397 36.1492 104.397 35.2008C104.397 32.9056 106.256 31.0657 108.532 31.0657C109.48 31.0657 110.429 30.7053 111.15 29.9845C112.591 28.5429 112.591 26.1908 111.15 24.7492Z" fill="white"/>
</g>
<defs>
<clipPath id="clip0_899_5053">
<rect width="154" height="54" fill="white"/>
</clipPath>
</defs>
</svg>
