<?xml version="1.0" encoding="UTF-8"?>
<svg id="Layer_1" data-name="Layer 1" xmlns="http://www.w3.org/2000/svg" viewBox="0 0 154 54">
  <defs>
    <style>
      .cls-1 {
        isolation: isolate;
      }

      .cls-2 {
        fill: #9a999a;
      }

      .cls-2, .cls-3 {
        stroke-width: 0px;
      }

      .cls-3 {
        fill: none;
      }
    </style>
  </defs>
  <g id="MAGNUS_CAPITAL" data-name="MAGNUS CAPITAL">
    <g>
      <g class="cls-1">
        <path class="cls-2" d="M9.86,19.97h3.24c.21-.04.42.1.45.32,0,.05,0,.1,0,.14v13.16c.04.21-.09.42-.31.46-.05,0-.1.01-.15,0h-1.8c-.21.04-.42-.09-.46-.3-.01-.05-.01-.1,0-.16v-10.38h-.09l-2.23,7.32c-.05.26-.28.45-.55.44h-1.85c-.26,0-.49-.18-.54-.44l-2.28-7.35h-.09v10.41c.01.13-.02.26-.09.36-.11.08-.24.12-.37.1H.97c-.21.04-.42-.09-.46-.3-.01-.05-.01-.1,0-.16v-13.16c-.04-.21.1-.42.31-.46.05,0,.1,0,.15,0h3.26c.2-.02.37.12.41.31l2.32,7.73h.13l2.35-7.73c.04-.19.22-.32.41-.31Z"/>
        <path class="cls-2" d="M17.88,34.05h-2.1c-.26,0-.35-.15-.26-.46l3.46-13.16c.08-.29.36-.48.66-.46h2.92c.31-.04.59.16.66.46l3.45,13.16c.09.31,0,.46-.26.46h-2.1c-.12.02-.24-.02-.33-.1-.08-.11-.12-.23-.13-.36l-.61-2.41h-4.27l-.61,2.41c0,.13-.06.26-.14.36-.09.07-.2.11-.32.1ZM21.06,22.62l-1.58,6.35h3.24l-1.56-6.33-.1-.02Z"/>
        <path class="cls-2" d="M34.33,34.05h-2.32c-1.15,0-2.04-.31-2.67-.92-.63-.61-.94-1.5-.94-2.65v-6.94c0-1.16.31-2.04.94-2.65.73-.65,1.69-.98,2.67-.92h2.32c.97-.06,1.93.28,2.65.93.66.71,1,1.67.94,2.64v.65c0,.32-.15.48-.46.48h-1.86c-.31,0-.46-.16-.46-.48v-.52c.03-.36-.07-.71-.29-1-.28-.23-.63-.33-.99-.3h-1.42c-.35-.03-.7.07-.97.3-.23.28-.35.64-.31,1v6.68c-.04.36.07.71.3.99.27.22.62.33.97.3h1.42c.36.04.71-.07.99-.3.22-.28.32-.64.29-.99v-1.38c.02-.12-.07-.23-.18-.24-.02,0-.04,0-.06,0h-1.3c-.21.05-.42-.09-.47-.3-.01-.05-.01-.1,0-.16v-1.49c-.04-.21.09-.42.3-.46.05-.01.1-.01.16,0h3.84c.24-.03.47.13.5.38,0,.04,0,.08,0,.13v3.66c.06.97-.28,1.93-.94,2.64-.72.66-1.68.99-2.65.93Z"/>
        <path class="cls-2" d="M42.83,34.05h-1.82c-.21.04-.42-.09-.46-.3-.01-.05-.01-.1,0-.16v-13.16c-.04-.21.1-.42.31-.46.05,0,.1,0,.15,0h1.64c.25-.03.49.09.61.31l4.42,8.3h.09v-8.15c-.04-.21.1-.42.31-.46.05,0,.1,0,.15,0h1.82c.21-.04.42.09.46.3.01.05.01.1,0,.16v13.16c.04.21-.09.42-.3.46-.05.01-.1.01-.16,0h-1.6c-.3.01-.58-.16-.7-.44l-4.38-8.15h-.09v8.13c.04.21-.09.42-.31.46-.05.01-.1.01-.15,0Z"/>
        <path class="cls-2" d="M60.58,19.97h1.84c.32,0,.48.15.48.44v10.07c.06.97-.28,1.93-.95,2.64-.73.66-1.68.99-2.66.93h-2.41c-1.15,0-2.04-.31-2.67-.92-.63-.61-.94-1.5-.94-2.65v-10.05c-.04-.21.1-.42.31-.46.05,0,.1,0,.15,0h1.86c.21-.04.42.09.46.3.01.05.01.1,0,.16v9.92c-.04.36.07.71.29.99.27.22.63.33.98.3h1.51c.36.04.72-.07,1-.3.22-.28.33-.64.3-.99v-9.93c-.04-.21.1-.42.31-.46.05,0,.1,0,.15,0Z"/>
        <path class="cls-2" d="M65.29,30.46v-.44c-.04-.21.09-.42.3-.46.05-.01.1-.01.16,0h1.86c.21-.04.42.1.46.31,0,.05,0,.1,0,.15v.17c-.04.41.07.82.33,1.14.35.24.78.35,1.2.31h1.03c.42.04.84-.08,1.17-.33.27-.35.39-.79.34-1.23v-.26c.02-.39-.18-.77-.51-.97-.39-.23-.83-.37-1.28-.39-.55-.06-1.09-.15-1.63-.27-.56-.12-1.11-.28-1.65-.48-.55-.23-1-.65-1.28-1.17-.37-.68-.55-1.45-.52-2.22v-.78c-.06-.98.29-1.94.97-2.65.73-.65,1.69-.97,2.67-.9h2.19c.99-.07,1.97.27,2.71.94.67.71,1.02,1.67.96,2.65v.41c.04.21-.09.42-.31.46-.05.01-.1.01-.15,0h-1.86c-.21.04-.42-.09-.46-.3-.01-.05-.01-.1,0-.16v-.13c.05-.42-.06-.84-.33-1.17-.35-.25-.78-.36-1.2-.31h-.85c-.43-.05-.87.07-1.22.34-.21.23-.32.67-.32,1.33v.41c0,.69.6,1.08,1.8,1.17,1.13.08,2.25.33,3.31.74.54.25.99.66,1.28,1.17.37.66.55,1.4.52,2.16v.75c.06.98-.29,1.94-.97,2.65-.73.68-1.7,1.03-2.69.97h-2.39c-.98.06-1.95-.28-2.68-.94-.68-.71-1.02-1.67-.96-2.65Z"/>
      </g>
      <g class="cls-1">
        <path class="cls-2" d="M88.91,34.05h-2.54c-.92.06-1.83-.27-2.51-.9-.62-.68-.94-1.58-.89-2.5v-7.3c-.06-.92.26-1.83.89-2.51.68-.62,1.59-.94,2.51-.88h2.54c.92-.06,1.82.26,2.5.88.63.68.96,1.58.9,2.51v1.05c.02.19-.11.37-.31.39-.03,0-.06,0-.08,0h-1.38c-.25,0-.39-.13-.39-.39v-.96c0-1.08-.52-1.63-1.56-1.62h-1.91c-1.04,0-1.56.54-1.56,1.62v7.12c0,1.08.52,1.62,1.56,1.62h1.91c1.04,0,1.56-.54,1.56-1.62v-.97c0-.26.13-.39.39-.39h1.38c.19-.02.37.11.39.31,0,.03,0,.06,0,.08v1.05c.15,1.72-1.12,3.24-2.84,3.4-.19.02-.38.02-.57,0Z"/>
        <path class="cls-2" d="M95.79,34.05h-1.56c-.2,0-.28-.13-.22-.39l3.81-13.34c.05-.24.28-.41.53-.39h2.19c.25-.03.48.14.52.39l3.81,13.34c.05.25-.02.39-.24.39h-1.56c-.1,0-.2-.02-.27-.08-.07-.09-.11-.19-.12-.29l-.83-2.85h-4.82l-.83,2.85c-.07.25-.19.37-.4.37ZM99.38,22.07l-1.93,7.01h3.96l-1.96-7.01h-.08Z"/>
        <path class="cls-2" d="M108.78,34.05h-1.38c-.18.03-.35-.1-.37-.28,0-.04,0-.08,0-.12v-13.33c-.04-.18.08-.35.26-.39.04,0,.08,0,.12,0h5.22c.92-.05,1.82.27,2.5.89.63.68.96,1.58.9,2.51v2.3c.05.92-.27,1.82-.9,2.5-.67.63-1.58.95-2.5.9h-3.2c-.18,0-.26.07-.26.22v4.42c.03.18-.1.35-.28.37-.03,0-.06,0-.09,0ZM109.41,27.15h2.91c1.04,0,1.56-.54,1.56-1.62v-2.08c0-1.08-.52-1.63-1.56-1.62h-2.91c-.16,0-.24.07-.24.22v4.89c-.02.14.06.22.24.22Z"/>
        <path class="cls-2" d="M120.83,20.34v13.34c.04.18-.08.35-.26.39-.04,0-.08,0-.12,0h-1.38c-.18.03-.35-.1-.37-.28,0-.04,0-.08,0-.12v-13.34c-.04-.18.08-.35.26-.39.04,0,.08,0,.12,0h1.38c.18-.03.35.1.37.28,0,.04,0,.08,0,.12Z"/>
        <path class="cls-2" d="M127.99,34.05h-1.37c-.26,0-.39-.13-.39-.39v-11.62c.02-.1-.06-.2-.16-.22-.02,0-.04,0-.06,0h-2.74c-.26,0-.39-.12-.39-.37v-1.12c0-.25.13-.39.39-.39h8.13c.27,0,.39.13.39.39v1.12c0,.25-.13.37-.39.37h-2.76c-.16,0-.24.07-.24.22v11.63c.03.18-.09.35-.27.38-.05,0-.09,0-.14,0Z"/>
        <path class="cls-2" d="M134.41,34.05h-1.56c-.21,0-.28-.13-.22-.39l3.81-13.34c.05-.24.28-.41.52-.39h2.18c.25-.03.49.14.53.39l3.81,13.34c.06.25,0,.39-.24.39h-1.56c-.1.01-.2-.02-.27-.08-.07-.09-.11-.19-.12-.29l-.83-2.85h-4.83l-.83,2.85c-.04.25-.18.37-.38.37ZM138,22.07l-1.93,7.01h3.97l-1.96-7.01h-.08Z"/>
        <path class="cls-2" d="M153.12,34.05h-7.1c-.18.04-.36-.08-.39-.26,0-.04,0-.09,0-.13v-13.33c-.04-.18.08-.36.26-.39.04,0,.09,0,.13,0h1.38c.18-.03.35.1.37.28,0,.04,0,.08,0,.12v11.59c0,.14.09.22.26.22h5.09c.25,0,.37.13.37.39v1.14c.03.18-.09.35-.27.38-.03,0-.07,0-.1,0Z"/>
      </g>
    </g>
  </g>
  <rect class="cls-3" y="0" width="154" height="54"/>
</svg>