<svg width="154" height="54" viewBox="0 0 154 54" fill="none" xmlns="http://www.w3.org/2000/svg">
<g opacity="0.6">
<path d="M5.11924 18.477L6.37076 18.6047C6.70279 18.6303 6.85604 18.4259 6.7028 18.1194L6.19197 16.9701C6.06427 16.6636 5.80885 16.638 5.60453 16.919L4.86383 17.9406C4.71059 18.1961 4.81275 18.4515 5.11924 18.477Z" fill="white"/>
<path d="M2.61561 20.8521L7.90263 21.3885L13.6238 23.8149C13.8537 23.917 14.1091 23.8404 14.2624 23.6361C14.2624 23.6105 14.2879 23.6105 14.3135 23.585C14.4667 23.3807 14.4412 23.0997 14.2624 22.9209L9.84375 18.3746L7.77492 13.7517C7.13639 12.3469 5.88487 12.2192 4.96539 13.4707L1.46626 18.2724C0.546776 19.524 1.08314 20.6733 2.61561 20.8521ZM3.48401 18.0426L5.29743 15.5395C5.75717 14.901 6.42124 14.9521 6.75327 15.6928L8.03033 18.5278C8.36237 19.2685 7.97925 19.8049 7.18747 19.7027L4.09699 19.3707C3.27968 19.2941 3.02427 18.6811 3.48401 18.0426Z" fill="white"/>
<path d="M17.5831 34.9508L17.2 34.2867C17.0979 34.1079 16.9446 34.1079 16.8424 34.2867L16.4593 34.9508C16.3572 35.1296 16.4338 35.2573 16.6381 35.2573H17.4044C17.5831 35.2573 17.6853 35.104 17.5831 34.9508Z" fill="white"/>
<path d="M19.6254 35.3089L18.0673 32.4738L17.2756 28.7704C17.25 28.6171 17.1223 28.515 16.9691 28.515C16.9435 28.515 16.9435 28.515 16.918 28.515C16.7647 28.515 16.637 28.6171 16.6115 28.7704L15.8708 32.5505L14.2873 35.1812C13.802 35.9985 14.1851 36.6626 15.1046 36.6881L18.7314 36.7392C19.702 36.7903 20.0851 36.1518 19.6254 35.3089ZM17.9396 35.8453L16.0496 35.8197C15.5643 35.8197 15.36 35.4622 15.6154 35.0535L16.586 33.4444C16.8414 33.0357 17.2245 33.0357 17.4799 33.4699L18.3994 35.1046C18.6293 35.5132 18.4249 35.8708 17.9396 35.8453Z" fill="white"/>
<path d="M14.5684 16.74C14.5428 16.2802 14.1342 15.9482 13.6744 15.9737C13.2147 15.9993 12.8827 16.4079 12.9082 16.8677C12.9337 17.3274 13.3424 17.6594 13.8021 17.6339C14.2874 17.5828 14.6195 17.1742 14.5684 16.74Z" fill="white"/>
<path d="M15.7941 22.5379C15.9984 22.4613 16.1261 22.2569 16.075 22.0526L15.4876 19.1665C16.4326 18.4768 16.9179 17.2253 16.5603 15.9483C16.2283 14.85 15.2832 14.0327 14.1594 13.905C12.2438 13.6751 10.6858 15.2331 10.8391 17.0465C10.9668 18.579 12.2694 19.7284 13.7763 19.7284L15.2066 22.3336C15.3343 22.5379 15.5642 22.6145 15.7941 22.5379ZM11.9373 16.9444C11.8607 15.9483 12.6014 15.0543 13.6231 14.9777C14.6192 14.9011 15.5131 15.6418 15.5897 16.6634C15.6664 17.6595 14.9257 18.5535 13.904 18.6301C12.9079 18.7067 12.014 17.966 11.9373 16.9444Z" fill="white"/>
<path d="M17.9917 12.8069V12.858L17.9662 13.0112L17.9406 13.2666L17.9151 13.5987L17.8896 14.0073L17.8385 14.4671L17.7874 14.9779L17.7363 15.5398L17.6852 16.1272L17.6342 16.7402L17.5831 17.3532L17.532 17.9406L17.4809 18.5281L17.4298 19.09C17.3787 19.7541 17.3021 20.3926 17.2255 21.0567C17.1489 21.6697 17.0723 22.2571 17.0723 22.5381C17.0723 22.7424 17.1233 22.6913 17.3532 22.7168C17.3021 22.7679 17.4298 22.7168 17.3532 22.7168C17.5831 22.5125 17.5831 22.3848 17.8129 21.593C17.9917 20.929 18.145 20.1883 18.3238 19.5497L18.477 18.9878L18.6303 18.4004L18.7835 17.7874L18.9368 17.1489L19.09 16.5359L19.2432 15.9229L19.3965 15.3354L19.5497 14.7991L19.6774 14.3138L19.7796 13.9051L19.8562 13.5731L19.9073 13.3177L19.9329 13.19V13.1645L21.1844 12.7558C21.6186 12.6025 22.0783 12.1173 22.1805 11.6575L22.5381 9.94627C22.6402 9.48653 22.4359 8.848 22.0783 8.54151L20.8523 7.36661C20.4948 7.06012 19.8562 6.90687 19.422 7.06012L17.7619 7.62202C17.3277 7.77527 16.8679 8.26055 16.7658 8.72029L16.4082 10.4316C16.306 10.8913 16.5103 11.5298 16.8679 11.8363L17.9917 12.8069ZM17.532 10.0229L17.6342 9.48653C17.7363 9.02679 18.1705 8.54151 18.6303 8.38826L19.1666 8.20947C19.6008 8.05622 20.2649 8.20947 20.6225 8.51596L21.0311 8.87354C21.3887 9.18003 21.593 9.81856 21.4909 10.2783L21.3632 10.8147C21.261 11.2744 20.8268 11.7597 20.3671 11.9129L19.8307 12.0917C19.3965 12.245 18.7324 12.0917 18.3748 11.7852L17.9662 11.4277C17.6342 11.1212 17.4298 10.4826 17.532 10.0229Z" fill="white"/>
<path d="M33.3664 20.2647C33.2642 20.1881 33.111 20.1626 32.9833 20.2137L32.5746 20.3669C32.4725 20.418 32.3448 20.5457 32.3448 20.6479L32.2681 21.0821C32.2426 21.2098 32.3192 21.363 32.3958 21.4396L32.7279 21.7206C32.83 21.7972 32.9833 21.8227 33.111 21.7717L33.5196 21.6184C33.6218 21.5673 33.7495 21.4396 33.7495 21.3375L33.8261 20.9033C33.8517 20.7756 33.7751 20.6223 33.6984 20.5457L33.3664 20.2647Z" fill="white"/>
<path d="M19.1148 10.993C19.217 11.0952 19.4213 11.1207 19.549 11.0952L20.0343 10.942C20.162 10.8909 20.2897 10.7632 20.3408 10.6099L20.443 10.0991C20.4685 9.97139 20.4174 9.76706 20.3153 9.69044L19.9321 9.33287C19.83 9.2307 19.6257 9.20516 19.4979 9.2307L18.9871 9.40949C18.8594 9.46057 18.7317 9.58828 18.6806 9.74152L18.5785 10.2523C18.5529 10.3801 18.604 10.5844 18.7062 10.661L19.1148 10.993Z" fill="white"/>
<path d="M31.5278 37.6838C31.0425 37.0708 29.9953 36.6621 29.2291 36.7898L27.2879 37.0963L27.2113 37.0197L27.007 36.8154L26.7005 36.4833L26.2918 36.0491L25.8065 35.5128L25.2446 34.8998L24.6317 34.2357L23.9931 33.5461L23.3546 32.831L22.6905 32.1158L22.052 31.4262L21.439 30.7621L20.8771 30.1491L20.3663 29.6128L19.9321 29.153L19.6 28.7955C19.4723 28.6422 19.3191 28.489 19.1914 28.3357C19.0892 28.2336 19.0126 28.1314 18.9104 28.0548C18.7827 27.9271 18.6295 27.7994 18.4252 27.7738H18.3996C18.2208 27.7738 18.1697 27.9271 18.1953 28.0803C18.1953 28.1825 18.2464 28.2846 18.2719 28.3613C18.3741 28.5656 18.4762 28.7444 18.5784 28.9487L24.3507 38.9608L23.3291 41.5916C23.0481 42.3323 23.2269 43.4305 23.7122 44.018L25.5511 46.2911C26.0364 46.9041 27.0836 47.3128 27.8498 47.1851L30.736 46.7253C31.5022 46.5976 32.3706 45.908 32.6516 45.1673L33.6988 42.46C33.9797 41.7193 33.8009 40.621 33.3156 40.008L31.5278 37.6838ZM31.7832 42.6898L31.4511 43.5582C31.1702 44.2989 30.3018 44.9885 29.5356 45.1163L28.6161 45.2695C27.8498 45.3972 26.8026 44.9885 26.3174 44.3756L25.7299 43.6604C25.2446 43.0474 25.0659 41.9491 25.3468 41.2085L25.6788 40.3401C25.9598 39.5994 26.8282 38.9098 27.5944 38.782L28.5139 38.6288C29.2801 38.5011 30.3273 38.9098 30.8126 39.5227L31.4001 40.2379C31.9109 40.8509 32.0641 41.9491 31.7832 42.6898Z" fill="white"/>
<path d="M35.6397 19.2685L34.3116 18.1447C33.954 17.8382 33.2899 17.736 32.8557 17.8892L31.2211 18.5022C30.7869 18.6555 30.3527 19.1663 30.2761 19.626L30.0462 20.9031C29.893 20.9542 29.7653 21.0053 29.612 21.0308C29.4332 21.0819 29.2544 21.133 29.1012 21.2096C28.8969 21.2862 28.6925 21.3373 28.4882 21.4139C28.2583 21.4905 28.0285 21.5672 27.7986 21.6438C27.5432 21.7204 27.3133 21.797 27.0579 21.8737C26.8025 21.9503 26.5471 22.0525 26.2661 22.1291C25.9852 22.2057 25.7298 22.3079 25.4488 22.3845C25.1678 22.4611 24.8869 22.5633 24.6059 22.6654C24.325 22.7676 24.044 22.8442 23.7631 22.9464C23.4821 23.0486 23.2012 23.1252 22.9202 23.2273C22.6393 23.304 22.3839 23.4061 22.1029 23.4828C21.8475 23.5594 21.5921 23.6615 21.3367 23.7382C21.0813 23.8148 20.8514 23.8914 20.596 23.968C20.4172 24.0191 20.2639 24.0702 20.0852 24.1213C20.0085 24.1468 19.9064 24.1724 19.8297 24.1979C19.7276 24.2234 19.651 24.2745 19.5999 24.3512C19.5488 24.4789 19.5743 24.6066 19.702 24.6576C19.8297 24.7087 19.983 24.7087 20.1362 24.6832C20.2895 24.6576 20.4427 24.6321 20.596 24.6066L20.928 24.5555L21.3111 24.4789L21.7709 24.4022L22.2817 24.3256L22.8436 24.2234L23.431 24.1213L24.044 24.0191L24.6826 23.917L25.3211 23.8148L25.9596 23.7126L26.5982 23.6105L27.2367 23.5083L27.8241 23.4061L28.386 23.304L28.8969 23.2273L29.3566 23.1507L29.7652 23.0741L30.0973 23.023L30.3527 22.9719L30.5059 22.9464H30.557L31.7064 23.8914C32.064 24.1979 32.728 24.3001 33.1622 24.1468L34.7969 23.5338C35.2311 23.3806 35.6653 22.8698 35.7419 22.41L36.0484 20.6988C36.2272 20.1879 35.9973 19.5494 35.6397 19.2685ZM34.7458 21.0308L34.6691 21.4905C34.5925 21.8992 34.2349 22.3334 33.8518 22.4611L33.4176 22.6144C33.0345 22.7676 32.4726 22.6654 32.1661 22.41L31.8085 22.1035C31.502 21.8481 31.2977 21.3118 31.3743 20.9031L31.451 20.4434C31.5276 20.0347 31.8852 19.6005 32.2683 19.4728L32.7025 19.3195C33.0856 19.1663 33.6475 19.2685 33.954 19.5239L34.3116 19.8304C34.6181 20.1113 34.8224 20.6477 34.7458 21.0308Z" fill="white"/>
<path d="M29.4068 40.749C29.2791 40.5702 28.9726 40.468 28.7683 40.4936L27.9765 40.6213C27.7722 40.6468 27.5167 40.8512 27.4401 41.0555L27.1592 41.8217C27.0825 42.0261 27.1336 42.3325 27.2613 42.5113L27.7722 43.1499C27.8999 43.3287 28.2064 43.4308 28.4107 43.4053L29.2025 43.2776C29.4068 43.252 29.6622 43.0477 29.7388 42.8434L30.0198 42.0771C30.0964 41.8728 30.0453 41.5663 29.9176 41.3875L29.4068 40.749Z" fill="white"/>
<path d="M7.97829 25.8834C8.13154 26.0621 8.41249 26.0877 8.59128 25.9344L8.87223 25.679C9.05102 25.5258 9.07656 25.2448 8.92331 25.066L8.6679 24.7851C8.51465 24.6063 8.2337 24.5808 8.05491 24.734L7.77396 24.9894C7.59517 25.1427 7.56963 25.4236 7.72288 25.6024L7.97829 25.8834Z" fill="white"/>
<path d="M7.059 27.3133C7.6209 27.9774 8.61701 28.0796 9.28108 27.5177L10.3283 26.6237C10.3793 26.5982 10.4049 26.5471 10.456 26.496C10.8646 26.4194 11.2733 26.3428 11.7075 26.2406C12.1417 26.1385 13.1889 26.0618 13.572 25.883C13.6742 25.832 13.7508 25.8064 13.8274 25.7298C13.9806 25.6021 14.0062 25.4488 13.8529 25.2701C13.8019 25.1934 13.6997 25.1424 13.6231 25.0913C13.1122 24.8359 12.014 24.7337 11.4776 24.6571L10.6348 24.5294C10.6092 24.4783 10.5837 24.4272 10.5326 24.4017L9.63865 23.3545C9.07675 22.6904 8.08064 22.5882 7.41657 23.1501L6.34384 24.0185C5.67977 24.5804 5.57761 25.5766 6.13952 26.2406L7.059 27.3133ZM7.13562 24.5549L7.77415 24.0185C8.18281 23.6865 8.77025 23.7376 9.12783 24.1462L9.66419 24.7848C9.99623 25.1934 9.94514 25.7809 9.53649 26.1385L8.89796 26.6748C8.4893 27.0069 7.90185 26.9558 7.54428 26.5471L7.00791 25.9086C6.70142 25.4744 6.7525 24.8869 7.13562 24.5549Z" fill="white"/>
<path d="M11.8106 36.1771C11.785 35.8961 11.7084 35.6152 11.6062 35.3853L11.7084 35.2065L11.9383 34.7723L12.2958 34.1338L12.73 33.342L13.1898 32.4736L13.6751 31.6052L14.1348 30.7879C14.3647 30.3792 14.5945 29.9706 14.7989 29.5619C15.0032 29.1788 15.2841 28.7957 15.3097 28.3359C15.3097 28.055 15.0543 28.0039 14.8244 28.1316C14.569 28.2849 14.3902 28.5147 14.2114 28.7446C13.5218 29.4342 12.8833 30.2005 12.2448 30.9411L11.5551 31.7074L10.9166 32.4225L10.3292 33.0611L9.86943 33.5719L9.58847 33.8784L9.53739 33.955C9.46077 33.955 9.3586 33.955 9.28198 33.955L7.21315 34.1082C5.91055 34.2104 4.91444 35.3342 5.01661 36.6368L5.16986 38.7056C5.27202 40.0082 6.39583 41.0044 7.69843 40.9022L9.76726 40.7489C11.0699 40.6468 12.066 39.523 11.9638 38.2204L11.8106 36.1771ZM9.25644 39.4463L8.00492 39.523C7.21315 39.574 6.54908 38.9866 6.47245 38.1948L6.39583 36.9433C6.34475 36.1515 6.93219 35.4619 7.72397 35.4108L8.97549 35.3342C9.76726 35.2831 10.4313 35.8706 10.508 36.6624L10.5846 37.9139C10.6357 38.7057 10.0227 39.3697 9.25644 39.4463Z" fill="white"/>
<path d="M25.4748 13.6748H23.2017C21.7714 13.6748 20.5965 14.8497 20.5965 16.28V18.5531C20.5965 18.7575 20.622 18.9618 20.6731 19.1406L18.5021 22.7163C18.3489 22.9973 18.5021 23.2527 18.732 23.4826C18.732 23.4826 18.732 23.8657 18.732 23.8912C18.9618 24.0956 18.8852 23.738 19.1662 23.5847L23.074 21.1583C23.125 21.1583 23.1506 21.1583 23.2017 21.1583H25.4748C26.9051 21.1583 28.08 19.9834 28.08 18.5531V16.28C28.08 14.8241 26.9051 13.6748 25.4748 13.6748ZM26.9307 18.1956C26.9307 19.1917 26.1134 20.009 25.1173 20.009H23.5337C22.5376 20.009 21.7203 19.1917 21.7203 18.1956V16.612C21.7203 15.6159 22.5376 14.7986 23.5337 14.7986H25.1173C26.1134 14.7986 26.9307 15.6159 26.9307 16.612V18.1956Z" fill="white"/>
<path d="M23.9677 16.204H24.7084C25.1682 16.204 25.5513 16.5871 25.5513 17.0469V17.7876C25.5513 18.2473 25.1682 18.6304 24.7084 18.6304H23.9677C23.508 18.6304 23.1249 18.2473 23.1249 17.7876V17.0469C23.1249 16.5871 23.508 16.204 23.9677 16.204Z" fill="white"/>
<path d="M8.13214 36.4832L8.71959 36.4322C9.10271 36.4066 9.4092 36.6876 9.43474 37.0707L9.48582 37.6581C9.51137 38.0413 9.23041 38.3477 8.8473 38.3733L8.25985 38.4244C7.87673 38.4499 7.57024 38.169 7.5447 37.7858L7.49362 37.1984C7.46807 36.8153 7.74903 36.5088 8.13214 36.4832Z" fill="white"/>
<path d="M36.228 35.4358C35.8193 35.4358 35.4873 35.7934 35.4873 36.2276C35.4873 36.6618 35.8448 36.9683 36.279 36.9683C36.7132 36.9683 37.0197 36.6107 37.0197 36.1765C37.0197 35.7423 36.6621 35.4103 36.228 35.4358Z" fill="white"/>
<path d="M34.7721 39.1394C34.8743 39.1905 34.9764 39.2416 35.0531 39.2671C35.0786 39.2671 35.1041 39.2927 35.1297 39.2927C35.2318 39.3438 35.3596 39.3693 35.4617 39.3948C35.4873 39.3948 35.5128 39.4204 35.5383 39.4204C35.5639 39.4204 35.615 39.4459 35.6405 39.4459C35.666 39.4459 35.6916 39.4459 35.7427 39.4715H35.7682C35.7938 39.4715 35.8448 39.4715 35.8704 39.4715H35.9215C35.947 39.4715 35.9725 39.4715 35.9725 39.4715H35.9981C36.0236 39.4715 36.0492 39.4715 36.0747 39.4715C36.228 39.4715 36.3812 39.4715 36.5344 39.4715C36.6877 39.4459 36.8409 39.4204 36.9942 39.3948C37.0453 39.3693 37.0964 39.3693 37.1474 39.3438C37.173 39.3438 37.1985 39.3182 37.2241 39.3182C37.3007 39.2927 37.3773 39.2671 37.4539 39.2416C37.4795 39.2416 37.505 39.2161 37.5306 39.2161C37.5816 39.1905 37.6327 39.165 37.6838 39.1394C37.7093 39.1139 37.7349 39.1139 37.786 39.0884C37.8115 39.0628 37.8626 39.0628 37.8881 39.0373C37.9392 39.0117 38.0158 38.9606 38.0669 38.9351C38.45 38.6797 38.7821 38.3477 39.0119 37.939C39.0375 37.9135 39.0375 37.8879 39.063 37.8368C39.0886 37.8113 39.0886 37.7858 39.1141 37.7602V37.7347C39.1396 37.7091 39.1396 37.6836 39.1652 37.658C39.2418 37.5048 39.2929 37.3516 39.344 37.2238C39.344 37.1983 39.3695 37.1728 39.3695 37.1472C39.3695 37.1472 39.3695 37.1472 39.3695 37.1217C39.3695 37.0961 39.3951 37.0706 39.3951 37.0451V37.0195C39.3951 36.994 39.3951 36.9684 39.4206 36.9429C39.4206 36.9174 39.4461 36.8663 39.4461 36.8407C39.4717 36.7641 39.4717 36.6875 39.4972 36.6109C39.4972 36.5598 39.5228 36.4832 39.5228 36.4321V36.4065C39.5228 36.381 39.5228 36.3554 39.5228 36.3044C39.5228 36.2788 39.5228 36.2277 39.5228 36.2022C39.5228 36.1767 39.5228 36.1256 39.5228 36.1C39.5228 36.049 39.5228 35.9979 39.5228 35.9468C39.5228 35.8957 39.5228 35.8446 39.4972 35.7935C39.4972 35.768 39.4972 35.7169 39.4717 35.6914C39.4717 35.6658 39.4717 35.6403 39.4717 35.6403C39.4717 35.5892 39.4461 35.5381 39.4461 35.4871C39.4461 35.4615 39.4461 35.436 39.4206 35.4104C39.3951 35.3593 39.3951 35.3083 39.3695 35.2572C39.3695 35.2316 39.344 35.2061 39.344 35.1806C39.3184 35.1295 39.3184 35.0784 39.2929 35.0273C39.2929 35.0018 39.2673 34.9762 39.2673 34.9507C39.2673 34.9251 39.2418 34.8996 39.2418 34.8741C39.2418 34.8485 39.2163 34.823 39.2163 34.7974C39.2163 34.7719 39.1907 34.7464 39.1907 34.7208C39.1907 34.6953 39.1652 34.6953 39.1652 34.6697C39.1652 34.6442 39.1396 34.6187 39.1396 34.5931C39.1141 34.5676 39.1141 34.542 39.0886 34.4909C39.063 34.4654 39.063 34.4399 39.0375 34.4143C39.0119 34.3632 38.9609 34.3122 38.9353 34.2611C38.7054 33.929 38.4245 33.6481 38.0925 33.4438C38.0669 33.4182 38.0414 33.4182 38.0158 33.3927C37.9903 33.3671 37.9648 33.3671 37.9137 33.3416C37.8881 33.3161 37.8626 33.3161 37.837 33.2905C37.6583 33.1883 37.4795 33.1117 37.3007 33.0606C37.2751 33.0606 37.2496 33.0351 37.2241 33.0351C37.2241 33.0351 37.2241 33.0351 37.1985 33.0351C37.173 33.0351 37.1474 33.0096 37.1219 33.0096H37.0963C37.0708 33.0096 37.0453 33.0096 37.0197 32.984C36.9942 32.984 36.9431 32.9585 36.9176 32.9585C36.8409 32.9329 36.7643 32.9329 36.6877 32.9074C36.6622 32.9074 36.6366 32.9074 36.6111 32.9074C36.5855 32.9074 36.56 32.9074 36.56 32.9074C36.5089 32.9074 36.4834 32.9074 36.4578 32.9074C36.4067 32.9074 36.3812 32.9074 36.3301 32.9074C36.3046 32.9074 36.279 32.9074 36.2535 32.9074C36.2024 32.9074 36.1513 32.9074 36.1002 32.9074C36.0747 32.9074 36.0492 32.9074 36.0236 32.9074C35.9981 32.9074 35.9725 32.9074 35.9215 32.9074C35.8959 32.9074 35.8704 32.9074 35.8704 32.9074C35.8448 32.9074 35.8193 32.9074 35.7938 32.9074C35.666 32.9329 35.5128 32.9585 35.3851 32.984C35.334 33.0096 35.3085 33.0096 35.2574 33.0351C35.1808 33.0606 35.1041 33.0862 35.0275 33.1117C34.9764 33.1373 34.9254 33.1628 34.8487 33.1883C34.8232 33.2139 34.7976 33.2139 34.7721 33.2394C34.721 33.265 34.6699 33.2905 34.6189 33.3161C34.5933 33.3161 34.5933 33.3416 34.5678 33.3416H34.5422C34.5422 33.3416 34.5167 33.3416 34.5167 33.3671C34.4912 33.3671 34.4656 33.3927 34.4656 33.3927C34.389 33.4438 34.3379 33.4693 34.2868 33.5204C34.2613 33.5459 34.2102 33.5715 34.1847 33.597L19.6518 26.752C19.3453 26.5987 19.1154 27.0329 19.3963 27.2117L31.4773 34.7719L31.6816 34.8996L31.9115 35.0528C31.9881 35.1039 32.0647 35.155 32.1414 35.2061C32.3712 35.3593 32.5756 35.487 32.8054 35.6403L32.9842 35.768C32.9587 35.9723 32.9587 35.9723 32.9842 36.1767V36.2022C32.9842 36.2022 32.9842 36.2022 32.9842 36.2277C32.9842 36.2788 32.9842 36.3044 32.9842 36.3554C32.9842 36.4065 32.9842 36.4321 32.9842 36.4832C32.9842 36.5342 32.9842 36.5598 33.0098 36.6109C33.0353 36.8407 33.1119 37.0706 33.1886 37.3005C33.2141 37.326 33.2141 37.3771 33.2396 37.4026C33.2652 37.4537 33.2907 37.5048 33.3163 37.5559C33.3163 37.5814 33.3418 37.607 33.3418 37.6325C33.3418 37.658 33.3673 37.6836 33.3673 37.7091C33.3929 37.7858 33.444 37.8368 33.4695 37.8879L33.4951 37.9135C33.5206 37.939 33.5461 37.9645 33.5461 37.9901C33.5717 38.0156 33.5972 38.0412 33.5972 38.0667C33.6228 38.0922 33.6228 38.1178 33.6483 38.1433C33.6738 38.1944 33.7249 38.22 33.7505 38.271C33.776 38.3221 33.8271 38.3477 33.8526 38.3987C33.8782 38.4243 33.8782 38.4243 33.9037 38.4498C33.9292 38.4754 33.9548 38.5009 33.9803 38.5264C34.0059 38.552 34.0314 38.5775 34.057 38.6031C34.108 38.6542 34.1591 38.6797 34.2102 38.7308C34.2613 38.7819 34.3379 38.8329 34.389 38.884C34.4145 38.9096 34.4401 38.9096 34.4656 38.9351C34.4912 38.9606 34.5167 38.9606 34.5422 38.9862C34.5678 39.0117 34.5933 39.0117 34.6189 39.0373C34.6444 39.0628 34.6955 39.0628 34.721 39.0884C34.721 39.1139 34.7466 39.1139 34.7721 39.1394ZM34.4401 36.2277C34.4145 35.2316 35.2063 34.3888 36.2024 34.3632C37.1985 34.3377 38.0414 35.1295 38.0669 36.1256C38.0925 37.1217 37.3007 37.9645 36.3046 37.9901C35.3085 38.0412 34.4656 37.2494 34.4401 36.2277Z" fill="white"/>
<path d="M34.542 33.3931C34.542 33.3931 34.5164 33.3931 34.5164 33.4187C34.5164 33.3931 34.542 33.3676 34.542 33.3931C34.542 33.3676 34.542 33.3676 34.542 33.3931Z" fill="white"/>
<path d="M34.1846 33.6225C34.2868 33.5458 34.3889 33.4692 34.4911 33.4181C34.4145 33.4692 34.3634 33.4948 34.3123 33.5458C34.2612 33.5714 34.2101 33.5969 34.1846 33.6225Z" fill="white"/>
<path d="M32.805 35.7166L31.9111 35.1292C31.9877 35.1802 32.0643 35.2313 32.141 35.2824C32.3708 35.4101 32.5752 35.5634 32.805 35.7166Z" fill="white"/>
<path d="M35.2578 30.5584L36.0496 26.3186C36.2029 25.4247 35.36 24.684 34.4916 24.9905L30.4306 26.4463C29.5877 26.7528 29.3578 27.8766 30.0474 28.4641L33.3422 31.2736C34.0063 31.8355 35.079 31.4524 35.2578 30.5584ZM33.5977 30.0221L31.1968 27.9788C30.9414 27.7744 31.018 27.3913 31.3245 27.2636L34.2873 26.2164C34.5938 26.1143 34.9003 26.3697 34.8236 26.6762L34.2617 29.7667C34.2106 30.0987 33.8275 30.2264 33.5977 30.0221Z" fill="white"/>
<path d="M32.5251 27.6465L33.5723 27.2634C33.7511 27.2123 33.9043 27.34 33.8788 27.5188L33.7766 28.0807L33.6745 28.6426C33.6489 28.8214 33.419 28.898 33.2913 28.7703L32.4485 28.0296C32.3208 27.9274 32.3463 27.6976 32.5251 27.6465Z" fill="white"/>
<path d="M20.2145 25.3991L30.6608 26.4719L30.3032 28.4641L20.0868 25.8844C19.6015 25.7312 19.6781 25.3481 20.2145 25.3991Z" fill="white"/>
<path d="M0.113213 31.2221L1.95217 35.1299C2.33529 35.9472 3.4591 36.0494 3.99547 35.3087L6.44742 31.7585C6.95824 31.0178 6.47296 29.9962 5.57902 29.9195L1.28811 29.562C0.368624 29.4598 -0.269904 30.3793 0.113213 31.2221ZM1.77339 30.6858L4.91495 30.9412C5.22144 30.9667 5.40023 31.3243 5.22144 31.5797L3.43356 34.1594C3.25477 34.4148 2.84611 34.3892 2.71841 34.1083L1.36473 31.2477C1.21148 30.9923 1.44135 30.6602 1.77339 30.6858Z" fill="white"/>
<path d="M4.02105 31.9881L3.38252 32.9075C3.28036 33.0608 3.05049 33.0353 2.97387 32.882L2.744 32.3712L2.51412 31.8604C2.4375 31.7071 2.56521 31.5028 2.744 31.5283L3.86781 31.6305C4.04659 31.6305 4.12322 31.8348 4.02105 31.9881Z" fill="white"/>
<path d="M13.6746 27.5441L6.16552 32.167L5.14388 29.8683L13.4192 27.0077C13.9045 26.829 14.1088 27.2887 13.6746 27.5441Z" fill="white"/>
<path d="M152.975 21.4653H145.568C145.568 25.5008 145.568 29.3575 145.568 33.3675H142.477C142.477 29.3831 142.477 25.5264 142.477 21.4909C142.477 21.5164 126.463 21.4909 123.577 21.5164C122.811 21.5164 122.019 21.6186 121.278 21.8229C120.103 22.1549 119.388 23.3298 119.465 24.5813H134.866V27.3398H119.49C119.286 28.719 120.308 30.0216 121.84 30.277C122.453 30.3792 123.092 30.4047 123.73 30.4047C127.306 30.4047 130.907 30.4047 134.483 30.4047H135.147V33.3419C135.045 33.3675 134.943 33.393 134.84 33.393C130.626 33.393 126.412 33.393 122.198 33.3419C119.337 33.2909 117.396 31.835 116.655 29.332C116.502 28.8212 116.4 28.2848 116.349 27.7229C116.195 26.1138 116.195 24.5047 116.579 22.8956C117.166 20.4948 118.75 19.1411 121.125 18.7324C121.917 18.6047 122.708 18.5281 123.5 18.5281C127.689 18.5025 152.77 18.5025 153 18.5025C153 19.4476 152.975 20.5203 152.975 21.4653Z" fill="white"/>
<path d="M93.618 18.4775C94.9972 18.5286 96.2998 18.5286 97.5769 18.6563C99.4158 18.8606 100.77 19.9334 101.842 21.3381C103.426 23.3559 104.933 25.4247 106.465 27.468C106.976 28.1321 107.487 28.7706 108.049 29.4091C108.56 29.971 109.198 30.2775 110.067 30.2264V18.5541H113.157V33.3425C110.424 33.4957 107.691 33.5979 105.699 31.197C104.09 29.2814 102.557 27.2892 100.974 25.3481C100.208 24.3775 99.4158 23.4325 98.6241 22.4875C98.1643 21.9256 97.5513 21.6191 96.734 21.6957V33.368C95.7379 33.368 94.8184 33.368 93.899 33.368C93.7968 33.368 93.6691 33.1892 93.618 33.087C93.5669 32.9849 93.618 32.8316 93.618 32.7039C93.618 28.2087 93.618 23.6879 93.618 19.1927V18.4775Z" fill="white"/>
<path d="M48.7925 18.5541C50.6315 18.4519 52.4449 18.503 53.773 19.9078C55.1778 21.3892 56.4549 22.9727 57.7319 24.5563C59.3665 26.5996 60.9501 28.6684 62.5847 30.7117C63.5042 31.8355 64.7046 32.474 66.186 32.4485C66.3137 32.4485 66.4414 32.423 66.6202 32.423V18.5797H67.5653V33.368C65.854 33.4957 64.1172 33.4701 62.8146 32.1931C61.512 30.916 60.3371 29.5113 59.1878 28.081C57.451 25.9355 55.7908 23.739 54.054 21.568C53.6198 21.0316 53.0579 20.5719 52.496 20.1377C51.7042 19.5502 50.7592 19.4736 49.7375 19.5247V33.368H48.7925" fill="white"/>
<path d="M71.9846 18.5541H72.9552C72.9552 18.784 72.9552 18.9883 72.9552 19.1926C72.9552 21.7978 72.9041 24.4285 72.9807 27.0337C73.0574 30.3796 74.2833 31.8099 77.5781 32.3718C79.9024 32.7805 82.2522 32.755 84.5764 32.2952C87.3604 31.7333 88.6375 30.1498 88.6885 27.2892C88.7396 24.6073 88.7141 21.9511 88.7141 19.2692C88.7141 19.0649 88.7141 18.835 88.7141 18.5796H89.6591C89.6591 18.7073 89.6846 18.835 89.6846 18.9372C89.6846 21.6701 89.7102 24.3775 89.6591 27.1104C89.6591 27.8766 89.5314 28.6684 89.3271 29.4091C88.8418 31.2991 87.5647 32.4995 85.7002 32.9848C82.4821 33.8277 79.2383 33.8532 76.0201 33.0104C73.6448 32.3718 72.3678 30.7117 72.1379 28.3108C71.9846 26.5995 72.0102 24.8627 72.0102 23.1515C71.9591 21.6446 71.9846 20.1376 71.9846 18.5541Z" fill="white"/>
<path d="M16.5856 23.7129C17.5562 23.7129 18.3735 24.5047 18.3735 25.5008C18.3735 26.4714 17.5817 27.2887 16.5856 27.2887C15.5895 27.2887 14.7977 26.4969 14.7977 25.5008C14.7977 24.5047 15.5895 23.7129 16.5856 23.7129ZM16.5856 22.0527C14.6956 22.0527 13.1631 23.5852 13.1631 25.4752C13.1631 27.3653 14.6956 28.8978 16.5856 28.8978C18.4756 28.8978 20.0081 27.3653 20.0081 25.4752C20.0081 23.6107 18.4756 22.0527 16.5856 22.0527Z" fill="white"/>
</g>
</svg>
