<?xml version="1.0" encoding="UTF-8"?>
<svg id="Layer_2" data-name="Layer 2" xmlns="http://www.w3.org/2000/svg" viewBox="0 0 154 54">
  <defs>
    <style>
      .cls-1, .cls-2, .cls-3, .cls-4 {
        stroke-width: 0px;
      }

      .cls-1, .cls-4 {
        fill: #9a999a;
      }

      .cls-2 {
        fill: none;
      }

      .cls-3 {
        fill: rgba(154, 153, 154, .3);
      }

      .cls-4 {
        fill-rule: evenodd;
      }
    </style>
  </defs>
  <g id="Layer_1-2" data-name="Layer 1">
    <g>
      <rect class="cls-2" width="154" height="54"/>
      <g>
        <g>
          <path class="cls-1" d="M67.73,14.59h5.28v21.14h5.28V9.3h-5.28c-2.91,0-5.28,2.38-5.28,5.28Z"/>
          <path class="cls-1" d="M83.58,19.87v15.85h5.28v-10.57c0-2.91-2.38-5.28-5.28-5.28Z"/>
          <path class="cls-1" d="M104.72,19.87h-10.57v15.85h5.28v-10.57h5.28v5.28c0,2.91,2.38,5.28,5.28,5.28v-10.57c0-2.91-2.38-5.28-5.28-5.28Z"/>
          <path class="cls-1" d="M141.72,19.87h-5.28v-5.28c0-2.91-2.38-5.28-5.28-5.28v21.14h-10.57v-5.28h5.28v-5.28h-5.28c-2.91,0-5.28,2.38-5.28,5.28v5.28c0,2.91,2.38,5.28,5.28,5.28h15.85v-10.57h5.28v5.28c0,2.91,2.38,5.28,5.28,5.28v-10.57c0-2.91-2.38-5.28-5.28-5.28Z"/>
          <path class="cls-1" d="M83.58,9.3v5.28h5.28c0-2.91-2.38-5.28-5.28-5.28Z"/>
        </g>
        <g>
          <path class="cls-4" d="M46.49,7.45s2.17.09,4.43.34c-5.07-3.99-9.88-5.15-13.78-5.15-5.34,0-8.96,2.18-9.22,2.34h-.01l1.69-2.68s-6.75-.65-9.14,6.5c-.61-1.52-1.16-3.73-1.16-3.73,0,0-3.51,3.08-1.86,8.19-4.04-1.49-9.82-3.53-10.03-3.57-.3-.04-.38.09-.38.09,0,0-.09.13.17.34.48.38,9.58,7.11,11.57,8.4-.44,1.56-.44,2.3,0,3.04.61.99.65,1.52.57,2.26-.09.74-.86,7.11-1.04,7.89-.07.32-.41.95-.78,1.65-.54,1.04-1.18,2.22-1.12,2.72.09.82,1.22,4.33,2.21,4.73.74.26,2.56.82,3.77.82.44,0,.82-.09.99-.26.74-.65.95-.78,1.48-.78h.13c.11,0,.21.01.33.03h0c.13.01.29.03.45.03.69,0,1.61-.13,2.26-.74.45-.45,1.06-.98,1.63-1.47h0c.63-.55,1.23-1.07,1.49-1.39.65-.82.99-1.96.82-3.08-.13-1.04.44-1.96,1.08-2.85.82-1.08,2.34-3.04,2.34-3.04,2.99,2.26,4.85,5.68,4.85,9.5,0,6.75-5.89,12.22-13.17,12.22-1.12,0-2.21-.13-3.29-.38,3.33,1.16,6.16,1.56,8.46,1.56,4.9,0,7.5-1.78,7.5-1.78,0,0-.91,1.16-2.38,2.51h.04c8.1-1.12,12.05-7.81,12.05-7.81,0,0-.3,2.17-.69,3.63,10.52-7.9,9.05-17.73,8.93-18.55h0s-.01-.04-.01-.04c.05.08.49.61.94,1.16h0c.28.34.57.69.78.96,1.73-17.86-12.87-23.62-12.87-23.62ZM28.84,36.96h0c-.13.12-.26.24-.38.34-.18.17-.37.33-.54.5-.34.3-.69.61-.96.9-.17.17-.52.26-1.04.26h-1.29c.65-.86,2.56-2.85,3.21-3.29.78-.52,1.16-1.04.69-1.96-.48-.91-1.73-.69-1.73-.69,0,0,.74-.3,1.39-.3-.82-.21-1.86,0-2.34.48-.34.32-.42,1.18-.5,2.03h0c-.04.42-.08.86-.15,1.22-.2,1-.81,1.56-1.74,2.42h0c-.11.11-.22.2-.34.3-.61.57-1.04.74-1.39.74-.74-.13-1.61-.34-2.21-.57-.44-.57-1.08-2.43-1.26-3.21.09-.3.38-.87.65-1.36h0c.11-.18.2-.37.26-.52l.05-.09.03-.04c.48-.91.75-1.45.83-1.94.17-.74.74-5.28.95-7.2.57.74,1.33,1.96,1.16,2.73,1.26-1.78.34-3.51-.09-4.2-.38-.69-.91-2.09-.48-3.55.44-1.48,2-5.55,2-5.55,0,0,.52.91,1.26.74.74-.17,6.67-9.1,6.67-9.1,0,0,1.61,3.51-.09,6.06-1.72,2.58-3.41,3.05-3.41,3.05,0,0,2.38.44,4.6-1.16.91,2.13,1.78,4.33,1.82,4.64-.03.05-.09.21-.18.45-.49,1.15-1.7,4.07-1.85,4.28-.09.09-.69.26-1.12.34-.74.21-1.16.34-1.33.48-.3.26-1.69,4.07-2.34,5.93-.78.21-1.56.65-2.13,1.52.3-.21,1.26-.34,1.96-.44.61-.04,2.47.95,2.95,2.81v.09c.09.69-.13,1.33-.48,1.86-.17.16-.63.58-1.08.98h0ZM25.82,36.49c.3-.45.34-1.14.37-1.55.01-.12.01-.21.03-.28.04-.3.13-.86.48-.95s1.16.04,1.16.65c0,.38-.29.57-.61.77-.15.09-.29.18-.44.3-.2.2-.53.54-.75.78h0c-.12.15-.21.24-.24.28ZM43.1,28.22c.44-2.21.48-4.11.34-5.68,1.69,2.26,2.73,4.98,3.04,7.81.04.34.38.69.74,1.04.3.26.65.61.65.82,0,.99-.09,2-.26,2.99-.04.12-.4.33-.69.49h0v.03s-.04.01-.04.01c-.44.21-.82.44-.91.78-.95,3.33-2.99,6.28-5.72,8.36,4.03-4.21,5.99-11.15,2.85-16.65ZM40.38,45.25c2.81-2.17,4.98-5.21,5.93-8.63.04-.11.28-.25.5-.4.07-.04.13-.09.2-.12.44-.21.86-.48.95-.82.17-.99.26-2.03.26-3.08,0-.38-.38-.78-.78-1.16-.05-.07-.12-.13-.18-.2h0c-.18-.2-.38-.42-.38-.58-.34-3.16-1.61-6.16-3.55-8.63-.85-5.11-4.23-6.75-4.41-6.84h-.01s0,.01.01.01c.15.21,2.31,3.44.78,7.19-1.44,3.45-4.88,3.33-5.84,3.29h0c-.12-.01-.2-.01-.22,0-.34,0-1.69,1.73-3.38,4.94-.21-.09-1.12-.3-2.17-.13.78-2.17,1.96-5.25,2.17-5.51.07-.07.5-.2.89-.3.11-.03.2-.05.28-.09.82-.21,1.22-.34,1.33-.52.09-.13.52-1.12.95-2.17.38,0,1.39-.09,1.48-.13.09-.09.91-2.21.91-2.47,0-.21-1.69-4.43-2.34-6.02.3-.34.61-.78.91-1.26,8.88.95,15.82,8.5,15.82,17.64,0,7-4.11,13.12-10.09,15.99ZM31.1,8.67s.38,1.73-.61,2.91c-1.26,1.44-2.34,1.39-2.3,1.39l2.91-4.29ZM21.09,33.28l-.34,1.73s.69-.09.69.69c0,.61-.69,1.44-1.26,1.48s-.78-.65-.65-1.04c.13-.34,1.56-2.85,1.56-2.85ZM27.72,18.8c1.52.3,1.96,2.09,1.12,3.04-.82.91-2.91,2.21-4.11,2.51-.26.99-2.47.57-1.65-2.6,0,0,.38,1.52.78,1.39.38-.13,4.81-7.07,4.81-7.07,0,0-.55,1.84-.95,2.73ZM27.34,19.67l-2.26,3.86s2.09-.95,2.91-2.17c.65-1.04-.65-1.69-.65-1.69ZM27.03,3.82c-3.9,2.34-3.12,7.93-3.12,7.93-3.55-5.43,2.25-7.6,3.04-7.9h0s.07-.03.08-.03ZM45.93,6.12c-6.46-1.22-10.62-.61-13.61.52-.09-.34-.38-1.04-.65-1.61-.89,1.04-1.8,2.29-2.4,3.12l-.07.09c-1.65,1.12-2.34,2.21-2.34,2.21.95-3.25,3.73-5.68,7.11-6.28.95-.17,2-.26,3.12-.26,2.99.05,5.97.78,8.84,2.22ZM47.31,13.82c6.1,4.03,8.88,8.5,10.83,13.74-.09-5.55-1.96-10.32-5.55-14.12l-.09-.09c-3.16-3.33-7.81-4.9-12.39-4.25-1.73.21-3.46.57-4.81.99-.21.04-.44.09-.65.17h.09c.34-.03,6.67-.33,12.56,3.57ZM50.7,44.03c.86-.86,1.61-1.78,2.26-2.64,3.73-5.21,3.21-12.35-1.08-17.12-.34-.38-.74-.82-1.12-1.22.2.41,5.54,10.24-.05,20.98ZM18.73,8.06c-.17.62-1.63,6.2,3.3,6.38-2.95-1.78-3.29-6.37-3.29-6.41,0,0,0,.01-.01.03h0ZM20.82,17.16c.3-.57.04-.95-.21-1.16l-.09-.09c-.52-.26-3.77-1.48-6.98-2.6,2.81,1.86,5.93,3.69,6.46,3.94.4.18.65.22.82-.08Z"/>
          <g>
            <path class="cls-3" d="M33.11,15.14c-.16-.38-.32-.77-.48-1.15-1.63,1.18-3.34,1.26-4.14,1.22.82.2,2.62.48,4.61-.07Z"/>
            <path class="cls-3" d="M34.88,10.25h-.18s-.01,0-.03.01h.09s.05-.01.12-.01Z"/>
            <path class="cls-3" d="M37.62,12.21c-.95-.28-1.94-.46-2.96-.58-.3.48-.61.91-.91,1.26.17.44.44,1.07.71,1.77,1.08-.49,2.17-1.27,3.16-2.44Z"/>
            <path class="cls-3" d="M33.98,24.14c-1.52,0-3.55.99-3.55.99l-2.01,4.91c.9-.08,1.63.09,1.82.17,1.69-3.21,3.04-4.94,3.38-4.94.04-.01.12-.01.22,0,.96.04,4.4.16,5.84-3.29,1.48-3.63-.48-6.75-.75-7.16,1.77,5.96-2.23,9.28-4.95,9.31Z"/>
            <path class="cls-3" d="M45.97,36.49c.09-.34.48-.57.91-.78h.03s.01-.04.01-.04c.29-.17.65-.37.69-.49.17-.99.26-2,.26-2.99,0-.21-.34-.57-.65-.82-.34-.34-.69-.69-.74-1.04-.3-2.81-1.33-5.55-3.04-7.81.13,1.56.09,3.46-.34,5.68,3.13,5.51,1.18,12.43-2.85,16.65,2.73-2.07,4.77-5.02,5.72-8.36Z"/>
            <path class="cls-3" d="M50.01,28.34c-1.56-8.84-10.57-13.34-11.1-13.57v.03c.29.15,3.44,1.74,4.35,6.53,2.15,2.51,3.5,5.65,3.87,8.97,0,.21.3.52.61.78.38.38.78.78.78,1.16,0,1.04-.09,2.09-.26,3.08-.09.34-.52.57-.95.82-.26.17-.65.38-.69.52-.89,3.12-2.72,5.92-5.19,8.03,4.1-2.31,7.17-6.2,8.43-10.82.41-1.76.49-3.62.16-5.52Z"/>
            <path class="cls-3" d="M30.38,34.04c-.48-1.86-2.34-2.85-2.95-2.81-.7.09-1.65.21-1.96.44.57-.87,1.35-1.31,2.13-1.52.22-.63.53-1.51.85-2.38-.74.4-3.36,1.78-3.58,1.94-.26.17-1.18,1.98-1.86,3.9-.38-1.22-1.26-1.96-1.29-2,.04.21.95,3.82.65,4.9-.3,1.14-2.21,2.13-2.21,2.13l2.85.63s.05-.04.08-.07c.12-.11.22-.21.34-.3.94-.86,1.55-1.41,1.74-2.42.07-.36.12-.79.15-1.22.08-.86.16-1.72.5-2.03.48-.48,1.52-.69,2.34-.48-.24,0-.49.04-.7.09.74.01,1.73.29,1.7,1.77,0,1.14-1.26,1.22-2.51,2.26-.26.22-.57.49-.86.77-.49.52-.92,1.02-1.18,1.36h1.29c.52,0,.86-.09,1.04-.26.28-.28.62-.58.96-.9.18-.17.37-.33.54-.5.12-.11.25-.22.38-.34.45-.41.91-.82,1.06-.98.34-.53.57-1.18.48-1.86v-.12Z"/>
          </g>
        </g>
      </g>
    </g>
  </g>
</svg>