<?xml version="1.0" encoding="UTF-8"?>
<svg id="Layer_2" data-name="Layer 2" xmlns="http://www.w3.org/2000/svg" viewBox="0 0 154 54">
  <defs>
    <style>
      .cls-1, .cls-2, .cls-3, .cls-4 {
        stroke-width: 0px;
      }

      .cls-1, .cls-4 {
        fill: #9a999a;
      }

      .cls-2 {
        fill: none;
      }

      .cls-3 {
        fill: #c6c6c6;
      }

      .cls-4 {
        fill-rule: evenodd;
      }
    </style>
  </defs>
  <g id="Layer_1-2" data-name="Layer 1">
    <rect class="cls-2" width="154" height="54"/>
    <path class="cls-1" d="M29.72,33.44c-.36,0-.61-.07-.76-.22-.14-.15-.2-.38-.2-.7v-10.68c0-.32.07-.55.22-.7.15-.16.39-.24.74-.24h4.52c1.72,0,2.99.36,3.8,1.09.81.73,1.22,1.81,1.22,3.25s-.41,2.5-1.22,3.23c-.8.71-2.07,1.07-3.8,1.07h-1.75v2.99c0,.32-.07.55-.22.7-.15.15-.4.22-.76.22,0,0-1.79,0-1.79,0ZM33.94,26.85c.5,0,.89-.14,1.16-.41.28-.27.42-.68.42-1.22s-.14-.97-.42-1.24c-.27-.27-.66-.41-1.16-.41h-1.46v3.27s1.46,0,1.46,0ZM43.61,33.72c-1.16,0-2.08-.37-2.79-1.11-.69-.75-1.03-1.8-1.03-3.15,0-1.03.23-1.94.7-2.71.48-.77,1.15-1.37,2.01-1.79.87-.43,1.88-.65,3.01-.65.93,0,1.76.1,2.47.31.73.2,1.39.49,1.99.87v7.38c0,.23-.04.39-.13.46-.09.07-.26.11-.52.11h-1.88c-.14,0-.24-.02-.31-.06-.07-.05-.14-.12-.18-.22l-.24-.55c-.36.38-.79.66-1.29.83-.49.18-1.09.28-1.81.28ZM44.99,31.21c.48,0,.85-.12,1.13-.35.27-.23.41-.57.41-1v-2.88c-.23-.11-.53-.17-.89-.17-.65,0-1.17.23-1.57.68-.38.46-.57,1.09-.57,1.92,0,1.19.5,1.79,1.49,1.79ZM52.54,33.44c-.36,0-.61-.07-.76-.22s-.22-.38-.22-.7v-7.36c0-.22.04-.37.11-.44.09-.09.26-.13.52-.13h1.9c.15,0,.26.02.33.07.09.04.14.11.15.22l.09.55c.34-.34.79-.61,1.35-.81.57-.21,1.19-.31,1.88-.31,1,0,1.8.28,2.42.85.61.55.92,1.38.92,2.47v4.89c0,.32-.07.55-.22.7-.14.15-.38.22-.74.22h-1.79c-.36,0-.61-.07-.77-.22-.15-.15-.22-.38-.22-.7v-4.65c0-.37-.08-.63-.24-.79-.16-.16-.41-.24-.76-.24-.37,0-.66.1-.89.3-.21.2-.31.47-.31.81v4.57c0,.32-.07.55-.22.7-.14.15-.38.22-.74.22h-1.79ZM67.75,33.72c-1.72,0-3.05-.4-3.98-1.2-.93-.8-1.4-1.96-1.4-3.49,0-.93.22-1.76.65-2.47.43-.71,1.05-1.27,1.86-1.66.82-.39,1.8-.59,2.91-.59.85,0,1.56.08,2.14.24.59.16,1.11.41,1.57.74.14.09.2.2.2.33,0,.1-.05.23-.15.39l-.76,1.31c-.09.17-.19.26-.31.26-.07,0-.19-.05-.35-.15-.33-.21-.65-.36-.94-.46-.28-.1-.64-.15-1.07-.15-.61,0-1.11.2-1.49.59-.37.39-.55.93-.55,1.62s.19,1.24.57,1.62c.38.37.9.55,1.57.55.39,0,.75-.06,1.07-.17.32-.11.65-.26.98-.46.17-.1.3-.15.37-.15.11,0,.21.09.3.26l.83,1.42c.06.12.09.22.09.3,0,.11-.07.22-.22.31-.52.33-1.08.58-1.7.74-.6.17-1.33.26-2.18.26ZM76.52,33.72c-1.16,0-2.08-.37-2.79-1.11-.69-.75-1.03-1.8-1.03-3.15,0-1.03.23-1.94.7-2.71.48-.77,1.15-1.37,2.01-1.79.87-.43,1.88-.65,3.01-.65.93,0,1.76.1,2.47.31.73.2,1.39.49,1.99.87v7.38c0,.23-.04.39-.13.46-.09.07-.26.11-.52.11h-1.88c-.14,0-.24-.02-.31-.06-.07-.05-.14-.12-.18-.22l-.24-.55c-.36.38-.79.66-1.29.83-.49.18-1.09.28-1.81.28ZM77.91,31.21c.48,0,.85-.12,1.13-.35.27-.23.41-.57.41-1v-2.88c-.23-.11-.53-.17-.89-.17-.65,0-1.17.23-1.57.68-.38.46-.57,1.09-.57,1.92,0,1.19.5,1.79,1.49,1.79ZM94.48,32.74c.09.1.13.21.13.33,0,.11-.04.2-.11.28-.07.06-.17.09-.3.09h-2.86c-.17,0-.3-.01-.39-.04-.07-.04-.15-.1-.24-.2l-2.51-3.41v2.73c0,.32-.07.55-.22.7-.15.15-.4.22-.76.22h-1.79c-.36,0-.61-.07-.76-.22-.14-.15-.2-.38-.2-.7v-10.68c0-.32.07-.55.22-.7.15-.16.39-.24.74-.24h1.79c.36,0,.61.08.76.24.15.15.22.38.22.7v6.18l2.44-3.17c.07-.1.15-.17.24-.2.09-.04.22-.06.39-.06h2.86c.12,0,.22.04.28.11.07.06.11.15.11.26,0,.12-.04.23-.13.33l-3.15,3.62s3.25,3.84,3.25,3.84ZM100.47,33.72c-1.03,0-1.96-.17-2.77-.52-.8-.34-1.43-.86-1.9-1.55-.47-.69-.7-1.53-.7-2.53,0-1.56.44-2.75,1.33-3.58.89-.82,2.16-1.24,3.82-1.24s2.85.41,3.69,1.22c.85.8,1.27,1.91,1.27,3.34,0,.61-.27.92-.81.92h-5.79c0,.53.2.93.59,1.22.41.28,1.01.42,1.83.42.5,0,.92-.04,1.25-.13.34-.1.69-.24,1.03-.42.15-.06.25-.09.3-.09.11,0,.2.07.28.22l.63,1.18c.06.12.09.22.09.28,0,.11-.07.22-.22.31-.5.33-1.08.57-1.72.72-.64.15-1.37.22-2.2.22ZM101.89,27.96c0-.47-.14-.83-.41-1.09-.27-.26-.68-.39-1.22-.39s-.95.14-1.24.41c-.28.26-.42.61-.42,1.07h3.28ZM111.53,33.72c-1.03,0-2.01-.1-2.93-.31-.92-.22-1.67-.53-2.23-.92-.21-.14-.31-.28-.31-.42,0-.1.04-.2.11-.31l.9-1.44c.1-.15.2-.22.3-.22.06,0,.17.04.31.13.46.26.97.47,1.55.63.58.16,1.15.24,1.72.24s1-.09,1.27-.26c.28-.17.42-.45.42-.83s-.15-.66-.46-.87c-.3-.21-.85-.47-1.68-.79-1.24-.47-2.21-.99-2.91-1.57-.69-.59-1.03-1.39-1.03-2.4,0-1.22.44-2.15,1.31-2.79.87-.64,2.04-.96,3.49-.96,1.01,0,1.87.09,2.58.28.73.17,1.34.44,1.84.81.21.16.31.31.31.44,0,.09-.04.18-.11.3l-.9,1.44c-.11.15-.21.22-.3.22-.06,0-.17-.04-.31-.13-.71-.47-1.56-.7-2.55-.7-.53,0-.93.09-1.22.26-.28.17-.42.46-.42.85,0,.27.07.49.22.66.15.17.34.33.59.46.26.12.65.28,1.18.48l.35.13c.91.36,1.62.7,2.14,1.03.53.32.93.72,1.2,1.2.27.47.41,1.06.41,1.77,0,1.09-.41,1.97-1.24,2.62-.81.65-2.01.98-3.6.98ZM120.28,33.44c-.18,0-.33-.03-.42-.09-.1-.06-.17-.18-.22-.37l-2.38-7.97c-.02-.07-.04-.13-.04-.17,0-.17.12-.26.37-.26h2.43c.16,0,.28.03.35.09.07.05.12.14.15.26l1,4.19,1.25-3.38c.06-.15.12-.25.18-.3.07-.06.2-.09.37-.09h1.16c.17,0,.29.03.35.09.07.05.14.15.2.3l1.24,3.38,1.02-4.19c.04-.12.08-.21.15-.26.06-.06.17-.09.33-.09h2.45c.25,0,.37.09.37.26,0,.04-.01.09-.04.17l-2.4,7.97c-.05.18-.12.31-.22.37-.09.06-.22.09-.41.09h-1.81c-.17,0-.3-.03-.39-.09-.09-.07-.16-.2-.22-.37l-1.22-3.34-1.22,3.34c-.05.17-.12.3-.22.37-.09.06-.21.09-.39.09,0,0-1.79,0-1.79,0ZM135.27,33.72c-1.16,0-2.08-.37-2.79-1.11-.69-.75-1.03-1.8-1.03-3.15,0-1.03.23-1.94.7-2.71.48-.77,1.15-1.37,2.01-1.79.87-.43,1.88-.65,3.01-.65.93,0,1.76.1,2.47.31.73.2,1.39.49,1.99.87v7.38c0,.23-.04.39-.13.46-.09.07-.26.11-.52.11h-1.88c-.14,0-.24-.02-.31-.06-.07-.05-.14-.12-.18-.22l-.24-.55c-.36.38-.79.66-1.29.83-.49.18-1.09.28-1.81.28ZM136.65,31.21c.48,0,.85-.12,1.13-.35.27-.23.41-.57.41-1v-2.88c-.23-.11-.53-.17-.89-.17-.65,0-1.17.23-1.57.68-.38.46-.57,1.09-.57,1.92,0,1.19.5,1.79,1.5,1.79ZM144.18,37.17c-.36,0-.61-.07-.76-.22-.14-.15-.2-.38-.2-.7v-10.57c.55-.39,1.25-.72,2.08-.98.84-.26,1.71-.39,2.62-.39,3.71,0,5.57,1.57,5.57,4.72,0,1.43-.39,2.56-1.18,3.41-.79.85-1.9,1.27-3.34,1.27-.41,0-.8-.05-1.18-.15-.37-.1-.68-.23-.92-.41v3.08c0,.32-.07.55-.22.7s-.4.22-.76.22c0,0-1.72,0-1.72,0ZM148.19,31.23c.53,0,.92-.2,1.18-.59.27-.41.41-.95.41-1.62,0-.8-.16-1.36-.48-1.68-.31-.33-.79-.5-1.44-.5-.42,0-.75.06-1,.17v2.93c0,.42.12.74.35.96.23.22.56.33.98.33Z"/>
    <path class="cls-4" d="M20.92,25.2c-.93-.9-1.97-1.48-2.68-1.81.16-.5.36-1.15.55-1.82.24-.9.48-1.96.48-2.73,0-.92-.2-1.84-.74-2.55-.57-.76-1.43-1.16-2.46-1.16-.81,0-1.49.3-2.03.82-.51.49-.85,1.15-1.09,1.83-.41,1.2-.57,2.71-.62,4.21h-.99c-.05-1.5-.21-3.01-.62-4.21-.24-.68-.58-1.34-1.09-1.83-.54-.52-1.22-.82-2.03-.82-1.03,0-1.89.41-2.46,1.16-.54.72-.74,1.64-.74,2.55,0,.78.24,1.83.48,2.73.18.67.38,1.33.55,1.82-.72.33-1.75.91-2.68,1.81-1.19,1.15-2.25,2.85-2.25,5.21s1.06,4.61,3.05,6.14c1.97,1.51,4.78,2.34,8.28,2.35h.02c3.49,0,6.31-.84,8.28-2.35,1.99-1.52,3.05-3.69,3.05-6.14s-1.05-4.06-2.25-5.21ZM11.84,37.76h0s0,0,0,0c-6.7,0-10.33-3.22-10.33-7.48s3.57-5.81,4.79-6.3c.21-.09.33-.33.26-.55-.33-.98-1.14-3.48-1.14-4.74,0-1.58.7-2.71,2.21-2.71,2.18,0,2.72,3.11,2.76,6.46,0,.22.18.4.4.4h2.14c.22,0,.4-.18.4-.4.04-3.34.58-6.46,2.76-6.46,1.51,0,2.21,1.14,2.21,2.71,0,1.25-.81,3.76-1.14,4.74-.07.22.04.46.26.55,1.21.48,4.79,2.25,4.79,6.3,0,4.26-3.63,7.48-10.33,7.48Z"/>
    <path class="cls-3" d="M11.84,36.39c-4.92,0-10.34-2.66-10.35-6.11v.02c0,4.27,3.64,7.48,10.35,7.48s10.35-3.22,10.35-7.48v-.02c0,3.45-5.43,6.11-10.35,6.11Z"/>
    <path class="cls-1" d="M9.11,29.23c0,1.16-.54,1.77-1.22,1.77s-1.22-.61-1.22-1.77.54-1.77,1.22-1.77,1.22.61,1.22,1.77ZM17.01,29.23c0,1.16-.54,1.77-1.22,1.77s-1.22-.61-1.22-1.77.54-1.77,1.22-1.77,1.22.61,1.22,1.77Z"/>
  </g>
</svg>