<svg width="154" height="54" viewBox="0 0 154 54" fill="none" xmlns="http://www.w3.org/2000/svg">
<g opacity="0.6">
<path fill-rule="evenodd" clip-rule="evenodd" d="M27.205 24.8072C27.0301 24.8071 26.8566 24.84 26.6939 24.9044C22.2821 22.8898 17.9142 23.553 14.2926 26.6118C10.6772 23.553 6.30144 22.8898 1.89747 24.9044C1.73476 24.84 1.56134 24.8071 1.38636 24.8072C1.02692 24.8109 0.682651 24.9526 0.42471 25.203C0.166768 25.4533 0.0148728 25.7932 0.000417235 26.1524C-0.00815554 26.5021 0.115646 26.8421 0.347042 27.1043C0.578438 27.3666 0.900355 27.5318 1.24836 27.5669C1.59636 27.602 1.94478 27.5044 2.22386 27.2935C2.50294 27.0827 2.69211 26.7742 2.75349 26.4299C6.37356 24.5485 9.96541 25.1662 13.1402 27.9162C12.7524 28.4381 12.4009 28.986 12.0882 29.5561C9.83685 34.4759 11.0817 38.5255 14.2832 41.9669C17.7323 37.9925 18.7592 33.5681 15.7036 28.5088C15.6738 28.4602 14.6171 29.8665 14.6532 29.934C16.4797 33.3345 16.0328 36.4905 14.2832 39.3675C11.5959 36.2412 12.3547 30.9436 15.4418 27.9225C18.6119 25.1725 22.2084 24.5532 25.8285 26.4362C25.8875 26.7828 26.0759 27.0942 26.3556 27.3072C26.6354 27.5203 26.9856 27.6192 27.3354 27.584C27.6853 27.5487 28.0087 27.3819 28.2403 27.1174C28.472 26.8528 28.5945 26.5101 28.5831 26.1587C28.5681 25.8005 28.4173 25.4615 28.1613 25.2105C27.9054 24.9594 27.5634 24.8153 27.205 24.8072Z" fill="white"/>
<path fill-rule="evenodd" clip-rule="evenodd" d="M25.9414 21.3094C25.9412 21.0218 25.8516 20.7413 25.685 20.5069C25.5184 20.2724 25.2831 20.0955 25.0115 20.0006C24.74 19.9057 24.4457 19.8976 24.1694 19.9773C23.893 20.057 23.6482 20.2206 23.469 20.4455C20.2766 20.0389 17.041 20.7323 14.2957 22.4116C11.548 20.731 8.30951 20.0376 5.11461 20.4455C4.99219 20.2912 4.83832 20.1647 4.66322 20.0745C4.48812 19.9842 4.29581 19.9323 4.09908 19.9222C3.90236 19.912 3.70573 19.9439 3.52227 20.0156C3.33881 20.0873 3.17273 20.1973 3.03508 20.3382C2.89742 20.4791 2.79135 20.6477 2.72391 20.8328C2.65648 21.0179 2.62922 21.2152 2.64397 21.4117C2.65871 21.6081 2.71511 21.7991 2.80941 21.9721C2.90372 22.145 3.03377 22.2959 3.19091 22.4147L3.16269 22.4555L3.22384 22.4382C3.37922 22.5492 3.55584 22.6269 3.74264 22.6665C3.92944 22.7061 4.1224 22.7067 4.30945 22.6683C4.4965 22.6299 4.6736 22.5533 4.82968 22.4433C4.98576 22.3333 5.11746 22.1923 5.21652 22.029C6.80753 21.7959 8.42897 21.8808 9.98692 22.2789C11.5449 22.6769 13.0084 23.3801 14.2926 24.3478C15.5768 23.3808 17.0401 22.6784 18.5978 22.2811C20.1555 21.8839 21.7766 21.7998 23.367 22.0337C23.4663 22.197 23.5981 22.3381 23.7543 22.4481C23.9105 22.5581 24.0878 22.6347 24.275 22.6731C24.4621 22.7115 24.6552 22.7109 24.8421 22.6713C25.0291 22.6317 25.2058 22.5539 25.3613 22.4429L25.4209 22.4602L25.3927 22.4194C25.564 22.2897 25.7028 22.1218 25.798 21.9292C25.8933 21.7365 25.9424 21.5243 25.9414 21.3094Z" fill="white"/>
<path fill-rule="evenodd" clip-rule="evenodd" d="M19.8739 16.0917C19.6254 16.0916 19.3815 16.1582 19.1675 16.2845C18.9535 16.4108 18.7773 16.5922 18.6573 16.8097C17.1177 17.1527 15.6444 17.7447 14.2956 18.5626V18.572C14.2952 18.5688 14.2952 18.5657 14.2956 18.5626C12.9463 17.7447 11.4725 17.1527 9.93243 16.8097C9.78948 16.5502 9.56726 16.3431 9.29824 16.2188C9.02921 16.0945 8.72749 16.0595 8.43717 16.1189C8.14684 16.1783 7.88312 16.329 7.68455 16.549C7.48597 16.769 7.36295 17.0467 7.33347 17.3416C7.30398 17.6365 7.36957 17.933 7.52065 18.188C7.67173 18.4429 7.90039 18.6429 8.1732 18.7586C8.44601 18.8743 8.74869 18.8998 9.037 18.8312C9.3253 18.7627 9.58413 18.6037 9.77565 18.3776C11.4114 18.7689 12.95 19.4902 14.2972 20.4972C15.6437 19.4904 17.1819 18.7696 18.8172 18.3791C18.9677 18.5576 19.1607 18.6953 19.3785 18.7795C19.5962 18.8637 19.8317 18.8917 20.0631 18.8608C20.2945 18.8299 20.5144 18.7412 20.7025 18.6028C20.8905 18.4645 21.0407 18.281 21.1391 18.0692C21.2374 17.8575 21.2809 17.6244 21.2653 17.3915C21.2498 17.1585 21.1758 16.9332 21.0502 16.7364C20.9245 16.5397 20.7513 16.3777 20.5466 16.2656C20.3418 16.1534 20.1121 16.0947 19.8786 16.0948L19.8739 16.0917Z" fill="white"/>
<path d="M14.2925 16.606C15.2882 16.606 16.0955 15.7987 16.0955 14.803C16.0955 13.8072 15.2882 13 14.2925 13C13.2967 13 12.4895 13.8072 12.4895 14.803C12.4895 15.7987 13.2967 16.606 14.2925 16.606Z" fill="white"/>
<path fill-rule="evenodd" clip-rule="evenodd" d="M34.0376 33.5571V21.2121H39.6817C41.2422 21.2121 42.441 21.6302 43.2782 22.4664C43.9869 23.1719 44.3407 24.1126 44.3396 25.2884V25.3292C44.3396 26.2876 44.1045 27.0888 43.6341 27.7326C43.1431 28.3882 42.4679 28.8827 41.6948 29.1531L44.6987 33.5571H41.5223L38.8774 29.6046H36.7436V33.5571H34.0376ZM36.7499 27.2137H39.503C40.1583 27.2137 40.6699 27.0538 41.0378 26.734C41.219 26.5772 41.3624 26.3816 41.4574 26.1617C41.5524 25.9418 41.5966 25.7034 41.5866 25.464V25.4295C41.5866 24.8557 41.3984 24.4188 41.0222 24.1188C40.6459 23.8189 40.1233 23.6678 39.4544 23.6657H36.7436V27.2137H36.7499ZM50.2111 33.5571V21.2121H59.5176V23.6313H52.8983V26.1398H58.718V28.551H52.8983V31.1426H59.6054V33.5602L50.2111 33.5571ZM68.2613 33.7311C66.6036 33.7311 65.2579 33.1139 64.2242 31.8795L65.9284 29.9746C66.2431 30.3433 66.6133 30.6607 67.0258 30.9153C67.3773 31.1209 67.7772 31.2292 68.1844 31.2289C68.4132 31.2418 68.6419 31.2033 68.8538 31.1162C69.0657 31.0291 69.2554 30.8956 69.4089 30.7256C69.7005 30.3869 69.8458 29.8717 69.8448 29.1797V21.2121H72.6323V29.2879C72.6323 30.6989 72.2451 31.7964 71.4627 32.5803C70.6804 33.3642 69.6331 33.7264 68.2597 33.7264L68.2613 33.7311ZM83.9801 33.7546C82.2932 33.7546 80.9814 33.2884 80.0449 32.3561C79.1084 31.4238 78.6391 30.0608 78.637 28.2673V21.2121H81.3462V28.1951C81.3462 29.1881 81.5793 29.9448 82.0455 30.4653C82.5158 30.989 83.1617 31.2492 84.0083 31.2492C84.855 31.2492 85.504 30.9968 85.9712 30.4904C86.4384 29.984 86.6689 29.2503 86.6689 28.2876V21.2121H89.3891V28.1763C89.3891 30.0075 88.9114 31.395 87.9561 32.3389C87.0008 33.2827 85.6734 33.753 83.9739 33.7499L83.9801 33.7546ZM99.5249 33.6433L94.5252 21.2121H97.5197L100.749 29.9072L103.976 21.2121H106.903L101.91 33.6433H99.5249ZM112.245 33.5571V21.2121H121.551V23.6313H114.937V26.1398H120.755V28.551H114.937V31.1426H121.642V33.5602L112.245 33.5571Z" fill="white"/>
<path d="M126.432 33.1934C126.269 33.0325 126.142 32.8399 126.057 32.6277C125.972 32.4155 125.931 32.1881 125.938 31.9596C125.929 31.7319 125.968 31.5049 126.053 31.2936C126.138 31.0823 126.267 30.8914 126.432 30.7335C126.766 30.4329 127.2 30.2665 127.649 30.2665C128.099 30.2665 128.532 30.4329 128.866 30.7335C129.031 30.8914 129.16 31.0823 129.245 31.2936C129.33 31.5049 129.369 31.7319 129.36 31.9596C129.367 32.1881 129.326 32.4155 129.241 32.6277C129.156 32.8399 129.029 33.0325 128.866 33.1934C128.54 33.51 128.104 33.687 127.649 33.687C127.195 33.687 126.758 33.51 126.432 33.1934Z" fill="white"/>
<path d="M142.941 30.9013H137.209L136.111 33.5462H133.187L138.69 21.1997H141.512L147.033 33.5462H144.035L142.941 30.9013ZM142.041 28.7377L140.084 24.0045L138.126 28.7377H142.041Z" fill="white"/>
<path d="M151.142 21.1997H154V33.5462H151.142V21.1997Z" fill="white"/>
</g>
</svg>
