<svg width="154" height="54" viewBox="0 0 154 54" fill="none" xmlns="http://www.w3.org/2000/svg">
<g opacity="0.6">
<mask id="path-1-inside-1_899_5045" fill="white">
<path d="M42.9802 39.0634C38.0873 44.7574 26.9697 46.1085 23.9683 40.8778C20.2721 34.4504 28.813 30.7059 33.0014 24.9733C35.4044 21.6728 35.5395 19.6751 35.0763 16.7992C34.8157 15.1875 33.2427 12.9871 31.9881 11.443C31.438 10.7578 32.1135 9.79274 33.011 9.98575C39.3709 11.4044 44.756 15.9789 46.58 21.2096C48.6452 27.1448 48.0179 33.2344 42.9995 39.0634M30 6C18.3998 6 9 15.3998 9 27C9 38.6002 18.3998 48 30 48C41.6002 48 51 38.6002 51 27C51 15.3998 41.6002 6 30 6Z"/>
</mask>
<path d="M42.9802 39.0634C38.0873 44.7574 26.9697 46.1085 23.9683 40.8778C20.2721 34.4504 28.813 30.7059 33.0014 24.9733C35.4044 21.6728 35.5395 19.6751 35.0763 16.7992C34.8157 15.1875 33.2427 12.9871 31.9881 11.443C31.438 10.7578 32.1135 9.79274 33.011 9.98575C39.3709 11.4044 44.756 15.9789 46.58 21.2096C48.6452 27.1448 48.0179 33.2344 42.9995 39.0634M30 6C18.3998 6 9 15.3998 9 27C9 38.6002 18.3998 48 30 48C41.6002 48 51 38.6002 51 27C51 15.3998 41.6002 6 30 6Z" fill="url(#paint0_linear_899_5045)"/>
<path d="M23.9683 40.8778L24.1418 40.7782L24.1417 40.778L23.9683 40.8778ZM33.0014 24.9733L33.1629 25.0913L33.1631 25.0911L33.0014 24.9733ZM35.0763 16.7992L35.2737 16.7674L35.2737 16.7673L35.0763 16.7992ZM31.9881 11.443L31.8321 11.5682L31.8328 11.5691L31.9881 11.443ZM33.011 9.98575L33.0546 9.79054L33.0531 9.79022L33.011 9.98575ZM46.58 21.2096L46.7689 21.1438L46.7688 21.1437L46.58 21.2096ZM42.8286 38.9331C40.4222 41.7333 36.4711 43.4769 32.744 43.8684C29.0049 44.2612 25.5825 43.289 24.1418 40.7782L23.7948 40.9773C25.3555 43.6972 28.9925 44.6648 32.7858 44.2662C36.5912 43.8664 40.6453 42.0874 43.1319 39.1938L42.8286 38.9331ZM24.1417 40.778C23.2411 39.212 23.0929 37.8262 23.425 36.5372C23.7596 35.2386 24.5867 34.0175 25.6772 32.7983C26.7681 31.5785 28.1028 30.3814 29.4405 29.1184C30.7733 27.86 32.1041 26.5404 33.1629 25.0913L32.8399 24.8554C31.8044 26.2725 30.497 27.5708 29.1659 28.8275C27.8397 30.0798 26.4848 31.2953 25.379 32.5316C24.2727 33.7686 23.3959 35.047 23.0377 36.4374C22.677 37.8373 22.8474 39.3298 23.7949 40.9775L24.1417 40.778ZM33.1631 25.0911C34.3746 23.427 35.025 22.077 35.3091 20.7695C35.5932 19.462 35.5069 18.2147 35.2737 16.7674L34.8788 16.831C35.1089 18.2595 35.1867 19.4491 34.9182 20.6846C34.6498 21.92 34.0312 23.2191 32.8397 24.8556L33.1631 25.0911ZM35.2737 16.7673C35.137 15.9213 34.6612 14.9408 34.0751 13.9908C33.4862 13.036 32.7735 12.0925 32.1433 11.3169L31.8328 11.5691C32.4572 12.3376 33.1583 13.2664 33.7347 14.2008C34.314 15.1398 34.755 16.0653 34.8788 16.8311L35.2737 16.7673ZM32.144 11.3178C31.9313 11.0528 31.9529 10.7389 32.1204 10.4999C32.2893 10.259 32.6033 10.1027 32.969 10.1813L33.0531 9.79022C32.5212 9.67584 32.0487 9.9055 31.7929 10.2702C31.5359 10.6368 31.4947 11.148 31.8321 11.5682L32.144 11.3178ZM32.9675 10.181C39.2697 11.5868 44.5931 16.1192 46.3911 21.2754L46.7688 21.1437C44.9189 15.8386 39.472 11.2221 33.0546 9.79055L32.9675 10.181ZM46.3911 21.2753C48.4343 27.1472 47.817 33.1612 42.848 38.9329L43.1511 39.1939C48.2188 33.3076 48.8561 27.1423 46.7689 21.1438L46.3911 21.2753ZM30 5.8C18.2894 5.8 8.8 15.2894 8.8 27H9.2C9.2 15.5103 18.5103 6.2 30 6.2V5.8ZM8.8 27C8.8 38.7106 18.2894 48.2 30 48.2V47.8C18.5103 47.8 9.2 38.4897 9.2 27H8.8ZM30 48.2C41.7106 48.2 51.2 38.7106 51.2 27H50.8C50.8 38.4897 41.4897 47.8 30 47.8V48.2ZM51.2 27C51.2 15.2894 41.7106 5.8 30 5.8V6.2C41.4897 6.2 50.8 15.5103 50.8 27H51.2Z" fill="white" mask="url(#path-1-inside-1_899_5045)"/>
<path d="M64.072 29.816C64.072 30.4133 63.9173 30.9627 63.608 31.464C63.3093 31.9653 62.8613 32.3653 62.264 32.664C61.6773 32.9627 60.9627 33.112 60.12 33.112C58.8507 33.112 57.8053 32.8027 56.984 32.184C56.1627 31.5653 55.7147 30.7013 55.64 29.592H58.552C58.5947 30.0187 58.744 30.3547 59 30.6C59.2667 30.8453 59.6027 30.968 60.008 30.968C60.36 30.968 60.6373 30.872 60.84 30.68C61.0427 30.488 61.144 30.232 61.144 29.912C61.144 29.624 61.048 29.384 60.856 29.192C60.6747 29 60.4453 28.8453 60.168 28.728C59.8907 28.6 59.5067 28.4507 59.016 28.28C58.3013 28.0347 57.7147 27.8 57.256 27.576C56.808 27.3413 56.4187 27 56.088 26.552C55.768 26.0933 55.608 25.5013 55.608 24.776C55.608 24.104 55.7787 23.5227 56.12 23.032C56.4613 22.5413 56.9307 22.168 57.528 21.912C58.136 21.6453 58.8293 21.512 59.608 21.512C60.8667 21.512 61.864 21.8107 62.6 22.408C63.3467 23.0053 63.768 23.8267 63.864 24.872H60.904C60.8507 24.4987 60.712 24.2053 60.488 23.992C60.2747 23.768 59.9813 23.656 59.608 23.656C59.288 23.656 59.0267 23.7413 58.824 23.912C58.632 24.0827 58.536 24.3333 58.536 24.664C58.536 24.9307 58.6213 25.16 58.792 25.352C58.9733 25.5333 59.1973 25.6827 59.464 25.8C59.7307 25.9173 60.1147 26.0667 60.616 26.248C61.3413 26.4933 61.9333 26.7387 62.392 26.984C62.8507 27.2187 63.2453 27.5653 63.576 28.024C63.9067 28.4827 64.072 29.08 64.072 29.816ZM75.7606 27.32C75.7606 28.4293 75.5206 29.416 75.0406 30.28C74.5713 31.1333 73.8886 31.8 72.9926 32.28C72.1073 32.76 71.062 33 69.8566 33H65.5846V21.688H69.8566C71.0726 21.688 72.1233 21.9227 73.0086 22.392C73.894 22.8613 74.5713 23.5227 75.0406 24.376C75.5206 25.2293 75.7606 26.2107 75.7606 27.32ZM69.6166 30.552C70.6833 30.552 71.51 30.2693 72.0966 29.704C72.694 29.1387 72.9926 28.344 72.9926 27.32C72.9926 26.296 72.694 25.5013 72.0966 24.936C71.51 24.3707 70.6833 24.088 69.6166 24.088H68.3206V30.552H69.6166ZM84.327 30.936H80.087L79.383 33H76.503L80.647 21.768H83.799L87.943 33H85.031L84.327 30.936ZM83.623 28.856L82.215 24.696L80.791 28.856H83.623ZM94.3825 21.512C95.4492 21.512 96.4145 21.7627 97.2785 22.264C98.1532 22.7547 98.8412 23.4427 99.3425 24.328C99.8438 25.2027 100.095 26.1947 100.095 27.304C100.095 28.4133 99.8385 29.4107 99.3265 30.296C98.8252 31.1813 98.1372 31.8747 97.2625 32.376C96.3985 32.8667 95.4385 33.112 94.3825 33.112C93.3265 33.112 92.3612 32.8667 91.4865 32.376C90.6225 31.8747 89.9345 31.1813 89.4225 30.296C88.9212 29.4107 88.6705 28.4133 88.6705 27.304C88.6705 26.1947 88.9212 25.2027 89.4225 24.328C89.9345 23.4427 90.6225 22.7547 91.4865 22.264C92.3612 21.7627 93.3265 21.512 94.3825 21.512ZM94.3825 24.056C93.4865 24.056 92.7718 24.3493 92.2385 24.936C91.7158 25.512 91.4545 26.3013 91.4545 27.304C91.4545 28.296 91.7158 29.0853 92.2385 29.672C92.7718 30.2587 93.4865 30.552 94.3825 30.552C95.2678 30.552 95.9772 30.2587 96.5105 29.672C97.0438 29.0853 97.3105 28.296 97.3105 27.304C97.3105 26.312 97.0438 25.5227 96.5105 24.936C95.9878 24.3493 95.2785 24.056 94.3825 24.056ZM107.571 30.904H111.219V33H104.835V21.688H107.571V30.904ZM119.483 30.936H115.243L114.539 33H111.659L115.803 21.768H118.955L123.099 33H120.187L119.483 30.936ZM118.779 28.856L117.371 24.696L115.947 28.856H118.779ZM130.947 27.176C131.629 27.336 132.168 27.6667 132.563 28.168C132.968 28.6693 133.171 29.2507 133.171 29.912C133.171 30.8827 132.845 31.64 132.195 32.184C131.555 32.728 130.632 33 129.427 33H124.163V21.688H129.299C130.451 21.688 131.341 21.9387 131.971 22.44C132.6 22.9413 132.915 23.656 132.915 24.584C132.915 25.2667 132.733 25.8373 132.371 26.296C132.008 26.744 131.533 27.0373 130.947 27.176ZM126.899 26.312H128.691C129.64 26.312 130.115 25.9067 130.115 25.096C130.115 24.2853 129.629 23.88 128.659 23.88H126.899V26.312ZM128.851 30.776C129.864 30.776 130.371 30.36 130.371 29.528C130.371 29.1227 130.237 28.808 129.971 28.584C129.704 28.3493 129.325 28.232 128.835 28.232H126.899V30.776H128.851ZM142.744 29.816C142.744 30.4133 142.589 30.9627 142.28 31.464C141.981 31.9653 141.533 32.3653 140.936 32.664C140.349 32.9627 139.635 33.112 138.792 33.112C137.523 33.112 136.477 32.8027 135.656 32.184C134.835 31.5653 134.387 30.7013 134.312 29.592H137.224C137.267 30.0187 137.416 30.3547 137.672 30.6C137.939 30.8453 138.275 30.968 138.68 30.968C139.032 30.968 139.309 30.872 139.512 30.68C139.715 30.488 139.816 30.232 139.816 29.912C139.816 29.624 139.72 29.384 139.528 29.192C139.347 29 139.117 28.8453 138.84 28.728C138.563 28.6 138.179 28.4507 137.688 28.28C136.973 28.0347 136.387 27.8 135.928 27.576C135.48 27.3413 135.091 27 134.76 26.552C134.44 26.0933 134.28 25.5013 134.28 24.776C134.28 24.104 134.451 23.5227 134.792 23.032C135.133 22.5413 135.603 22.168 136.2 21.912C136.808 21.6453 137.501 21.512 138.28 21.512C139.539 21.512 140.536 21.8107 141.272 22.408C142.019 23.0053 142.44 23.8267 142.536 24.872H139.576C139.523 24.4987 139.384 24.2053 139.16 23.992C138.947 23.768 138.653 23.656 138.28 23.656C137.96 23.656 137.699 23.7413 137.496 23.912C137.304 24.0827 137.208 24.3333 137.208 24.664C137.208 24.9307 137.293 25.16 137.464 25.352C137.645 25.5333 137.869 25.6827 138.136 25.8C138.403 25.9173 138.787 26.0667 139.288 26.248C140.013 26.4933 140.605 26.7387 141.064 26.984C141.523 27.2187 141.917 27.5653 142.248 28.024C142.579 28.4827 142.744 29.08 142.744 29.816Z" fill="white"/>
</g>
<defs>
<linearGradient id="paint0_linear_899_5045" x1="9" y1="6" x2="51" y2="48" gradientUnits="userSpaceOnUse">
<stop offset="0.313754" stop-color="#818181"/>
<stop offset="0.75879" stop-color="white"/>
</linearGradient>
</defs>
</svg>
