<?xml version="1.0" encoding="UTF-8"?>
<svg id="Layer_1" data-name="Layer 1" xmlns="http://www.w3.org/2000/svg" viewBox="0 0 154 54">
  <defs>
    <style>
      .cls-1 {
        fill: #9a999a;
      }

      .cls-1, .cls-2 {
        stroke-width: 0px;
      }

      .cls-2 {
        fill: none;
      }
    </style>
  </defs>
  <rect class="cls-2" y="0" width="154" height="54"/>
  <g>
    <path class="cls-1" d="M63.2,40.64c.96,0,1.91,0,2.87,0,.56,0,1.12.14,1.59.46.15.1.3.22.44.37.19.2.33.4.44.6.13.25.2.49.26.8.07.42.06.64.04,1.68-.02.81-.02,1.15-.15,1.57-.09.3-.21.5-.26.59-.04.07-.16.26-.38.49-.22.22-.56.58-1.1.74-.2.06-.49.06-1.08.07-.35,0-.65,0-.85,0,0,1.63,0,3.26,0,4.89h-1.79c0-4.09-.01-8.17-.02-12.26ZM67.18,44.18c-.01-1.34-.14-1.55-.29-1.66-.18-.14-.47-.15-1.05-.19-.35-.02-.64-.02-.85,0,0,1.32,0,2.64.01,3.96.21.02.51.03.88.02.55-.02.83-.03.99-.13.12-.08.33-.29.31-2Z"/>
    <path class="cls-1" d="M56.54,52.92h-1.67c-.19-.89-.38-1.78-.56-2.67h-2.45c-.16.88-.32,1.77-.47,2.65-.56,0-1.13,0-1.69-.01.9-4.08,1.79-8.17,2.69-12.25h1.47c.9,4.1,1.79,8.19,2.69,12.29ZM54.11,48.53c-.25-1.33-.51-2.66-.76-3.99-.14,0-.29,0-.43,0-.26,1.33-.52,2.65-.79,3.98.66,0,1.32,0,1.98.01Z"/>
    <path class="cls-1" d="M101.92,52.92h-1.67c-.19-.89-.38-1.78-.56-2.67h-2.45c-.16.88-.32,1.77-.47,2.65-.56,0-1.13,0-1.69-.01.9-4.08,1.79-8.17,2.69-12.25h1.47c.9,4.1,1.79,8.19,2.69,12.29ZM99.49,48.53c-.25-1.33-.51-2.66-.76-3.99-.14,0-.29,0-.43,0-.26,1.33-.52,2.65-.79,3.98.66,0,1.32,0,1.98.01Z"/>
    <path class="cls-1" d="M43.15,43.97c-.57,0-1.14,0-1.7.01,0-.16,0-.4-.04-.67-.04-.36-.06-.54-.16-.68-.23-.36-.78-.39-.96-.4-.2.01-.49.06-.71.27-.36.33-.35.88-.35,1.1,0,2.28,0,4.57,0,6.74,0,.06.09.52.52.78.41.25.83.12.93.09.25-.08.4-.23.46-.29.49-.49.43-1.22.42-1.37h1.52c.13,1.29-.39,2.24-1.39,2.93-.84.58-2.27.47-3.12-.2-.64-.5-.99-1.21-1-2.02-.02-2.33-.07-4.65,0-6.98.01-.38.08-1.05.52-1.68.06-.08.27-.36.58-.59.85-.62,2.27-.75,3.29-.01.82.59,1.04,1.49,1.11,1.77.12.5.1.94.07,1.21Z"/>
    <path class="cls-1" d="M108.47,40.64c.64,0,1.29-.02,1.93-.02v10.33c1.14,0,2.29.02,3.43.02,0,.64,0,1.29.01,1.93-1.8,0-3.59-.02-5.39-.02,0-4.08,0-8.16.01-12.24Z"/>
    <path class="cls-1" d="M88.28,52.94c0-3.53,0-7.06,0-10.58.66,0,1.32,0,1.98,0v-1.71c-1.01,0-1.44,0-2.43,0h-.47c-1,0-1.99,0-2.99,0v1.71c.65,0,1.31,0,1.96,0v10.58h1.96Z"/>
    <path class="cls-1" d="M75.99,53.5h1.95v-13.47h-1.95v13.47Z"/>
    <path class="cls-1" d="M46.28.5c1.18,0,2.27.25,3.28.67.98.41,1.87,1.01,2.61,1.77,1.35,1.43,2.1,3.11,2.19,4.96h0v2.61h-4.8v-1.35c0-1.01-.34-1.85-.76-2.61-.5-.84-1.43-1.18-2.61-1.18-.67,0-1.18.17-1.6.42s-.76.59-1.01.93c-.25.42-.42.93-.5,1.43-.17.5-.25,1.01-.25,1.6l.08,1.68c.08.42.17.84.34,1.18s.5.67.84.93.76.42,1.26.67h0l.25.08,3.7,1.51.34.17c.93.42,1.68.84,2.27,1.35.67.59,1.18,1.18,1.6,1.94.34.76.59,1.6.67,2.61l.17,3.28c0,1.43-.17,2.78-.42,3.95h0l2.02-.59c-.25,1.01-.67,1.94-1.26,2.69-.67.93-1.51,1.6-2.61,2.1s-2.36.5-3.87.5c-1.18,0-2.27-.17-3.28-.59-.5-.17-.93-.42-1.35-.76h0l-2.61.76c-.25-.25-.5-.42-.76-.67-.76-.76-1.35-1.6-1.68-2.52-.42-.84-.59-1.85-.67-2.86h0v-2.1h4.8v1.77c0,.76.34,1.51.76,2.19.5.67,1.43,1.09,2.61,1.09.84,0,1.43-.08,1.94-.34.42-.25.84-.59,1.09-1.01s.42-1.01.42-1.6l.08-2.1-.17-2.19c-.08-.59-.17-1.01-.34-1.35-.25-.34-.5-.67-.84-.84-.42-.25-.76-.42-1.18-.59h0l-.25-.08-3.45-1.43-.34-.17c-1.94-.84-3.2-1.94-3.87-3.28-.67-1.43-1.09-3.2-1.09-5.3,0-1.22.17-2.44.5-3.62.34-1.18.84-2.1,1.6-2.95.67-.84,1.51-1.51,2.52-1.94s2.27-.84,3.62-.84h0ZM102.66.5c1.01,0,1.94.17,2.86.5s1.85.84,2.61,1.51,1.35,1.6,1.85,2.61c.42.93.67,2.02.67,3.28h0v3.37l2.1-.67v14.81c0,1.26-.25,2.36-.67,3.28-.5,1.01-1.09,1.85-1.85,2.52s-1.68,1.18-2.61,1.6c-.84.34-1.85.5-2.78.5-.98,0-1.94-.17-2.86-.5-.93-.34-1.85-.84-2.61-1.6-.76-.67-1.43-1.51-1.85-2.52-.42-.93-.67-2.02-.67-3.28h0v-9.51l-2.1.67v-8.67c0-1.18.25-2.27.67-3.28.5-1.01,1.09-1.94,1.85-2.61s1.6-1.18,2.61-1.51c.84-.34,1.85-.5,2.78-.5h0ZM67.91.84l6.14,17.92h.08L80.28.84h4.71v18.76l2.1-.67v14.64h-4.8v-12.79l-2.1.67v-7.41h-.08l-2.52,7.74,2.02-.59-2.1,6.31h-2.44l-1.35-4.12-2.27.67-3.28-10.01h-.08v10.6l2.1-.67v9.59h-4.8v-7.66l-2.1.67V.84h4.63ZM102.66,5.38c-.84,0-1.68.25-2.27.84-.59.5-.93,1.26-.93,2.36h0v6.65l2.1-.67v11.28c0,1.09.34,1.85.93,2.36.62.56,1.44.86,2.27.84.84,0,1.68-.25,2.27-.84.59-.5.93-1.26.93-2.36h0v-12.79l-2.02.67v-5.13c0-1.09-.34-1.85-.93-2.36-.67-.59-1.43-.84-2.36-.84h0ZM115.28,5.46l5.47,2.95-2.95,5.72-2.52-8.67Z"/>
  </g>
</svg>