<svg width="154" height="54" viewBox="0 0 154 54" fill="none" xmlns="http://www.w3.org/2000/svg">
<g opacity="0.6">
<g clip-path="url(#clip0_899_5047)">
<path d="M85.97 45.0217H87.3025L91.5925 52.7964L95.8825 45.0217H97.215L92.3075 53.8699H90.845L85.97 45.0217Z" fill="white"/>
<path d="M98.645 45.0217H107.323V45.9976H99.8475V48.8277H107.03V49.8036H99.8475V52.8939H107.388V53.8699H98.6775L98.645 45.0217Z" fill="white"/>
<path d="M109.11 45.0217H116.162C118.697 45.0217 119.12 45.8674 119.12 47.5265V48.2421C119.12 49.4783 118.405 49.8361 117.495 49.9012V49.9337C118.73 50.1614 119.022 50.7795 119.022 51.5927V53.8373H117.885V51.8855C117.885 50.5192 117.202 50.3241 116.13 50.3241H110.312V53.8048H109.11V45.0217ZM116.032 49.3807C117.365 49.3807 117.917 49.0229 117.917 48.112V47.2988C117.917 46.3229 117.495 45.9976 115.74 45.9976H110.312V49.3807H116.032Z" fill="white"/>
<path d="M121.005 51.0723H122.142V51.6904C122.142 52.5687 122.597 52.959 124.092 52.959H127.797C129.52 52.959 130.04 52.6012 130.04 51.3325C130.04 50.2265 129.585 49.9337 128.122 49.9337H125.847C122.207 49.9337 121.005 49.706 121.005 47.3639C121.005 45.347 122.207 44.8916 124.677 44.8916H127.245C130.202 44.8916 130.95 45.6398 130.95 47.2337V47.5265H129.812C129.78 46.1277 129.65 45.8675 126.497 45.8675H125.23C122.922 45.8675 122.11 45.9976 122.11 47.4289C122.11 48.4699 122.435 48.8277 124.32 48.8277H127.862C130.202 48.8277 131.177 49.5108 131.177 51.0072V51.5928C131.177 53.7723 129.39 53.9349 127.635 53.9349H124.32C122.565 53.9349 121.037 53.6422 121.037 51.6904L121.005 51.0723Z" fill="white"/>
<path d="M133.258 45.0217H141.935V45.9976H134.46V48.8277H141.643V49.8036H134.46V52.8939H142V53.8699H133.29V45.0217H133.258Z" fill="white"/>
<path d="M96.9876 28.6916H93.4776C93.6401 29.6675 93.7701 31.0988 93.7701 33.2132V37.0843C93.7701 39.1988 93.6726 40.6626 93.4776 41.606H96.9876C96.8251 40.6301 96.6951 39.1988 96.6951 37.0843V33.2132C96.7276 31.1313 96.8251 29.6675 96.9876 28.6916Z" fill="white"/>
<path d="M26.82 35.5554C22.92 33.1482 16.29 34.1241 16.29 32.2699C16.29 31.6518 17.525 30.6108 21.0025 30.6108C23.6675 30.6108 26.3 31.5542 28.0875 32.3675L27.1125 29.5048C25.8125 28.9518 23.57 28.5289 21.3275 28.5289C17.6225 28.5289 15.6725 29.2446 14.405 30.3181C13.2675 31.294 12.91 32.0422 12.0325 32.6602C12.7475 33.1807 13.2025 34.0265 14.405 34.7422C18.305 37.1494 24.935 36.1735 24.935 38.0277C24.935 38.6458 23.7 39.6867 20.2225 39.6867C17.5575 39.6867 14.925 38.7434 13.1375 37.9301L14.1125 40.7928C15.4125 41.3458 17.655 41.7687 19.8975 41.7687C23.6025 41.7687 25.5525 41.053 26.82 39.9795C27.9575 39.0036 28.315 38.2554 29.1925 37.6373C28.4775 37.1169 28.0225 36.3036 26.82 35.5554Z" fill="white"/>
<path d="M47.3274 30.8711C45.6374 29.3747 43.6874 28.5615 41.1524 28.5615C38.6174 28.5615 36.6349 29.3747 34.9774 30.8711C33.5799 32.1072 32.3124 34.1241 31.1099 35.1651C32.3124 36.206 33.6124 38.2229 34.9774 39.4591C36.6674 40.9554 38.6174 41.7687 41.1524 41.7687C43.6874 41.7687 45.6699 40.9554 47.3274 39.4591C48.7249 38.2229 49.9924 36.206 51.1949 35.1651C49.9599 34.1241 48.6924 32.1072 47.3274 30.8711ZM41.1199 39.5241C37.9024 39.5241 35.5299 37.247 35.5299 35.1651C35.5299 33.0831 37.9024 30.806 41.1199 30.806C44.3374 30.806 46.7099 33.0831 46.7099 35.1651C46.7099 37.247 44.3699 39.5241 41.1199 39.5241Z" fill="white"/>
<path d="M109.793 28.5289C106.77 28.5289 103.813 31.912 100.303 41.606H103.65C105.795 34.3518 107.908 30.9687 109.793 30.9687C111.06 30.9687 112.393 32.465 113.79 35.5879C111.028 34.5795 106.998 34.6771 106.283 36.9217C108.818 36.6289 111.353 36.7916 112.815 37.4096C114.44 38.0928 115.253 39.3614 115.935 41.606H119.283C115.773 31.912 112.815 28.5289 109.793 28.5289Z" fill="white"/>
<path d="M63.6426 28.6916H54.3151C54.4776 29.6675 54.6076 31.0988 54.6076 33.2132V37.0843C54.6076 39.1988 54.5101 40.6626 54.3151 41.606H57.8251C57.6626 40.6301 57.5326 39.1988 57.5326 37.0843V30.7084H63.5776C65.6251 30.7084 66.6651 31.3916 66.6651 32.7253C66.6651 34.059 65.6251 34.7422 63.5776 34.7422H62.1151C59.9376 34.7422 58.7676 35.653 58.6051 36.759H63.6101C67.6401 36.759 69.6876 35.3928 69.6876 32.6928C69.6876 29.9928 67.6726 28.6916 63.6426 28.6916Z" fill="white"/>
<path d="M76.5775 28.6916H73.0675C73.23 29.6675 73.36 31.0988 73.36 33.2132V37.0843C73.36 39.1988 73.2625 40.6626 73.0675 41.606H76.5775C76.415 40.6301 76.285 39.1988 76.285 37.0843V33.2132C76.3175 31.1313 76.415 29.6675 76.5775 28.6916Z" fill="white"/>
<path d="M88.6999 28.6916H85.1899C85.3524 29.6675 85.4824 31.0988 85.4824 33.2132V34.7747H80.9324C78.7549 34.7747 77.5849 35.6855 77.4224 36.7916H85.4499V37.0843C85.4499 39.1988 85.3524 40.6626 85.1574 41.606H88.6999C88.5374 40.6301 88.4074 39.1988 88.4074 37.0843V33.2132C88.4074 31.1313 88.5049 29.6675 88.6999 28.6916Z" fill="white"/>
<path d="M43.1026 24.788C45.9626 24.788 50.1551 22.5434 52.5276 18.8024C54.9976 14.9313 54.8351 9.46627 55.5826 7.31928C53.6001 7.22169 51.0326 7.54699 49.1476 8.03494V10.3771C50.0251 10.0518 51.4226 9.79157 52.3001 9.79157C52.1051 16.753 48.4651 22.088 43.1026 24.788Z" fill="white"/>
<path d="M36.7976 25.6012C32.2801 25.2434 26.7551 21.5024 24.5776 18.6723C25.1301 18.3795 26.1051 17.9892 26.9176 17.794C26.5276 17.1434 26.0726 16.1024 25.8776 15.3217C23.8951 16.0048 21.6201 17.3061 20.3526 18.4446C22.1401 19.3229 24.3176 21.9904 27.0476 23.7145C30.9151 26.1217 34.1326 26.1217 36.7976 25.6012Z" fill="white"/>
<path d="M41.6725 16.4277C41.705 14.1506 37.74 10.6048 37.74 7.54697C37.74 5.98552 39.1375 4.19637 40.8925 3.18793C42.9075 4.61926 45.5075 7.74215 46.905 10.5397C47.75 6.79877 45.605 3.1554 40.8925 0.0650406C38 1.46384 34.62 4.61926 34.62 7.64456C34.62 10.2795 37.74 14.8988 40.8925 18.5747C41.2825 18.1518 41.6725 17.3385 41.6725 16.4277Z" fill="white"/>
<path d="M40.925 24.6253C44.2075 22.8036 47.2625 19.0952 47.2625 16.0699C47.2625 13.1747 43.2975 8.36024 40.925 5.85542C40.5675 6.21325 40.21 6.92892 40.21 7.64458C40.21 9.79157 44.1425 13.8904 44.1425 16.1349C44.1425 17.7289 42.94 19.8434 40.925 21.2422C38.065 19.2253 35.14 15.4193 33.7425 11.841C32.1175 15.8096 35.14 21.0145 40.925 24.6253Z" fill="white"/>
<path d="M38.7475 24.7879C33.385 22.0879 29.745 16.753 29.55 9.82409C30.4275 9.82409 31.825 10.0518 32.7025 10.4096V8.06747C30.785 7.54698 28.25 7.25421 26.2675 7.3518C27.0475 9.49879 26.8525 14.9638 29.3225 18.8349C31.695 22.5434 35.8875 24.7879 38.7475 24.7879Z" fill="white"/>
<path d="M57.24 18.6723C55.0625 21.5024 49.505 25.2434 45.02 25.6012C47.685 26.0892 50.9025 26.1217 54.77 23.6819C57.4675 21.9578 59.6775 19.2904 61.465 18.412C60.1975 17.2735 57.9225 15.9723 55.94 15.2892C55.745 16.0699 55.3225 17.1434 54.9 17.7614C55.7125 17.9892 56.6875 18.3795 57.24 18.6723Z" fill="white"/>
</g>
</g>
<defs>
<clipPath id="clip0_899_5047">
<rect width="130" height="54" fill="white" transform="translate(12)"/>
</clipPath>
</defs>
</svg>
