<svg width="154" height="54" viewBox="0 0 154 54" fill="none" xmlns="http://www.w3.org/2000/svg">
<g opacity="0.6">
<g clip-path="url(#clip0_899_5051)">
<mask id="mask0_899_5051" style="mask-type:alpha" maskUnits="userSpaceOnUse" x="11" y="16" width="24" height="24">
<path d="M23.0493 39.0074C29.3443 39.0074 34.4474 33.8657 34.4474 27.523C34.4474 21.1804 29.3443 16.0387 23.0493 16.0387C16.7544 16.0387 11.6513 21.1804 11.6513 27.523C11.6513 33.8657 16.7544 39.0074 23.0493 39.0074Z" fill="white"/>
</mask>
<g mask="url(#mask0_899_5051)">
<path d="M23.0493 39.0074C29.3443 39.0074 34.4474 33.8657 34.4474 27.523C34.4474 21.1804 29.3443 16.0387 23.0493 16.0387C16.7544 16.0387 11.6513 21.1804 11.6513 27.523C11.6513 33.8657 16.7544 39.0074 23.0493 39.0074Z" fill="#818181"/>
<path d="M11.6513 61.9761C24.2412 61.9761 34.4474 51.6927 34.4474 39.0074C34.4474 26.3221 24.2412 16.0387 11.6513 16.0387C-0.938589 16.0387 -11.1447 26.3221 -11.1447 39.0074C-11.1447 51.6927 -0.938589 61.9761 11.6513 61.9761Z" fill="#818181"/>
<path d="M34.4474 61.9761C47.0374 61.9761 57.2434 51.6927 57.2434 39.0074C57.2434 26.3221 47.0374 16.0387 34.4474 16.0387C21.8575 16.0387 11.6513 26.3221 11.6513 39.0074C11.6513 51.6927 21.8575 61.9761 34.4474 61.9761Z" fill="#818181"/>
<path d="M34.4474 39.0074C47.0374 39.0074 57.2434 28.7239 57.2434 16.0387C57.2434 3.35339 47.0374 -6.93008 34.4474 -6.93008C21.8575 -6.93008 11.6513 3.35339 11.6513 16.0387C11.6513 28.7239 21.8575 39.0074 34.4474 39.0074Z" fill="#818181"/>
<path d="M11.6513 39.0074C24.2412 39.0074 34.4474 28.7239 34.4474 16.0387C34.4474 3.35339 24.2412 -6.93008 11.6513 -6.93008C-0.938589 -6.93008 -11.1447 3.35339 -11.1447 16.0387C-11.1447 28.7239 -0.938589 39.0074 11.6513 39.0074Z" fill="#818181"/>
<path fill-rule="evenodd" clip-rule="evenodd" d="M34.4419 27.164C34.4455 27.2832 34.4474 27.4029 34.4474 27.523C34.4474 33.8657 29.3443 39.0074 23.0493 39.0074C16.7544 39.0074 11.6513 33.8657 11.6513 27.523C11.6513 27.4029 11.6531 27.2832 11.6568 27.164C11.845 33.3408 16.8736 38.2896 23.0493 38.2896C29.2184 38.2896 34.2428 33.3515 34.4413 27.1843L34.4419 27.164Z" fill="#818181"/>
<path fill-rule="evenodd" clip-rule="evenodd" d="M34.4419 27.8821C34.4455 27.7629 34.4474 27.6432 34.4474 27.5231C34.4474 21.1805 29.3443 16.0387 23.0493 16.0387C16.7544 16.0387 11.6513 21.1805 11.6513 27.5231C11.6513 27.6432 11.6531 27.7629 11.6568 27.8821C11.845 21.7053 16.8736 16.7565 23.0493 16.7565C29.2184 16.7565 34.2428 21.6946 34.4413 27.8618L34.4419 27.8821Z" fill="#818181"/>
<path fill-rule="evenodd" clip-rule="evenodd" d="M27.2294 30.7685C27.5133 31.0532 27.5275 31.5061 27.2719 31.8077L27.2294 31.854L24.1683 34.9245C23.8694 35.2244 23.3849 35.2244 23.0861 34.9245C22.8021 34.6398 22.7879 34.1869 23.0435 33.8853L23.0861 33.839L26.1472 30.7685C26.446 30.4687 26.9305 30.4687 27.2294 30.7685ZM22.862 21.3322C25.3978 21.3322 27.4534 23.3943 27.4534 25.9379C27.4534 28.4816 25.3978 30.5436 22.862 30.5436C20.3262 30.5436 18.2705 28.4816 18.2705 25.9379C18.2705 23.3943 20.3262 21.3322 22.862 21.3322ZM22.862 22.8675C21.1715 22.8675 19.801 24.2421 19.801 25.9379C19.801 27.6338 21.1715 29.0084 22.862 29.0084C24.5526 29.0084 25.923 27.6338 25.923 25.9379C25.923 24.2421 24.5526 22.8675 22.862 22.8675ZM28.2188 21.3322C28.6414 21.3322 28.984 21.6759 28.984 22.0999C28.984 22.5239 28.6414 22.8675 28.2188 22.8675C27.7961 22.8675 27.4535 22.5239 27.4535 22.0999C27.4535 21.6759 27.7961 21.3322 28.2188 21.3322Z" fill="white"/>
</g>
<path d="M26.5261 42.6651C26.3384 42.6651 26.1693 42.5363 26.1239 42.3451C26.0723 42.1207 26.2105 41.8983 26.4312 41.8464C33.0513 40.2879 37.6751 34.4094 37.6751 27.5479C37.6751 19.6267 31.5252 13.1829 23.6759 12.8774C23.449 12.8691 23.2717 12.6758 23.2799 12.4452C23.2882 12.2166 23.4738 12.04 23.7089 12.0462C32.0036 12.3704 38.5001 19.1778 38.5001 27.5479C38.5001 31.0701 37.2977 34.5174 35.1137 37.2561C32.9626 39.9554 29.9454 41.8713 26.6189 42.6547C26.5879 42.663 26.5549 42.6651 26.524 42.6651H26.5261Z" fill="#818181"/>
<path d="M22.5148 43.0476C22.5148 43.0476 22.5045 43.0476 22.4983 43.0476C14.2035 42.7255 7.70715 35.916 7.70715 27.5459C7.70715 24.0113 8.91772 20.5556 11.1162 17.8106C13.2816 15.1071 16.3154 13.1933 19.6564 12.4225C19.8771 12.3705 20.0998 12.5118 20.1514 12.7341C20.2029 12.9585 20.0627 13.1809 19.842 13.2328C16.6784 13.9622 13.8076 15.7721 11.7597 18.3322C9.67875 20.9296 8.53414 24.2025 8.53414 27.5459C8.53414 35.4671 14.6841 41.9109 22.5333 42.2164C22.7602 42.2247 22.9376 42.418 22.9293 42.6486C22.9211 42.873 22.7375 43.0476 22.5169 43.0476H22.5148Z" fill="#818181"/>
<path d="M24.3977 11.8177C24.2265 11.6369 23.9955 11.533 23.748 11.5267C23.4985 11.5205 23.2634 11.6119 23.0839 11.7844C22.9046 11.9569 22.8014 12.1896 22.7952 12.4389C22.7891 12.6883 22.8798 12.9273 23.051 13.108C23.2221 13.2888 23.4531 13.3928 23.7006 13.399C23.7088 13.399 23.7171 13.399 23.7254 13.399C23.9646 13.399 24.1914 13.3076 24.3647 13.1413C24.5441 12.9689 24.6472 12.7361 24.6534 12.4868C24.6596 12.2374 24.5689 11.9984 24.3977 11.8177Z" fill="#818181"/>
<path d="M23.1582 41.9836C22.987 41.8029 22.756 41.699 22.5086 41.6928C21.993 41.6802 21.5682 42.0896 21.5558 42.605C21.5496 42.8543 21.6403 43.0933 21.8115 43.2741C21.9827 43.4549 22.2136 43.5587 22.4612 43.565C22.4694 43.565 22.4776 43.565 22.4859 43.565C22.987 43.565 23.4016 43.1598 23.4139 42.6527C23.4201 42.4034 23.3294 42.1644 23.1582 41.9836Z" fill="#818181"/>
<path d="M49.395 12.5836H47.7466V17.8021H48.6001V15.994H49.395C50.4603 15.994 51.1898 15.2517 51.1898 14.2888C51.1898 13.326 50.4603 12.5836 49.395 12.5836ZM49.3879 15.1855H48.6001V13.3921H49.3879C49.9932 13.3921 50.3509 13.7817 50.3509 14.2888C50.3509 14.796 49.9932 15.1855 49.3879 15.1855ZM58.2768 15.1929C58.2768 13.6861 57.0803 12.4954 55.5995 12.4954C54.1117 12.4954 52.9223 13.6861 52.9223 15.1929C52.9223 16.6996 54.1117 17.8903 55.5995 17.8903C57.0803 17.8903 58.2768 16.6996 58.2768 15.1929ZM53.7835 15.1929C53.7835 14.1565 54.5712 13.326 55.5995 13.326C56.6208 13.326 57.4085 14.1565 57.4085 15.1929C57.4085 16.2292 56.6208 17.0598 55.5995 17.0598C54.5712 17.0598 53.7835 16.2292 53.7835 15.1929ZM64.449 17.8021H65.2372L66.5791 12.5836H65.6749L64.7266 16.3762L63.2453 12.4954L61.7646 16.3762L60.8163 12.5836H59.9191L61.254 17.8021H62.0417L63.2453 14.6122L64.449 17.8021ZM68.569 17.8021H71.6839V16.9789H69.4226V15.5677H71.2462V14.7445H69.4226V13.4068H71.6839V12.5836H68.569V17.8021ZM73.881 17.8021H74.7345V15.5089H75.1211L77.0177 17.8021H78.0683L76.1423 15.4575C76.8865 15.2811 77.3171 14.8033 77.3171 14.0683C77.3171 13.2084 76.7117 12.5836 75.7487 12.5836H73.881V17.8021ZM74.7345 14.7592V13.3774H75.6464C76.1499 13.3774 76.4635 13.62 76.4635 14.0683C76.4635 14.5167 76.1499 14.7592 75.6464 14.7592H74.7345ZM79.7988 17.8021H82.9133V16.9789H80.6519V15.5677H82.4756V14.7445H80.6519V13.4068H82.9133V12.5836H79.7988V17.8021ZM85.1108 17.8021H86.701C88.2399 17.8021 89.4147 16.6702 89.4147 15.1929C89.4147 13.7155 88.2399 12.5836 86.701 12.5836H85.1108V17.8021ZM85.9639 17.001V13.3848H86.701C87.8099 13.3848 88.5464 14.1712 88.5464 15.1929C88.5464 16.2145 87.8099 17.001 86.701 17.001H85.9639ZM94.5023 17.8021H96.5154C97.5002 17.8021 98.1861 17.1406 98.1861 16.2733C98.1861 15.6265 97.8285 15.2296 97.3543 15.0312C97.639 14.818 97.8356 14.4873 97.8356 14.0242C97.8356 13.2451 97.2155 12.5836 96.2895 12.5836H94.5023V17.8021ZM95.3553 14.7813V13.3701H96.2454C96.7125 13.3701 96.9967 13.6935 96.9967 14.0757C96.9967 14.4726 96.7125 14.7813 96.2454 14.7813H95.3553ZM95.3553 17.0157V15.5163H96.4936C97.0478 15.5163 97.3543 15.8397 97.3543 16.266C97.3543 16.6996 97.0407 17.0157 96.4936 17.0157H95.3553ZM101.429 17.8021H102.282V15.6045L104.252 12.5836H103.245L101.852 14.7445L100.466 12.5836H99.4668L101.429 15.5971V17.8021Z" fill="#818181"/>
<path d="M51.3672 40.2604H54.3256V28.5821H58.1958V25.7646H47.5374V28.5821H51.3672V40.2604ZM59.1801 40.2604H61.9562V35.2787C61.9562 33.3187 62.9288 32.3796 64.2054 32.3796C65.3604 32.3796 65.9885 33.2779 65.9885 34.7479V40.2604H68.7646V34.2783C68.7646 31.6242 67.3056 29.8275 64.8538 29.8275C63.5367 29.8275 62.483 30.3992 61.9562 31.2158V24.9479H59.1801V40.2604ZM80.5502 36.9325H77.6525C77.3283 37.6267 76.4773 38.0554 75.5046 38.0554C73.7823 38.0554 72.8907 37.0142 72.7691 35.8096H80.6717C80.8136 31.9712 78.3617 29.8275 75.383 29.8275C72.303 29.8275 70.0538 32.0937 70.0538 35.1358C70.0538 38.2392 72.2625 40.485 75.3628 40.485C77.9362 40.485 79.9423 38.9946 80.5502 36.9325ZM75.302 32.0937C76.2544 32.0937 77.2878 32.6042 77.6323 33.9721H72.8704C73.1338 32.8492 74.0254 32.0937 75.302 32.0937ZM85.5217 33.0125C85.5217 37.2183 88.703 40.5054 93.1001 40.5054C97.3757 40.5054 100.841 37.545 100.192 31.5833H92.7557V34.36H97.1528C96.8286 36.3608 95.4304 37.6471 93.1001 37.6471C90.3038 37.6471 88.4801 35.6054 88.4801 33.0125C88.4801 30.4196 90.3038 28.3779 93.0596 28.3779C94.4375 28.3779 95.7749 28.9904 96.4841 30.0521H99.8478C98.8751 27.3162 96.0788 25.5196 93.0596 25.5196C88.703 25.5196 85.5217 28.8067 85.5217 33.0125ZM101.648 40.2604H104.424V35.3808C104.424 33.7067 105.296 32.6654 106.613 32.6654C107.058 32.6654 107.443 32.7471 107.869 32.89V30.0521C107.524 29.95 107.221 29.9296 106.937 29.9296C105.802 29.9296 104.769 30.685 104.424 31.6854V30.0521H101.648V40.2604ZM108.03 35.1562C108.03 38.0554 110.097 40.485 112.792 40.485C114.19 40.485 115.264 39.7704 115.71 39.1171V40.2604H118.486V30.0521H115.71V31.1954C115.264 30.5421 114.19 29.8275 112.792 29.8275C110.097 29.8275 108.03 32.2571 108.03 35.1562ZM115.933 35.1562C115.933 36.7487 114.899 37.9329 113.38 37.9329C111.86 37.9329 110.826 36.7487 110.826 35.1562C110.826 33.5637 111.86 32.3796 113.38 32.3796C114.899 32.3796 115.933 33.5637 115.933 35.1562ZM120.576 44.5275H123.353V39.1171C123.819 39.7704 124.893 40.485 126.291 40.485C128.986 40.485 131.053 38.0554 131.053 35.1562C131.053 32.2571 128.986 29.8275 126.291 29.8275C124.893 29.8275 123.819 30.5421 123.353 31.1954V30.0521H120.576V44.5275ZM128.236 35.1562C128.236 36.7487 127.203 37.9329 125.683 37.9329C124.163 37.9329 123.13 36.7487 123.13 35.1562C123.13 33.5637 124.163 32.3796 125.683 32.3796C127.203 32.3796 128.236 33.5637 128.236 35.1562ZM132.475 40.2604H135.251V35.2787C135.251 33.3187 136.224 32.3796 137.5 32.3796C138.655 32.3796 139.283 33.2779 139.283 34.7479V40.2604H142.059V34.2783C142.059 31.6242 140.601 29.8275 138.149 29.8275C136.832 29.8275 135.778 30.3992 135.251 31.2158V24.9479H132.475V40.2604Z" fill="white"/>
</g>
</g>
<defs>
<clipPath id="clip0_899_5051">
<rect width="154" height="49" fill="white" transform="translate(0 3)"/>
</clipPath>
</defs>
</svg>
